{
.appVersion = "3303";
.formatVersion = 3;
DisplayStrings = (
"˝",
"ª",
"º",
"ΩΔ",
"Ω"
);
classes = (
{
automatic = 1;

glyphs = (
{
glyphname = A;
kernLeft = KO_A;
kernRight = KO_A;
lastChange = "2024-05-02 21:24:19 +0000";
layers = (
{
anchors = (
{
name = bottom;
pos = (217,0);
},
{
name = ogonek;
pos = (438,0);
},
{
name = top;
pos = (302,711);
}
);
layerId = m01;
shapes = (
{
closed = 1;
nodes = (
(66,59,o),
(68,57,o),
(72,57,cs),
(90,57,o),
(146,102,o),
(151,125,cs),
(187,289,o),
(231,452,o),
(266,615,cs),
(273,649,o),
(164,547,o),
(158,521,cs),
(125,369,o),
(100,217,o),
(67,65,cs)
);
},
{
closed = 1;
nodes = (
(20,150,o),
(-20,38,o),
(-20,7,cs),
(-20,3,o),
(-19,0,o),
(-16,0,cs),
(-15,0,o),
(-13,1,o),
(-11,3,cs),
(7,19,o),
(38,29,o),
(67,29,cs),
(94,29,o),
(120,20,o),
(134,1,cs),
(147,-17,o),
(200,122,o),
(200,160,cs),
(200,164,o),
(199,167,o),
(198,169,cs),
(183,189,o),
(156,199,o),
(126,199,cs),
(95,199,o),
(62,188,o),
(39,167,cs)
);
},
{
closed = 1;
nodes = (
(71,407,o),
(14,237,o),
(24,237,cs),
(111,237,l),
(114,236,o),
(121,243,o),
(125,243,cs),
(295,242,l),
(302,244,o),
(311,238,o),
(317,238,cs),
(320,238,l),
(427,238,ls),
(439,238,o),
(499,408,o),
(487,408,cs),
(380,408,l),
(369,405,o),
(360,394,o),
(349,392,c),
(188,389,l),
(181,392,o),
(179,404,o),
(171,407,c),
(84,407,ls)
);
},
{
closed = 1;
nodes = (
(376,719,o),
(234,615,o),
(266,615,cs),
(274,615,o),
(276,554,o),
(276,470,cs),
(276,373,o),
(273,246,o),
(273,149,cs),
(274,62,ls),
(276,18,o),
(289,0,o),
(315,0,cs),
(323,0,o),
(332,1,o),
(341,4,cs),
(371,13,o),
(465,110,o),
(465,129,cs),
(465,132,o),
(462,134,o),
(457,132,cs),
(450,130,o),
(443,129,o),
(438,129,cs),
(417,129,o),
(405,143,o),
(404,184,cs),
(403,214,ls),
(403,320,o),
(417,503,o),
(417,617,cs),
(417,678,o),
(413,719,o),
(402,719,cs)
);
},
{
closed = 1;
nodes = (
(225,598,o),
(221,563,o),
(221,537,cs),
(221,522,o),
(223,511,o),
(226,511,cs),
(227,511,l),
(315,580,ls),
(321,585,o),
(325,622,o),
(325,647,cs),
(325,662,o),
(323,672,o),
(320,672,cs),
(319,672,l),
(231,603,ls)
);
}
);
width = 529;
}
);
unicode = 65;
userData = {
KernOnName = A;
};
},
{
glyphname = "Alpha-latin";
lastChange = "2024-04-15 14:39:14 +0000";
layers = (
{
anchors = (
{
name = bottom;
pos = (175,10);
},
{
name = center;
pos = (246,350);
},
{
name = ogonek;
pos = (420,10);
},
{
name = top;
pos = (335,700);
},
{
name = topleft;
pos = (48,700);
},
{
name = topright;
pos = (354,700);
}
);
layerId = m01;
shapes = (
{
closed = 1;
nodes = (
(216,80,o),
(258,32,o),
(262,35,cs),
(319,75,o),
(440,169,o),
(433,321,cs),
(432,328,o),
(387,373,o),
(387,365,cs),
(394,217,o),
(275,123,o),
(220,83,cs)
);
},
{
closed = 1;
nodes = (
(299,574,o),
(336,654,o),
(336,686,cs),
(336,694,o),
(334,699,o),
(328,699,cs),
(322,699,o),
(312,693,o),
(298,680,cs),
(231,614,o),
(20,338,o),
(20,152,cs),
(20,70,o),
(61,5,o),
(175,-15,cs),
(208,-21,o),
(332,87,o),
(332,119,cs),
(332,123,o),
(330,126,o),
(325,127,cs),
(203,149,o),
(166,216,o),
(166,289,cs),
(166,403,o),
(255,532,o),
(256,532,c)
);
},
{
closed = 1;
nodes = (
(576,680,o),
(583,693,o),
(583,698,cs),
(583,715,o),
(522,673,o),
(473,613,cs),
(371,487,o),
(372,444,o),
(365,365,cs),
(356,277,o),
(352,191,o),
(345,106,cs),
(343,77,ls),
(343,34,o),
(353,-14,o),
(391,-14,cs),
(407,-14,o),
(426,-7,o),
(451,11,cs),
(503,47,o),
(574,134,o),
(556,134,cs),
(553,134,o),
(545,130,o),
(533,121,cs),
(524,115,o),
(517,112,o),
(511,112,cs),
(493,112,o),
(487,139,o),
(487,174,cs),
(489,218,ls),
(497,298,o),
(508,376,o),
(515,453,cs),
(522,524,o),
(527,621,o),
(559,659,cs)
);
},
{
closed = 1;
nodes = (
(466,558,o),
(612,709,o),
(581,707,cs),
(550,704,o),
(522,703,o),
(497,703,cs),
(439,703,o),
(394,708,o),
(363,708,cs),
(346,708,o),
(333,706,o),
(323,703,c),
(292,690,o),
(224,587,o),
(224,557,cs),
(224,551,o),
(226,548,o),
(231,548,cs),
(233,548,o),
(235,548,o),
(237,549,c),
(293,549,ls),
(328,549,o),
(377,550,o),
(437,555,cs)
);
}
);
width = 585;
}
);
unicode = 11373;
},
{
glyphname = AE;
lastChange = "2024-05-03 14:09:10 +0000";
layers = (
{
anchors = (
{
name = bottom;
pos = (368,0);
},
{
name = top;
pos = (498,740);
}
);
background = {
anchors = (
{
name = bottom;
pos = (454,1);
},
{
name = ogonek;
pos = (653,0);
},
{
name = top;
pos = (584,700);
},
{
name = topleft;
pos = (309,700);
}
);
};
layerId = m01;
shapes = (
{
closed = 1;
nodes = (
(320,136,o),
(283,54,o),
(283,19,cs),
(283,10,o),
(286,4,o),
(292,4,cs),
(295,4,o),
(300,6,o),
(306,10,cs),
(327,24,o),
(347,34,o),
(370,34,cs),
(384,34,o),
(400,30,o),
(417,21,cs),
(445,7,o),
(470,-3,o),
(498,-3,cs),
(516,-3,o),
(535,1,o),
(557,12,cs),
(589,28,o),
(683,154,o),
(661,154,cs),
(659,154,o),
(657,153,o),
(655,152,cs),
(640,145,o),
(626,142,o),
(612,142,cs),
(585,142,o),
(557,154,o),
(527,169,cs),
(499,183,o),
(473,191,o),
(446,191,cs),
(416,191,o),
(385,181,o),
(352,158,cs)
);
},
{
closed = 1;
nodes = (
(358,438,o),
(312,314,o),
(312,278,cs),
(312,272,o),
(313,268,o),
(316,268,cs),
(609,269,ls),
(626,269,o),
(673,392,o),
(673,429,cs),
(673,435,o),
(672,439,o),
(669,439,cs),
(376,438,ls)
);
},
{
closed = 1;
nodes = (
(681,548,o),
(715,662,o),
(715,701,cs),
(715,709,o),
(714,713,o),
(711,713,cs),
(709,713,l),
(690,705,o),
(664,702,o),
(634,702,cs),
(584,702,o),
(524,710,o),
(475,710,cs),
(443,710,o),
(416,707,o),
(398,697,cs),
(380,686,o),
(347,574,o),
(347,536,cs),
(347,529,o),
(348,524,o),
(351,524,cs),
(352,524,o),
(353,524,o),
(354,525,c),
(369,534,o),
(393,536,o),
(422,536,cs),
(470,536,o),
(530,529,o),
(582,529,cs),
(614,529,o),
(643,532,o),
(663,541,cs)
);
},
{
closed = 1;
nodes = (
(65,60,o),
(67,57,o),
(72,57,cs),
(89,57,o),
(143,99,o),
(151,123,cs),
(206,294,o),
(268,463,o),
(324,634,c),
(325,639,o),
(324,642,o),
(321,642,cs),
(304,642,o),
(226,573,o),
(216,542,cs),
(165,384,o),
(119,225,o),
(67,67,cs)
);
},
{
closed = 1;
nodes = (
(20,150,o),
(-20,38,o),
(-20,7,cs),
(-20,3,o),
(-19,0,o),
(-16,0,cs),
(-15,0,o),
(-13,1,o),
(-11,3,cs),
(7,19,o),
(38,29,o),
(67,29,cs),
(94,29,o),
(120,20,o),
(134,1,cs),
(147,-17,o),
(200,122,o),
(200,160,cs),
(200,164,o),
(199,167,o),
(198,169,cs),
(183,189,o),
(156,199,o),
(126,199,cs),
(95,199,o),
(62,188,o),
(39,167,cs)
);
},
{
closed = 1;
nodes = (
(82,408,o),
(25,238,o),
(35,238,cs),
(122,238,l),
(123,236,o),
(123,247,o),
(126,243,c),
(315,242,ls),
(326,242,o),
(379,392,o),
(369,392,cs),
(188,389,l),
(185,393,o),
(187,402,o),
(183,407,c),
(183,408,o),
(183,408,o),
(182,408,cs),
(95,408,ls)
);
},
{
closed = 1;
nodes = (
(289,624,o),
(285,588,o),
(285,562,cs),
(285,548,o),
(287,536,o),
(290,536,cs),
(291,536,l),
(397,604,ls),
(403,608,o),
(407,635,o),
(407,659,cs),
(407,681,o),
(404,700,o),
(397,696,cs),
(295,628,ls)
);
},
{
closed = 1;
nodes = (
(418,640,o),
(415,642,o),
(411,642,cs),
(392,642,o),
(335,597,o),
(333,575,cs),
(314,390,o),
(297,200,o),
(279,29,cs),
(277,7,o),
(281,-2,o),
(288,-2,cs),
(308,-2,o),
(357,75,o),
(363,137,cs),
(381,314,o),
(400,472,o),
(417,635,cs)
);
}
);
width = 735;
}
);
unicode = 198;
},
{
glyphname = B;
kernLeft = KO_B;
kernRight = KO_B;
lastChange = "2024-05-02 21:24:19 +0000";
layers = (
{
anchors = (
{
name = bottom;
pos = (185,0);
},
{
name = center;
pos = (81,267);
},
{
name = left;
pos = (128,596);
},
{
name = top;
pos = (245,700);
}
);
layerId = m01;
shapes = (
{
closed = 1;
nodes = (
(290,-3,o),
(413,143,o),
(390,147,cs),
(258,172,o),
(173,184,o),
(118,184,cs),
(81,184,o),
(57,179,o),
(41,168,cs),
(22,155,o),
(-20,40,o),
(-20,7,cs),
(-20,2,o),
(-19,-1,o),
(-16,-1,cs),
(-15,-1,o),
(-14,-1,o),
(-13,0,cs),
(-9,3,o),
(26,18,o),
(103,18,cs),
(145,18,o),
(200,14,o),
(270,1,cs)
);
},
{
closed = 1;
nodes = (
(165,602,o),
(161,606,o),
(154,606,cs),
(133,606,o),
(79,560,o),
(73,529,cs),
(55,425,o),
(28,118,o),
(26,106,c),
(26,98,o),
(29,94,o),
(35,94,cs),
(56,94,o),
(111,143,o),
(114,172,c),
(114,172,o),
(147,501,o),
(163,591,cs)
);
},
{
closed = 1;
nodes = (
(234,316,o),
(225,296,o),
(225,284,cs),
(225,275,o),
(230,270,o),
(238,270,cs),
(254,270,o),
(281,286,o),
(312,322,cs),
(396,421,o),
(429,497,o),
(429,555,cs),
(429,661,o),
(319,703,o),
(215,703,cs),
(185,703,o),
(155,699,o),
(129,692,cs),
(107,687,o),
(14,531,o),
(41,538,cs),
(79,547,o),
(113,551,o),
(144,551,cs),
(242,551,o),
(302,507,o),
(302,445,cs),
(302,414,o),
(288,379,o),
(256,342,cs)
);
},
{
closed = 1;
nodes = (
(109,484,o),
(60,356,o),
(60,319,cs),
(60,314,o),
(61,310,o),
(63,309,cs),
(284,240,o),
(338,203,o),
(338,173,cs),
(338,159,o),
(326,146,o),
(314,132,cs),
(285,98,o),
(273,70,o),
(273,54,cs),
(273,44,o),
(278,38,o),
(287,38,cs),
(302,38,o),
(328,54,o),
(360,92,cs),
(433,180,o),
(464,242,o),
(464,289,cs),
(464,395,o),
(307,421,o),
(125,479,cs)
);
}
);
width = 493;
}
);
unicode = 66;
userData = {
KernOnName = B;
};
},
{
glyphname = Bhook;
lastChange = "2024-05-02 21:16:57 +0000";
layers = (
{
anchors = (
{
name = bottom;
pos = (319,0);
},
{
name = center;
pos = (319,350);
},
{
name = left;
pos = (202,596);
},
{
name = top;
pos = (319,700);
}
);
layerId = m01;
shapes = (
{
closed = 1;
nodes = (
(468,-3,o),
(591,143,o),
(568,147,cs),
(436,172,o),
(351,184,o),
(296,184,cs),
(259,184,o),
(235,179,o),
(219,168,cs),
(200,155,o),
(158,39,o),
(158,7,cs),
(158,0,o),
(160,-3,o),
(165,0,cs),
(169,3,o),
(204,18,o),
(281,18,cs),
(323,18,o),
(378,14,o),
(448,1,cs)
);
},
{
closed = 1;
nodes = (
(350,641,o),
(347,645,o),
(340,645,cs),
(318,645,o),
(264,599,o),
(259,568,cs),
(243,473,o),
(205,108,o),
(204,106,cs),
(203,98,o),
(207,94,o),
(213,94,cs),
(234,94,o),
(289,143,o),
(292,172,cs),
(293,185,o),
(330,526,o),
(348,630,cs)
);
},
{
closed = 1;
nodes = (
(411,309,o),
(402,291,o),
(402,279,cs),
(402,271,o),
(407,266,o),
(416,266,cs),
(432,266,o),
(462,284,o),
(493,322,cs),
(582,431,o),
(616,512,o),
(616,570,cs),
(616,677,o),
(504,711,o),
(401,711,cs),
(388,711,o),
(375,710,o),
(362,709,cs),
(340,707,o),
(244,559,o),
(270,561,cs),
(288,562,o),
(306,563,o),
(322,563,cs),
(431,563,o),
(492,528,o),
(492,465,cs),
(492,430,o),
(473,386,o),
(431,334,cs)
);
},
{
closed = 1;
nodes = (
(287,484,o),
(238,356,o),
(238,319,cs),
(238,314,o),
(239,310,o),
(241,309,cs),
(462,240,o),
(516,203,o),
(516,173,cs),
(516,159,o),
(504,146,o),
(492,132,cs),
(463,98,o),
(451,70,o),
(451,54,cs),
(451,44,o),
(456,38,o),
(465,38,cs),
(480,38,o),
(506,54,o),
(538,92,cs),
(611,180,o),
(642,242,o),
(642,289,cs),
(642,395,o),
(485,421,o),
(303,479,cs)
);
},
{
closed = 1;
nodes = (
(347,563,o),
(445,710,o),
(421,710,cs),
(399,711,o),
(379,712,o),
(359,712,cs),
(253,712,o),
(176,690,o),
(32,512,cs),
(21,500,o),
(17,492,o),
(17,488,cs),
(17,485,o),
(18,484,o),
(21,484,cs),
(35,484,o),
(77,512,o),
(104,546,cs),
(112,556,o),
(132,565,o),
(239,565,cs),
(263,565,o),
(292,565,o),
(325,564,cs)
);
},
{
closed = 1;
nodes = (
(120,581,o),
(119,583,o),
(115,583,cs),
(99,583,o),
(31,527,o),
(20,500,cs),
(13,482,o),
(10,465,o),
(10,449,cs),
(10,396,o),
(43,356,o),
(85,356,cs),
(98,356,o),
(113,360,o),
(128,370,cs),
(161,391,o),
(213,476,o),
(213,502,cs),
(213,506,o),
(211,509,o),
(207,509,cs),
(204,509,o),
(200,508,o),
(194,504,cs),
(183,497,o),
(169,493,o),
(155,493,cs),
(132,493,o),
(110,506,o),
(110,537,cs),
(110,547,o),
(112,560,o),
(118,574,cs)
);
}
);
width = 671;
}
);
metricRight = B;
unicode = 385;
},
{
glyphname = Bstroke;
kernRight = KO_B;
lastChange = "2024-05-03 14:30:17 +0000";
layers = (
{
anchors = (
{
name = bottom;
pos = (240,0);
},
{
name = center;
pos = (136,267);
},
{
name = left;
pos = (183,596);
},
{
name = top;
pos = (300,700);
}
);
layerId = m01;
shapes = (
{
closed = 1;
nodes = (
(345,-3,o),
(468,143,o),
(445,147,cs),
(313,172,o),
(228,184,o),
(173,184,cs),
(136,184,o),
(112,179,o),
(96,168,cs),
(77,155,o),
(35,40,o),
(35,7,cs),
(35,2,o),
(36,-1,o),
(39,-1,cs),
(40,-1,o),
(41,-1,o),
(42,0,cs),
(46,3,o),
(81,18,o),
(158,18,cs),
(200,18,o),
(255,14,o),
(325,1,cs)
);
},
{
closed = 1;
nodes = (
(220,602,o),
(216,606,o),
(209,606,cs),
(188,606,o),
(134,560,o),
(128,529,cs),
(110,425,o),
(83,118,o),
(81,106,c),
(81,98,o),
(84,94,o),
(90,94,cs),
(111,94,o),
(166,143,o),
(169,172,c),
(169,172,o),
(202,501,o),
(218,591,cs)
);
},
{
closed = 1;
nodes = (
(289,316,o),
(280,296,o),
(280,284,cs),
(280,275,o),
(285,270,o),
(293,270,cs),
(309,270,o),
(336,286,o),
(367,322,cs),
(451,421,o),
(484,497,o),
(484,555,cs),
(484,661,o),
(374,703,o),
(270,703,cs),
(240,703,o),
(210,699,o),
(184,692,cs),
(162,687,o),
(69,531,o),
(96,538,cs),
(134,547,o),
(168,551,o),
(199,551,cs),
(297,551,o),
(357,507,o),
(357,445,cs),
(357,414,o),
(343,379,o),
(311,342,cs)
);
},
{
closed = 1;
nodes = (
(164,484,o),
(115,356,o),
(115,319,cs),
(115,314,o),
(116,310,o),
(118,309,cs),
(339,240,o),
(393,203,o),
(393,173,cs),
(393,159,o),
(381,146,o),
(369,132,cs),
(340,98,o),
(328,70,o),
(328,54,cs),
(328,44,o),
(333,38,o),
(342,38,cs),
(357,38,o),
(383,54,o),
(415,92,cs),
(488,180,o),
(519,242,o),
(519,289,cs),
(519,395,o),
(362,421,o),
(180,479,cs)
);
},
{
closed = 1;
nodes = (
(26,353,o),
(-20,229,o),
(-20,193,cs),
(-20,187,o),
(-19,183,o),
(-16,183,cs),
(120,185,ls),
(137,185,o),
(184,308,o),
(184,345,cs),
(184,351,o),
(183,355,o),
(180,355,cs),
(44,353,ls)
);
}
);
width = 548;
}
);
metricRight = B;
unicode = 579;
},
{
glyphname = C;
kernLeft = KO_C;
kernRight = KO_C;
lastChange = "2024-05-02 21:28:10 +0000";
layers = (
{
anchors = (
{
name = bottom;
pos = (178,0);
},
{
name = top;
pos = (350,711);
}
);
guides = (
{
pos = (683,541);
}
);
layerId = m01;
shapes = (
{
closed = 1;
nodes = (
(361,616,o),
(364,622,o),
(364,625,cs),
(364,627,o),
(363,628,o),
(360,628,cs),
(341,628,o),
(261,582,o),
(224,543,cs),
(67,380,o),
(10,251,o),
(10,159,cs),
(10,43,o),
(99,-16,o),
(190,-16,cs),
(238,-16,o),
(287,1,o),
(323,35,cs),
(353,63,o),
(419,218,o),
(402,218,cs),
(401,218,o),
(398,216,o),
(395,213,cs),
(357,177,o),
(308,159,o),
(263,159,cs),
(202,159,o),
(150,193,o),
(150,266,cs),
(150,339,o),
(202,452,o),
(352,607,cs)
);
},
{
closed = 1;
nodes = (
(393,556,o),
(436,672,o),
(436,706,cs),
(436,712,o),
(435,716,o),
(432,716,cs),
(431,716,o),
(430,716,o),
(429,715,c),
(408,705,o),
(371,698,o),
(334,698,cs),
(299,698,o),
(264,704,o),
(240,717,cs),
(225,726,o),
(174,598,o),
(174,559,cs),
(174,554,o),
(176,550,o),
(178,549,cs),
(203,534,o),
(239,528,o),
(274,528,cs),
(312,528,o),
(350,535,o),
(373,547,cs)
);
}
);
width = 456;
}
);
unicode = 67;
userData = {
KernOnName = C;
};
},
{
glyphname = Chook;
lastChange = "2024-05-02 21:16:49 +0000";
layers = (
{
anchors = (
{
name = bottom;
pos = (182,0);
},
{
name = top;
pos = (354,711);
}
);
layerId = m01;
shapes = (
{
closed = 1;
nodes = (
(361,616,o),
(364,622,o),
(364,625,cs),
(364,627,o),
(363,628,o),
(360,628,cs),
(341,628,o),
(261,582,o),
(224,543,cs),
(67,380,o),
(10,251,o),
(10,159,cs),
(10,43,o),
(99,-16,o),
(190,-16,cs),
(238,-16,o),
(287,1,o),
(323,35,cs),
(353,63,o),
(419,218,o),
(402,218,cs),
(401,218,o),
(398,216,o),
(395,213,cs),
(357,177,o),
(308,159,o),
(263,159,cs),
(202,159,o),
(150,193,o),
(150,266,cs),
(150,339,o),
(202,452,o),
(352,607,cs)
);
},
{
closed = 1;
nodes = (
(284,648,o),
(287,646,o),
(292,646,cs),
(308,646,o),
(345,667,o),
(344,679,cs),
(339,740,o),
(379,781,o),
(380,781,cs),
(404,803,o),
(415,819,o),
(415,827,cs),
(415,830,o),
(412,832,o),
(408,832,cs),
(397,832,o),
(376,821,o),
(348,797,cs),
(292,747,o),
(283,699,o),
(283,668,cs),
(283,662,o),
(284,656,o),
(284,651,cs)
);
},
{
closed = 1;
nodes = (
(337,800,o),
(300,745,o),
(300,726,cs),
(300,721,o),
(302,718,o),
(307,718,cs),
(314,718,o),
(330,726,o),
(355,747,cs),
(355,747,o),
(379,767,o),
(410,767,cs),
(436,767,o),
(469,753,o),
(497,701,cs),
(511,675,o),
(670,822,o),
(655,848,cs),
(627,899,o),
(591,920,o),
(550,920,cs),
(501,920,o),
(446,889,o),
(390,843,cs)
);
},
{
closed = 1;
nodes = (
(393,556,o),
(436,672,o),
(436,706,cs),
(436,714,o),
(434,718,o),
(429,715,cs),
(408,705,o),
(371,698,o),
(334,698,cs),
(299,698,o),
(264,704,o),
(240,717,cs),
(225,726,o),
(174,598,o),
(174,559,cs),
(174,554,o),
(176,550,o),
(178,549,cs),
(203,534,o),
(239,528,o),
(274,528,cs),
(312,528,o),
(350,535,o),
(373,547,cs)
);
}
);
width = 456;
}
);
metricLeft = C;
unicode = 391;
},
{
glyphname = D;
kernLeft = KO_D;
kernRight = KO_D;
lastChange = "2024-05-02 21:24:19 +0000";
layers = (
{
anchors = (
{
name = bottom;
pos = (178,0);
},
{
name = center;
pos = (113,330);
},
{
name = top;
pos = (238,709);
}
);
layerId = m01;
shapes = (
{
closed = 1;
nodes = (
(97,722,o),
(47,592,o),
(47,555,cs),
(47,549,o),
(48,546,o),
(51,545,cs),
(291,478,o),
(363,351,o),
(363,243,cs),
(363,194,o),
(348,149,o),
(328,115,cs),
(317,98,o),
(313,85,o),
(313,76,cs),
(313,65,o),
(319,60,o),
(327,60,cs),
(341,60,o),
(365,76,o),
(386,111,cs),
(434,189,o),
(458,269,o),
(458,344,cs),
(458,509,o),
(343,653,o),
(113,717,cs)
);
},
{
closed = 1;
nodes = (
(47,72,o),
(68,58,o),
(89,58,cs),
(108,58,o),
(127,70,o),
(128,95,cs),
(136,258,o),
(156,474,o),
(156,579,cs),
(156,612,o),
(154,634,o),
(150,641,c),
(141,651,o),
(131,656,o),
(120,656,cs),
(98,656,o),
(77,638,o),
(77,616,cs),
(77,608,o),
(80,600,o),
(86,591,c),
(87,591,o),
(61,358,o),
(48,99,cs)
);
},
{
closed = 1;
nodes = (
(299,-18,o),
(391,92,o),
(391,126,cs),
(391,131,o),
(389,135,o),
(383,135,c),
(236,151,o),
(164,169,o),
(119,169,cs),
(96,169,o),
(80,164,o),
(65,152,cs),
(46,137,o),
(5,23,o),
(5,-8,cs),
(5,-13,o),
(6,-16,o),
(8,-16,cs),
(9,-16,o),
(11,-16,o),
(13,-14,cs),
(21,-8,o),
(36,-2,o),
(85,-2,cs),
(123,-2,o),
(181,-6,o),
(271,-15,cs)
);
}
);
width = 502;
}
);
unicode = 68;
userData = {
KernOnName = D;
};
},
{
glyphname = Dhook;
lastChange = "2024-05-02 21:16:33 +0000";
layers = (
{
anchors = (
{
name = bottom;
pos = (270,0);
},
{
name = center;
pos = (145,330);
},
{
name = top;
pos = (270,700);
}
);
layerId = m01;
shapes = (
{
closed = 1;
nodes = (
(33,492,o),
(29,484,o),
(29,480,cs),
(29,477,o),
(30,476,o),
(33,476,cs),
(47,476,o),
(89,504,o),
(116,538,cs),
(124,547,o),
(142,551,o),
(174,551,cs),
(196,551,o),
(224,549,o),
(261,546,cs),
(481,531,o),
(553,385,o),
(553,258,cs),
(553,202,o),
(539,150,o),
(517,114,cs),
(507,97,o),
(502,84,o),
(502,74,cs),
(502,64,o),
(508,59,o),
(516,59,cs),
(531,59,o),
(555,75,o),
(576,110,cs),
(620,181,o),
(643,272,o),
(643,361,cs),
(643,532,o),
(555,697,o),
(351,712,cs),
(345,712,o),
(338,713,o),
(329,713,cs),
(281,713,o),
(197,692,o),
(44,504,cs)
);
},
{
closed = 1;
nodes = (
(130,562,o),
(129,564,o),
(125,564,cs),
(109,564,o),
(41,508,o),
(30,481,cs),
(23,463,o),
(20,446,o),
(20,430,cs),
(20,377,o),
(53,337,o),
(95,337,cs),
(108,337,o),
(123,341,o),
(138,351,cs),
(171,372,o),
(223,457,o),
(223,483,cs),
(223,487,o),
(221,490,o),
(217,490,cs),
(214,490,o),
(210,489,o),
(204,485,cs),
(193,478,o),
(179,474,o),
(165,474,cs),
(142,474,o),
(120,487,o),
(120,518,cs),
(120,528,o),
(122,541,o),
(128,555,cs)
);
},
{
closed = 1;
nodes = (
(242,71,o),
(263,57,o),
(284,57,cs),
(303,57,o),
(322,69,o),
(323,94,cs),
(331,253,o),
(351,465,o),
(351,568,cs),
(351,601,o),
(349,623,o),
(344,629,cs),
(336,640,o),
(325,644,o),
(314,644,cs),
(293,644,o),
(272,626,o),
(272,604,cs),
(272,597,o),
(274,588,o),
(281,580,cs),
(281,580,o),
(256,352,o),
(243,98,cs)
);
},
{
closed = 1;
nodes = (
(489,-18,o),
(581,92,o),
(581,126,cs),
(581,131,o),
(579,135,o),
(573,135,cs),
(428,151,o),
(358,168,o),
(314,168,cs),
(291,168,o),
(276,164,o),
(261,152,cs),
(242,137,o),
(201,23,o),
(201,-8,cs),
(201,-16,o),
(203,-19,o),
(209,-14,cs),
(216,-8,o),
(231,-3,o),
(280,-3,cs),
(317,-3,o),
(373,-6,o),
(461,-15,cs)
);
}
);
width = 687;
}
);
metricRight = D;
unicode = 394;
},
{
glyphname = E;
kernLeft = KO_E;
kernRight = KO_E;
lastChange = "2024-05-02 21:24:19 +0000";
layers = (
{
anchors = (
{
name = bottom;
pos = (198,2);
},
{
name = ogonek;
pos = (407,0);
},
{
name = top;
pos = (314,709);
},
{
name = topleft;
pos = (39,700);
}
);
layerId = m01;
shapes = (
{
closed = 1;
nodes = (
(195,640,o),
(192,642,o),
(188,642,cs),
(169,642,o),
(112,597,o),
(110,575,cs),
(91,386,o),
(59,197,o),
(40,6,cs),
(39,-6,o),
(45,-8,o),
(50,-8,cs),
(53,-8,o),
(57,-7,o),
(58,-7,c),
(87,5,o),
(105,15,o),
(129,15,cs),
(143,15,o),
(158,12,o),
(179,4,cs),
(199,-4,o),
(230,-13,o),
(265,-13,cs),
(281,-13,o),
(298,-11,o),
(315,-6,cs),
(344,2,o),
(451,146,o),
(417,136,cs),
(404,132,o),
(390,131,o),
(376,131,cs),
(341,131,o),
(306,140,o),
(285,148,cs),
(266,156,o),
(248,159,o),
(230,159,cs),
(200,159,o),
(171,150,o),
(138,137,c),
(156,124,l),
(173,293,o),
(177,464,o),
(194,635,cs)
);
},
{
closed = 1;
nodes = (
(88,438,o),
(42,314,o),
(42,278,cs),
(42,272,o),
(43,268,o),
(46,268,cs),
(369,269,ls),
(386,269,o),
(433,392,o),
(433,429,cs),
(433,435,o),
(432,439,o),
(429,439,cs),
(106,438,ls)
);
},
{
closed = 1;
nodes = (
(452,542,o),
(485,654,o),
(485,690,cs),
(485,697,o),
(484,702,o),
(481,702,cs),
(480,702,o),
(479,701,o),
(477,700,cs),
(467,693,o),
(447,690,o),
(421,690,cs),
(367,690,o),
(288,702,o),
(221,702,cs),
(176,702,o),
(137,696,o),
(115,678,cs),
(97,663,o),
(66,553,o),
(66,517,cs),
(66,510,o),
(67,506,o),
(70,506,cs),
(71,506,o),
(72,507,o),
(73,508,cs),
(92,523,o),
(125,528,o),
(165,528,cs),
(228,528,o),
(306,516,o),
(364,516,cs),
(395,516,o),
(421,519,o),
(435,530,cs)
);
}
);
width = 505;
}
);
unicode = 69;
userData = {
KernOnName = E;
};
},
{
glyphname = Eopen;
lastChange = "2024-03-25 03:27:00 +0000";
layers = (
{
layerId = m01;
shapes = (
{
closed = 1;
nodes = (
(294,465,o),
(293,462,o),
(293,459,cs),
(293,457,o),
(294,456,o),
(296,456,cs),
(313,456,o),
(399,534,o),
(420,574,cs),
(425,586,o),
(428,599,o),
(428,613,cs),
(428,662,o),
(394.001,715,o),
(332,715,cs),
(298,715,o),
(256,700,o),
(208,660,cs),
(157,618,o),
(122,565,o),
(137,565,cs),
(142,565,o),
(154,572,o),
(174,588,cs),
(181,594,o),
(190,597,o),
(200,597,cs),
(243,597,o),
(304,551,o),
(304,500,cs),
(304,490,o),
(302,480,o),
(296,470,c)
);
},
{
closed = 1;
nodes = (
(194,629,o),
(193,631,o),
(190,631,cs),
(174,631,o),
(81,545,o),
(65,509,cs),
(50,476,o),
(40,437,o),
(40,401,cs),
(40,340,o),
(69,289,o),
(152,289,cs),
(166,289,o),
(181,291,o),
(198,294,cs),
(217,297,o),
(332,419,o),
(318,416,cs),
(301,413,o),
(287,412,o),
(274,412,cs),
(194,412,o),
(168,463,o),
(168,520,cs),
(168,555,o),
(178,593,o),
(191,623,cs)
);
},
{
closed = 1;
nodes = (
(237,87,o),
(170,4,o),
(188,4,cs),
(191,4,o),
(199.009,8.006,o),
(212,17,cs),
(376,133,o),
(429,229,o),
(429,298,cs),
(429,333,o),
(415,361,o),
(396,381,cs),
(382,394,o),
(254,268,o),
(268,253,cs),
(302,220,o),
(312,193,o),
(312,172,cs),
(312,141,o),
(290,124,o),
(288,123,cs)
);
},
{
closed = 1;
nodes = (
(227,315,o),
(228,318,o),
(228,320,cs),
(228,321,o),
(227,322,o),
(224,322,cs),
(203,322,o),
(103,269,o),
(75,238,cs),
(32,188,o),
(10,135,o),
(10,90,cs),
(10,32,o),
(47,-11,o),
(121,-11,cs),
(139,-11,o),
(159,-8,o),
(181,-3,cs),
(200,2,o),
(315,123,o),
(299,119,cs),
(274,113,o),
(253,110,o),
(235,110,cs),
(179,110,o),
(156,136,o),
(156,174,cs),
(156,213,o),
(182,264,o),
(223,310,cs)
);
}
);
width = 459;
}
);
unicode = 400;
},
{
glyphname = Esh;
lastChange = "2024-04-15 16:21:13 +0000";
layers = (
{
background = {
shapes = (
{
pos = (-20,0);
ref = Z;
}
);
};
layerId = m01;
shapes = (
{
closed = 1;
nodes = (
(424,541,o),
(458,655,o),
(458,693,cs),
(458,700,o),
(457,705,o),
(454,705,cs),
(453,705,o),
(452,705,o),
(451,704,c),
(440,698,o),
(418,696,o),
(391,696,cs),
(340,696,o),
(269,703,o),
(207,703,cs),
(157,703,o),
(113,698,o),
(89,683,cs),
(75,674,o),
(38,562,o),
(38,523,cs),
(38,518,o),
(39,514,o),
(41,512,cs),
(97,442,o),
(149,371,o),
(208,296,c),
(228,357,l),
(157,281,o),
(120,249,o),
(38,161,cs),
(36,159,o),
(0,52,o),
(0,15,cs),
(0,8,o),
(1,3,o),
(5,3,cs),
(6,3,ls),
(16,5,o),
(31,5,o),
(49,5,cs),
(108,5,o),
(201,-3,o),
(273,-3,cs),
(315,-3,o),
(350,0,o),
(367,9,cs),
(384,18,o),
(418,132,o),
(418,170,cs),
(418,177,o),
(417,182,o),
(414,182,cs),
(413,182,o),
(412,182,o),
(411,181,c),
(392,171,o),
(346,168,o),
(292,168,cs),
(235,168,o),
(171,171,o),
(119,171,cs),
(89,171,o),
(64,170,o),
(48,167,c),
(16,9,l),
(95,94,o),
(219,235,o),
(310,331,cs),
(330,353,o),
(336,367,o),
(336,377,cs),
(336,384,o),
(333,389,o),
(330,392,cs),
(255,486,o),
(172,584,o),
(93,682,c),
(45,511,l),
(66,525,o),
(105,529,o),
(151,529,cs),
(211,529,o),
(281,522,o),
(335,522,cs),
(367,522,o),
(393,524,o),
(407,532,cs)
);
}
);
width = 458;
}
);
unicode = 425;
},
{
glyphname = Eturned;
lastChange = "2024-04-15 14:38:12 +0000";
layers = (
{
layerId = m01;
shapes = (
{
closed = 1;
nodes = (
(428,235,o),
(475,358,o),
(475,395,cs),
(475,401,o),
(474,405,o),
(471,405,cs),
(148,404,ls),
(130,404,o),
(84,280,o),
(84,244,cs),
(84,238,o),
(85,234,o),
(88,234,cs),
(411,235,ls)
);
},
{
closed = 1;
nodes = (
(66,633,o),
(34,521,o),
(34,484,cs),
(34,477,o),
(35,472,o),
(38,472,cs),
(39,472,o),
(40,472,o),
(41,473,cs),
(52,480,o),
(72,482,o),
(98,482,cs),
(150,482,o),
(224,473,o),
(288,473,cs),
(331,473,o),
(369,477,o),
(391,493,cs),
(409,505,o),
(441,615,o),
(441,653,cs),
(441,660,o),
(440,665,o),
(437,665,cs),
(436,665,o),
(435,664,o),
(433,663,cs),
(415,651,o),
(382,647,o),
(343,647,cs),
(283,647,o),
(209,656,o),
(153,656,cs),
(123,656,o),
(98,654,o),
(85,645,cs)
);
},
{
closed = 1;
nodes = (
(300,45,o),
(303,40,o),
(310,40,cs),
(336,40,o),
(412,128,o),
(417,173,cs),
(434,335,o),
(438,497,o),
(455,659,cs),
(456,664,o),
(453,666,o),
(449,666,cs),
(430,666,o),
(373,621,o),
(371,599,cs),
(352,419,o),
(320,237,o),
(301,57,cs)
);
},
{
closed = 1;
nodes = (
(319,4,o),
(413,130,o),
(391,130,cs),
(389,130,o),
(387,129,o),
(385,128,cs),
(370,121,o),
(355,118,o),
(340,118,cs),
(313,118,o),
(285,128,o),
(256,143,cs),
(234,154,o),
(214,162,o),
(192,162,cs),
(166,162,o),
(136,151,o),
(95,123,cs),
(54,94,o),
(10,19,o),
(10,-7,cs),
(10,-13,o),
(12,-17,o),
(17,-17,cs),
(22,-17,o),
(30,-14,o),
(41,-7,cs),
(54,3,o),
(74,12,o),
(98,12,cs),
(113,12,o),
(130,8,o),
(148,-1,cs),
(178,-16,o),
(203,-27,o),
(230,-27,cs),
(247,-27,o),
(266,-23,o),
(287,-12,cs)
);
}
);
width = 510;
}
);
unicode = 398;
},
{
glyphname = Schwa;
lastChange = "2024-04-15 16:21:13 +0000";
layers = (
{
anchors = (
{
name = bottom;
pos = (151,0);
},
{
name = center;
pos = (222,350);
},
{
name = ogonek;
pos = (396,10);
},
{
name = top;
pos = (311,700);
},
{
name = topleft;
pos = (24,700);
},
{
name = topright;
pos = (330,700);
}
);
layerId = m01;
shapes = (
{
closed = 1;
nodes = (
(168,75,o),
(137,30,o),
(137,8,cs),
(137,-1,o),
(142,-6,o),
(151,-6,cs),
(164,-6,o),
(184,2,o),
(213,23,cs),
(316,96,o),
(438,232,o),
(438,403,cs),
(438,498,o),
(400,603,o),
(300,713,cs),
(286,729,o),
(189,544,o),
(204,527,cs),
(302,418,o),
(335,335,o),
(335,273,cs),
(335,161,o),
(228,118,o),
(221,113,cs)
);
},
{
closed = 1;
nodes = (
(154,368,o),
(152,371,o),
(146,371,cs),
(124,371,o),
(42,310,o),
(33,282,cs),
(17,234,o),
(5,187,o),
(5,144,cs),
(5,72,o),
(40,14,o),
(151,-6,cs),
(184,-12,o),
(308,96,o),
(308,128,cs),
(308,132,o),
(306,135,o),
(301,136,cs),
(180,158,o),
(135,204,o),
(135,274,cs),
(135,300,o),
(141,328,o),
(151,360,cs)
);
},
{
closed = 1;
nodes = (
(122,369,o),
(88,327,o),
(88,305,cs),
(88,297,o),
(92,292,o),
(103,292,cs),
(106,292,ls),
(141,294,o),
(357,294,o),
(365,294,cs),
(393,295,o),
(428,337,o),
(428,360,cs),
(428,368,o),
(423,374,o),
(411,374,c),
(411,374,o),
(184,373,o),
(150,370,cs)
);
}
);
width = 473;
}
);
unicode = 399;
},
{
glyphname = Ezh;
kernLeft = KO_O;
lastChange = "2024-04-15 14:39:14 +0000";
layers = (
{
layerId = m01;
shapes = (
{
closed = 1;
nodes = (
(71,693,o),
(38,581,o),
(38,543,cs),
(38,536,o),
(39,531,o),
(42,531,cs),
(43,531,o),
(44,531,o),
(45,532,c),
(57,539,o),
(78,541,o),
(104,541,cs),
(156,541,o),
(230,532,o),
(293,532,cs),
(335,532,o),
(374,536,o),
(397,551,cs),
(415,562,o),
(448,674,o),
(448,711,cs),
(448,719,o),
(447,724,o),
(444,724,cs),
(443,724,o),
(442,724,o),
(441,723,c),
(420,710,o),
(385,706,o),
(346,706,cs),
(286,706,o),
(213,715,o),
(158,715,cs),
(128,715,o),
(104,713,o),
(89,704,cs)
);
},
{
closed = 1;
nodes = (
(155,17,o),
(135,-15,o),
(150,-15,cs),
(161,-15,o),
(189,2,o),
(233,40,cs),
(381,169,o),
(442,276,o),
(442,348,cs),
(442,412,o),
(395,448,o),
(320,448,cs),
(297,448,o),
(271,444,o),
(243,437,cs),
(212,429,o),
(71,273,o),
(109,283,cs),
(142,291,o),
(169,295,o),
(192,295,cs),
(257,295,o),
(279,262,o),
(279,220,cs),
(279,162,o),
(238,89,o),
(213,68,cs)
);
},
{
closed = 1;
nodes = (
(207,6,o),
(289,103,o),
(266,103,cs),
(263,103,o),
(258,102,o),
(252,98,c),
(225,85,o),
(201,79,o),
(181,79,cs),
(131,79,o),
(102,115,o),
(102,163,cs),
(102,179,o),
(105,195,o),
(111,212,cs),
(113,219,o),
(112,222,o),
(109,222,cs),
(90,222,o),
(3,141,o),
(-9,108,cs),
(-16,87,o),
(-20,67,o),
(-20,48,cs),
(-20,-4,o),
(7,-45,o),
(65,-45,cs),
(91,-45,o),
(124,-36,o),
(162,-16,cs)
);
},
{
closed = 1;
nodes = (
(403,554,o),
(411,568,o),
(411,577,cs),
(411,588,o),
(402,593,o),
(388,593,cs),
(367,593,o),
(333,579,o),
(300,550,cs),
(268,520,o),
(130,332,o),
(130,331,c),
(121,320,o),
(118,311,o),
(118,305,cs),
(118,296,o),
(125,292,o),
(137,292,cs),
(166,292,o),
(219,317,o),
(246,353,cs),
(384,536,l)
);
}
);
width = 478;
}
);
unicode = 439;
},
{
glyphname = F;
kernLeft = KO_F;
kernRight = KO_F;
lastChange = "2024-04-15 16:21:13 +0000";
layers = (
{
anchors = (
{
name = left;
pos = (106,637);
}
);
layerId = m01;
shapes = (
{
closed = 1;
nodes = (
(180,648,o),
(178,650,o),
(175,650,cs),
(157,650,o),
(100,597,o),
(98,574,cs),
(48,68,ls),
(48,62,o),
(49,60,o),
(53,60,cs),
(71,60,o),
(128,114,o),
(130,136,cs),
(180,642,ls)
);
},
{
closed = 1;
nodes = (
(434,555,o),
(463,661,o),
(463,697,cs),
(463,704,o),
(462,708,o),
(459,708,cs),
(458,708,o),
(456,707,o),
(454,705,cs),
(443,695,o),
(411,692,o),
(371,692,cs),
(314,692,o),
(241,698,o),
(186,698,cs),
(153,698,o),
(127,696,o),
(114,690,cs),
(96,680,o),
(55,563,o),
(55,529,cs),
(55,523,o),
(56,519,o),
(60,519,c),
(60,519,o),
(61,520,o),
(62,520,c),
(71,525,o),
(90,527,o),
(114,527,cs),
(169,527,o),
(252,518,o),
(317,518,cs),
(362,518,o),
(399,522,o),
(414,537,cs)
);
},
{
closed = 1;
nodes = (
(363,282,o),
(396,394,o),
(396,432,cs),
(396,440,o),
(395,445,o),
(392,445,cs),
(391,445,o),
(390,445,o),
(389,444,c),
(379,439,o),
(356,437,o),
(327,437,cs),
(280,437,o),
(218,441,o),
(168,441,cs),
(130,441,o),
(100,439,o),
(86,431,cs),
(68,420,o),
(35,308,o),
(35,270,cs),
(35,263,o),
(36,258,o),
(39,258,cs),
(40,258,o),
(41,258,o),
(42,259,c),
(53,265,o),
(78,267,o),
(110,267,cs),
(158,267,o),
(221,263,o),
(270,263,cs),
(305,263,o),
(333,265,o),
(345,272,cs)
);
},
{
closed = 1;
nodes = (
(29,148,o),
(-10,39,o),
(-10,8,cs),
(-10,2,o),
(-9,-1,o),
(-6,-1,cs),
(-5,-1,o),
(-3,0,o),
(-1,2,cs),
(17,18,o),
(47,28,o),
(76,28,cs),
(103,28,o),
(129,19,o),
(144,0,cs),
(158,-17,o),
(210,120,o),
(210,159,cs),
(210,163,o),
(209,166,o),
(208,168,c),
(192,188,o),
(165,198,o),
(135,198,cs),
(104,198,o),
(72,187,o),
(49,166,cs)
);
}
);
width = 442;
}
);
unicode = 70;
},
{
glyphname = Fhook;
kernRight = KO_F;
lastChange = "2024-05-02 21:16:15 +0000";
layers = (
{
anchors = (
{
name = left;
pos = (260,637);
}
);
layerId = m01;
shapes = (
{
closed = 1;
nodes = (
(189,648,o),
(187,650,o),
(184,650,cs),
(166,650,o),
(109,597,o),
(107,574,cs),
(88,382,o),
(50,1,o),
(31,-191,cs),
(31,-196,o),
(32,-198,o),
(36,-198,cs),
(54,-198,o),
(111,-144,o),
(113,-122,cs),
(132,70,o),
(170,451,o),
(189,642,cs)
);
},
{
closed = 1;
nodes = (
(443,555,o),
(472,660,o),
(472,696,cs),
(472,707,o),
(470,712,o),
(463,705,cs),
(452,695,o),
(420,692,o),
(380,692,cs),
(323,692,o),
(250,698,o),
(195,698,cs),
(162,698,o),
(136,696,o),
(123,690,cs),
(105,680,o),
(64,563,o),
(64,529,cs),
(64,522,o),
(66,518,o),
(71,520,cs),
(80,525,o),
(99,527,o),
(123,527,cs),
(178,527,o),
(261,518,o),
(326,518,cs),
(371,518,o),
(408,522,o),
(423,537,cs)
);
},
{
closed = 1;
nodes = (
(372,282,o),
(405,394,o),
(405,432,cs),
(405,442,o),
(403,447,o),
(398,444,cs),
(388,439,o),
(365,437,o),
(336,437,cs),
(289,437,o),
(227,441,o),
(177,441,cs),
(139,441,o),
(109,439,o),
(95,431,cs),
(77,420,o),
(44,308,o),
(44,270,cs),
(44,261,o),
(46,256,o),
(51,259,cs),
(62,265,o),
(87,267,o),
(119,267,cs),
(167,267,o),
(230,263,o),
(279,263,cs),
(314,263,o),
(342,265,o),
(354,272,cs)
);
},
{
closed = 1;
nodes = (
(48,-214,o),
(111,-142,o),
(111,-122,cs),
(111,-118,o),
(109,-116,o),
(105,-116,cs),
(101,-116,o),
(94,-119,o),
(85,-123,cs),
(76,-128,o),
(68,-129,o),
(61,-129,cs),
(26,-129,o),
(2,-89,o),
(2,-53,cs),
(2,-46,o),
(3,-38,o),
(6,-31,cs),
(9,-21,o),
(6,-16,o),
(-1,-16,cs),
(-30,-16,o),
(-121,-81,o),
(-135,-120,cs),
(-139,-129,o),
(-140,-141,o),
(-140,-153,cs),
(-140,-198,o),
(-116,-254,o),
(-59,-254,cs),
(-42,-254,o),
(-22,-249,o),
(1,-237,cs)
);
}
);
width = 451;
}
);
metricRight = F;
unicode = 401;
},
{
glyphname = G;
kernLeft = KO_G;
kernRight = KO_G;
lastChange = "2024-05-02 21:24:19 +0000";
layers = (
{
anchors = (
{
name = bottom;
pos = (209,-30);
},
{
name = left;
pos = (160,650);
},
{
name = top;
pos = (337,710);
}
);
layerId = m01;
shapes = (
{
closed = 1;
nodes = (
(383,624,o),
(387,631,o),
(387,635,cs),
(387,639,o),
(383,641,o),
(376,641,cs),
(355,641,o),
(310,625,o),
(281,599,cs),
(85,426,o),
(5,273,o),
(5,159,cs),
(5,96,o),
(30,45,o),
(73,9,cs),
(111,-22,o),
(170,-16,o),
(184,-16,cs),
(193,-16,o),
(372,140,o),
(404,186,cs),
(411,198,o),
(415,213,o),
(415,224,cs),
(415,236,o),
(411,244,o),
(406,244,cs),
(402,244,o),
(397,241,o),
(392,234,cs),
(376,209,o),
(264,116,o),
(264,116,c),
(260,116,o),
(226,115,o),
(199,137,cs),
(160,170,o),
(138,211,o),
(138,262,cs),
(138,352,o),
(209,470,o),
(373,615,cs)
);
},
{
closed = 1;
nodes = (
(255,357,o),
(186,257,o),
(203,257,cs),
(206,257,o),
(212,260,o),
(221,267,cs),
(228,273,o),
(241,277,o),
(254,277,cs),
(283,277,o),
(316,260,o),
(313,200,cs),
(310,135,o),
(301,72,o),
(294,6,cs),
(293,-5,o),
(293,-15,o),
(293,-25,cs),
(293,-72,o),
(306,-104,o),
(335,-100,cs),
(362,-97,o),
(488,33,o),
(455,28,cs),
(439,26,o),
(433,38,o),
(433,68,cs),
(436,114,ls),
(442,178,o),
(451,244,o),
(455,308,cs),
(457,365,o),
(413,414,o),
(360,414,cs),
(339,414,o),
(318,407,o),
(297,391,cs)
);
},
{
closed = 1;
nodes = (
(392,577,o),
(429,683,o),
(429,714,cs),
(429,719,o),
(428,722,o),
(426,722,cs),
(424,722,o),
(422,720,o),
(419,717,cs),
(407,705,o),
(369,696,o),
(330,696,cs),
(293,696,o),
(254,704,o),
(235,722,cs),
(221,735,o),
(169,604,o),
(169,564,cs),
(169,559,o),
(169,556,o),
(171,554,cs),
(192,535,o),
(231,526,o),
(271,526,cs),
(312,526,o),
(353,536,o),
(371,555,cs)
);
}
);
width = 505;
}
);
unicode = 71;
userData = {
KernOnName = G;
};
},
{
glyphname = Ghook;
lastChange = "2024-05-02 21:16:02 +0000";
layers = (
{
layerId = m01;
shapes = (
{
closed = 1;
nodes = (
(385,623,o),
(389,629,o),
(389,634,cs),
(389,638,o),
(385,640,o),
(377,640,cs),
(356,640,o),
(312,624,o),
(284.757,599.654,cs),
(89,427,o),
(10,274,o),
(10,160,cs),
(10,96,o),
(35,45,o),
(77.555,9.185,cs),
(115.63,-22.496,o),
(175.179,-15.805,o),
(189.492,-15.805,cs),
(198.402,-15.805,o),
(377.208,139.948,o),
(408.71,186.45,cs),
(416,198,o),
(420,213,o),
(420,224,cs),
(420,236,o),
(416,244,o),
(411,244,cs),
(407,244,o),
(402,241,o),
(397.29,233.55,cs),
(380.681,209.031,o),
(268.598,115.805,o),
(268.508,115.805,cs),
(264.821,115.805,o),
(230.738,114.938,o),
(204.445,136.815,cs),
(165,170,o),
(143,212,o),
(143,263,cs),
(143,353,o),
(212,471,o),
(375.243,614.346,cs)
);
},
{
closed = 1;
nodes = (
(260,357,o),
(191,257,o),
(208,257,cs),
(211,257,o),
(217,260,o),
(225.782,267.46,cs),
(233,273,o),
(246,277,o),
(259,277,cs),
(288,277,o),
(321,260,o),
(318.424,199.535,cs),
(315.261,134.803,o),
(305.734,71.538,o),
(299.441,5.882,cs),
(298,-5,o),
(298,-15,o),
(298,-25,cs),
(298,-72,o),
(311,-104,o),
(339.956,-100.454,cs),
(366.78,-96.754,o),
(492.545,32.937,o),
(460.044,28.454,cs),
(444,26,o),
(438,38,o),
(438,68,cs),
(438,80,o),
(439,96,o),
(440.559,114.118,cs),
(446.664,177.821,o),
(456.405,243.554,o),
(459.576,308.465,cs),
(462,365,o),
(418,414,o),
(365,414,cs),
(344,414,o),
(323,407,o),
(302.218,390.54,cs)
);
},
{
closed = 1;
nodes = (
(280,647,o),
(283,646,o),
(288,646,cs),
(304,646,o),
(341,666,o),
(339.855,678.943,cs),
(334.905,739.993,o),
(373.096,779.132,o),
(373.786,779.732,cs),
(399,802,o),
(411,818,o),
(411,826,cs),
(411,830,o),
(408,832,o),
(404,832,cs),
(394,832,o),
(373,822,o),
(346.214,798.268,cs),
(277.906,738.869,o),
(277.988,677.659,o),
(280.145,651.057,cs)
);
},
{
closed = 1;
nodes = (
(333,799,o),
(296,744,o),
(296,725,cs),
(296,721,o),
(298,718,o),
(302,718,cs),
(310,718,o),
(326,727,o),
(350.505,746.881,cs),
(351,747,o),
(375,767,o),
(406,767,cs),
(432,767,o),
(464,753,o),
(492.877,700.617,cs),
(507.072,674.518,o),
(665.162,821.569,o),
(651.123,847.383,cs),
(623,898,o),
(587,920,o),
(546,920,cs),
(497,920,o),
(441,889,o),
(385.495,843.119,cs)
);
},
{
closed = 1;
nodes = (
(389,556,o),
(432,672,o),
(432,706,cs),
(432,714,o),
(430,718,o),
(424.867,715.178,cs),
(404,705,o),
(367,698,o),
(330,698,cs),
(295,698,o),
(260,704,o),
(236.255,717.342,cs),
(221,726,o),
(170,598,o),
(170,559,cs),
(170,554,o),
(172,550,o),
(173.745,548.658,cs),
(199,534,o),
(235,528,o),
(270,528,cs),
(308,528,o),
(346,535,o),
(369.133,546.822,cs)
);
}
);
width = 502;
}
);
metricLeft = g;
unicode = 403;
},
{
glyphname = Gstroke;
kernLeft = KO_G;
lastChange = "2024-04-15 16:58:27 +0000";
layers = (
{
anchors = (
{
name = top;
pos = (570,316);
}
);
layerId = m01;
shapes = (
{
ref = G;
},
{
closed = 1;
nodes = (
(379,316,o),
(333,192,o),
(333,156,cs),
(333,150,o),
(334,146,o),
(337,146,cs),
(503,148,ls),
(520,148,o),
(567,271,o),
(567,308,cs),
(567,314,o),
(566,318,o),
(563,318,cs),
(397,316,ls)
);
}
);
width = 577;
}
);
metricLeft = G;
unicode = 484;
},
{
glyphname = H;
kernLeft = KO_H;
kernRight = KO_H;
lastChange = "2024-05-02 21:24:19 +0000";
layers = (
{
anchors = (
{
name = bottom;
pos = (291,0);
},
{
name = center;
pos = (291,350);
},
{
name = top;
pos = (334,707);
},
{
name = topleft;
pos = (50,700);
}
);
guides = (
{
pos = (103,-2);
},
{
pos = (204,711);
},
{
pos = (1015,217);
}
);
layerId = m01;
shapes = (
{
closed = 1;
nodes = (
(87,438,o),
(40,313,o),
(40,278,cs),
(40,272,o),
(41,268,o),
(44,268,cs),
(477,269,ls),
(494,269,o),
(541,393,o),
(541,429,cs),
(541,435,o),
(540,439,o),
(537,439,cs),
(104,438,ls)
);
},
{
closed = 1;
nodes = (
(168,706,o),
(38,575,o),
(77,584,cs),
(84,586,o),
(93,571,o),
(93,526,cs),
(92,488,l),
(63,106,ls),
(57,39,o),
(81,-4,o),
(104,0,cs),
(134,5,o),
(261,138,o),
(226,132,cs),
(207,129,o),
(202,136,o),
(202,153,cs),
(202,168,o),
(205,189,o),
(207,218,cs),
(236,600,ls),
(237,609,o),
(237,618,o),
(237,627,cs),
(237,677,o),
(225,720,o),
(199,714,cs)
);
},
{
closed = 1;
nodes = (
(437,706,o),
(307,575,o),
(346,584,cs),
(353,586,o),
(362,571,o),
(362,526,cs),
(361,488,l),
(332,106,ls),
(326,39,o),
(350,-4,o),
(373,0,cs),
(403,5,o),
(530,138,o),
(495,132,cs),
(476,129,o),
(471,136,o),
(471,153,cs),
(471,168,o),
(474,189,o),
(476,218,cs),
(505,600,ls),
(506,609,o),
(506,618,o),
(506,627,cs),
(506,677,o),
(494,720,o),
(468,714,cs)
);
}
);
width = 581;
}
);
unicode = 72;
userData = {
KernOnName = H;
};
},
{
glyphname = Hbar;
lastChange = "2024-04-15 16:57:23 +0000";
layers = (
{
anchors = (
{
name = top;
pos = (388,650);
}
);
layerId = m01;
shapes = (
{
alignment = -1;
pos = (30,0);
ref = H;
},
{
closed = 1;
nodes = (
(66,603,o),
(30,540,o),
(30,517,cs),
(30,512,o),
(31,510,o),
(35,510,cs),
(557,511,ls),
(573,511,o),
(611,575,o),
(611,597,cs),
(611,602,o),
(610,604,o),
(606,604,cs),
(98,603,ls)
);
}
);
width = 641;
}
);
unicode = 294;
},
{
glyphname = Hhook;
kernRight = KO_H;
lastChange = "2024-05-02 21:15:49 +0000";
layers = (
{
anchors = (
{
name = bottom;
pos = (278,0);
},
{
name = center;
pos = (278,350);
},
{
name = top;
pos = (321,707);
},
{
name = topleft;
pos = (37,700);
}
);
layerId = m01;
shapes = (
{
closed = 1;
nodes = (
(247,438,o),
(200,313,o),
(200,278,cs),
(200,272,o),
(201,268,o),
(204,268,cs),
(348,269,o),
(493,269,o),
(637,269,cs),
(654,269,o),
(701,393,o),
(701,429,cs),
(701,435,o),
(700,439,o),
(697,439,cs),
(553,438,o),
(408,438,o),
(264,438,cs)
);
},
{
closed = 1;
nodes = (
(294,5,o),
(421,138,o),
(386,132,cs),
(371,130,o),
(365,137,o),
(365,171,cs),
(365,183,o),
(366,198,o),
(367,218,cs),
(377,345,o),
(387,472,o),
(396,600,cs),
(397,610,o),
(398,620,o),
(398,629,cs),
(398,679,o),
(386,711,o),
(368,712,cs),
(356,712,o),
(344,713,o),
(331,713,cs),
(251,713,o),
(155,691,o),
(26,507,cs),
(20,498,o),
(17,492,o),
(17,489,cs),
(17,486,o),
(18,485,o),
(21,485,cs),
(36,485,o),
(86,521,o),
(110,555,cs),
(125,577,o),
(136,589,o),
(208,589,cs),
(220,589,o),
(234,589,o),
(250,588,cs),
(255,588,o),
(257,581,o),
(257,567,cs),
(257,551,o),
(254,525,o),
(252,488,cs),
(242,361,o),
(232,234,o),
(223,106,cs),
(222,97,o),
(221,89,o),
(221,80,cs),
(221,34,o),
(232,-6,o),
(264,0,cs)
);
},
{
closed = 1;
nodes = (
(597,702,o),
(467,571,o),
(506,580,cs),
(513,582,o),
(522,570,o),
(522,525,cs),
(522,515,o),
(522,503,o),
(521,488,cs),
(511,361,o),
(501,234,o),
(492,106,cs),
(486,39,o),
(510,-4,o),
(533,0,cs),
(563,5,o),
(690,138,o),
(655,132,cs),
(636,129,o),
(631,136,o),
(631,153,cs),
(631,168,o),
(634,189,o),
(636,218,cs),
(646,345,o),
(656,472,o),
(665,600,cs),
(670,660,o),
(659,717,o),
(628,710,cs)
);
},
{
closed = 1;
nodes = (
(120,583,o),
(119,585,o),
(115,585,cs),
(99,585,o),
(31,529,o),
(20,502,cs),
(13,484,o),
(10,467,o),
(10,451,cs),
(10,398,o),
(43,358,o),
(85,358,cs),
(98,358,o),
(113,362,o),
(128,372,cs),
(161,393,o),
(213,478,o),
(213,504,cs),
(213,508,o),
(211,511,o),
(207,511,cs),
(204,511,o),
(200,510,o),
(194,506,cs),
(183,499,o),
(169,495,o),
(155,495,cs),
(132,495,o),
(110,508,o),
(110,539,cs),
(110,549,o),
(112,562,o),
(118,576,cs)
);
}
);
width = 741;
}
);
metricRight = H;
unicode = 42922;
},
{
glyphname = Hturned;
lastChange = "2024-04-15 14:39:14 +0000";
layers = (
{
layerId = m01;
shapes = (
{
closed = 1;
nodes = (
(138,702,o),
(8,571,o),
(47,580,cs),
(55,582,o),
(63,570,o),
(63,523,cs),
(61,488,l),
(48,272,ls),
(46,243,o),
(191,358,o),
(192,384,cs),
(207,600,ls),
(210,660,o),
(200,717,o),
(169,710,cs)
);
},
{
closed = 1;
nodes = (
(407,702,o),
(277,571,o),
(316,580,cs),
(323,582,o),
(332,570,o),
(332,525,cs),
(331,488,l),
(302,106,ls),
(296,39,o),
(320,-4,o),
(343,0,cs),
(373,5,o),
(500,138,o),
(465,132,cs),
(446,129,o),
(441,136,o),
(441,153,cs),
(441,168,o),
(444,189,o),
(446,218,cs),
(475,600,ls),
(476,609,o),
(476,618,o),
(476,627,cs),
(476,676,o),
(464,716,o),
(438,710,cs)
);
},
{
closed = 1;
nodes = (
(96,428,o),
(51,311,o),
(51,277,cs),
(51,271,o),
(52,268,o),
(55,268,cs),
(56,268,o),
(57,269,o),
(58,269,c),
(85,282,o),
(126,300,o),
(176,300,cs),
(192,300,o),
(209,298,o),
(226,293,cs),
(280,280,o),
(296,262,o),
(339,262,cs),
(352,262,o),
(369,264,o),
(390,268,cs),
(407,272,o),
(454,393,o),
(454,428,cs),
(454,435,o),
(452,438,o),
(448,438,c),
(428,434,o),
(412,432,o),
(399,432,cs),
(358,432,o),
(342,449,o),
(288,463,cs),
(270,467,o),
(253,469,o),
(237,469,cs),
(185,469,o),
(141,450,o),
(114,437,cs)
);
}
);
width = 516;
}
);
unicode = 42893;
},
{
glyphname = I;
kernLeft = KO_I;
kernRight = KO_I;
lastChange = "2024-04-15 16:21:13 +0000";
layers = (
{
anchors = (
{
name = bottom;
pos = (136,2);
},
{
name = center;
pos = (140,356);
},
{
name = ogonek;
pos = (191,0);
},
{
name = top;
pos = (168,710);
},
{
name = topleft;
pos = (45,700);
}
);
layerId = m01;
shapes = (
{
closed = 1;
nodes = (
(156,702,o),
(26,571,o),
(65,580,cs),
(72,582,o),
(81,571,o),
(81,526,cs),
(80,488,l),
(51,106,ls),
(45,39,o),
(69,-4,o),
(92,0,cs),
(122,5,o),
(249,138,o),
(214,132,cs),
(195,129,o),
(190,136,o),
(190,153,cs),
(190,168,o),
(193,189,o),
(195,218,cs),
(224,600,ls),
(225,609,o),
(225,619,o),
(225,627,cs),
(225,677,o),
(213,716,o),
(187,710,cs)
);
}
);
width = 275;
}
);
unicode = 73;
},
{
glyphname = "Iota-latin";
lastChange = "2024-04-15 14:39:14 +0000";
layers = (
{
anchors = (
{
name = bottom;
pos = (114,2);
},
{
name = center;
pos = (118,356);
},
{
name = ogonek;
pos = (169,0);
},
{
name = top;
pos = (146,710);
},
{
name = topleft;
pos = (23,700);
}
);
layerId = m01;
shapes = (
{
closed = 1;
nodes = (
(134,702,o),
(4,571,o),
(43,580,cs),
(50,582,o),
(59,571,o),
(59,526,cs),
(58,488,l),
(29,106,ls),
(23,39,o),
(47,-4,o),
(70,0,cs),
(100,5,o),
(227,138,o),
(192,132,cs),
(173,129,o),
(168,136,o),
(168,153,cs),
(168,168,o),
(171,189,o),
(173,218,cs),
(202,600,ls),
(203,609,o),
(203,619,o),
(203,627,cs),
(203,677,o),
(191,716,o),
(165,710,cs)
);
},
{
closed = 1;
nodes = (
(171,-13,o),
(263,97,o),
(263,131,cs),
(263,136,o),
(261,140,o),
(255,140,cs),
(169,149,o),
(121,162,o),
(91,162,cs),
(77,162,o),
(68,159,o),
(60,153,cs),
(40,137,o),
(0,25,o),
(0,-7,cs),
(0,-12,o),
(1,-15,o),
(3,-15,cs),
(4,-15,o),
(6,-15,o),
(8,-13,cs),
(16,-7,o),
(18,-2,o),
(42,-2,cs),
(60,-2,o),
(90,-5,o),
(143,-10,cs)
);
}
);
width = 293;
}
);
unicode = 406;
},
{
glyphname = J;
kernLeft = KO_J;
kernRight = KO_J;
lastChange = "2024-05-02 21:24:19 +0000";
layers = (
{
anchors = (
{
name = bottom;
pos = (180,0);
},
{
name = top;
pos = (311,709);
}
);
layerId = m01;
shapes = (
{
closed = 1;
nodes = (
(113,-38,o),
(225,103,o),
(221,126,cs),
(212,165,o),
(144,249,o),
(95,249,cs),
(91,249,o),
(86,248,o),
(82,247,cs),
(58,238,o),
(-25,131,o),
(-25,108,cs),
(-25,105,o),
(-23,103,o),
(-18,105,cs),
(18,118,o),
(99,29,o),
(107,-12,cs)
);
},
{
closed = 1;
nodes = (
(322,707,o),
(192,576,o),
(231,585,cs),
(238,587,o),
(248,572,o),
(248,530,cs),
(246,488,l),
(217,219,ls),
(210,156,o),
(208,127,o),
(208,114,cs),
(208,99,o),
(210,105,o),
(209,104,cs),
(154,61,o),
(97,-12,o),
(113,-12,cs),
(118,-12,o),
(128,-7,o),
(145,6,cs),
(382,190,o),
(356,277,o),
(361,331,cs),
(390,600,l),
(392,610,o),
(392,620,o),
(392,630,cs),
(392,679,o),
(379,721,o),
(353,715,cs)
);
}
);
width = 427;
}
);
unicode = 74;
userData = {
KernOnName = J;
};
},
{
glyphname = K;
kernLeft = KO_L;
kernRight = KO_K;
lastChange = "2024-04-15 16:21:13 +0000";
layers = (
{
anchors = (
{
name = bottom;
pos = (271,0);
},
{
name = left;
pos = (99,645);
},
{
name = top;
pos = (289,709);
}
);
layerId = m01;
shapes = (
{
closed = 1;
nodes = (
(295,459,o),
(175,324,o),
(193,314,cs),
(212,303,o),
(300,10,o),
(395,0,cs),
(417,-2,o),
(534,135,o),
(509,138,cs),
(422,146,o),
(334,437,o),
(311,450,cs)
);
},
{
closed = 1;
nodes = (
(140,698,o),
(46,599,o),
(46,581,cs),
(46,577,o),
(49,576,o),
(55,579,cs),
(63,582,o),
(68,573,o),
(68,538,cs),
(67,496,l),
(38,118,ls),
(36,102,o),
(35,87,o),
(35,72,cs),
(35,30,o),
(44,0,o),
(78,0,cs),
(104,0,o),
(235,152,o),
(202,152,cs),
(186,152,o),
(180,159,o),
(180,187,cs),
(182,230,l),
(211,608,ls),
(212,617,o),
(212,627,o),
(212,636,cs),
(212,676,o),
(204,711,o),
(181,711,cs),
(178,711,o),
(175,711,o),
(171,709,cs)
);
},
{
closed = 1;
nodes = (
(497,567,o),
(535,675,o),
(535,706,cs),
(535,711,o),
(534,714,o),
(532,714,cs),
(530,714,o),
(529,713,o),
(526,711,cs),
(508,695,o),
(478,685,o),
(449,685,cs),
(422,685,o),
(396,694,o),
(381,713,cs),
(368,729,o),
(315,596,o),
(315,555,cs),
(315,551,o),
(315,547,o),
(317,545,cs),
(333,525,o),
(360,515,o),
(390,515,cs),
(421,515,o),
(453,526,o),
(476,547,cs)
);
},
{
closed = 1;
nodes = (
(502,600,o),
(471,607,o),
(439,607,cs),
(416,607,o),
(393,604,o),
(386,596,cs),
(364,570,o),
(73,259,o),
(65,251,cs),
(54,239,o),
(86,232,o),
(117,232,cs),
(141,232,o),
(164,236,o),
(171,243,cs),
(492,588,ls)
);
}
);
width = 560;
}
);
unicode = 75;
},
{
glyphname = Khook;
lastChange = "2024-05-02 21:15:36 +0000";
layers = (
{
anchors = (
{
name = bottom;
pos = (297,0);
},
{
name = left;
pos = (125,645);
},
{
name = top;
pos = (315,709);
}
);
layerId = m01;
shapes = (
{
closed = 1;
nodes = (
(295,459,o),
(175,324,o),
(193,314,cs),
(212,303,o),
(300,10,o),
(395,0,cs),
(417,-2,o),
(534,135,o),
(509,138,cs),
(422,146,o),
(334,437,o),
(311,450,cs)
);
},
{
closed = 1;
nodes = (
(148,696,o),
(54,597,o),
(54,579,cs),
(54,575,o),
(57,574,o),
(63,577,cs),
(68,579,o),
(71,576,o),
(71,562,cs),
(71,550,o),
(69,529,o),
(67,496,cs),
(57,370,o),
(47,244,o),
(38,118,cs),
(36,102,o),
(35,87,o),
(35,72,cs),
(35,30,o),
(44,0,o),
(78,0,cs),
(104,0,o),
(235,152,o),
(202,152,cs),
(186,152,o),
(180,159,o),
(180,187,cs),
(180,197,o),
(181,212,o),
(182,230,cs),
(192,356,o),
(202,482,o),
(211,608,cs),
(213,623,o),
(213,639,o),
(213,653,cs),
(213,684,o),
(209,709,o),
(190,709,cs),
(186,709,o),
(183,709,o),
(179,707,cs)
);
},
{
closed = 1;
nodes = (
(519,636,o),
(491,643,o),
(464,643,cs),
(446,643,o),
(428,640,o),
(421,632,cs),
(405,614,o),
(67,252,o),
(65,251,cs),
(54,239,o),
(86,232,o),
(117,232,cs),
(141,232,o),
(164,236,o),
(171,243,cs),
(178,252,o),
(486,598,o),
(508,624,cs)
);
},
{
closed = 1;
nodes = (
(415,634,o),
(377,583,o),
(377,565,cs),
(377,561,o),
(379,559,o),
(383,559,cs),
(390,559,o),
(402,565,o),
(422,579,cs),
(430,585,o),
(482,572,o),
(482,529,cs),
(482,517,o),
(478,503,o),
(468,487,cs),
(464,479,o),
(462,474,o),
(462,470,cs),
(462,466,o),
(465,464,o),
(471,464,cs),
(497,464,o),
(577,516,o),
(602,559,cs),
(616,584,o),
(623,610,o),
(623,632,cs),
(623,673,o),
(600,704,o),
(558,704,cs),
(533,704,o),
(501,694,o),
(464,668,cs)
);
}
);
width = 593;
}
);
metricLeft = K;
unicode = 408;
},
{
glyphname = L;
kernLeft = KO_L;
kernRight = KO_L;
lastChange = "2024-05-02 21:24:19 +0000";
layers = (
{
anchors = (
{
name = bottom;
pos = (187,0);
},
{
name = center;
pos = (120,350);
},
{
name = top;
pos = (147,709);
},
{
name = topright;
pos = (277,709);
}
);
layerId = m01;
shapes = (
{
closed = 1;
nodes = (
(55,99,o),
(13,-1,o),
(28,-1,cs),
(31,-1,o),
(36,2,o),
(43,11,cs),
(61,32,o),
(91,47,o),
(123,47,cs),
(138,47,o),
(154,44,o),
(169,37,cs),
(197,23,o),
(236,2,o),
(274,2,cs),
(291,2,o),
(308,6,o),
(325,18,cs),
(345,32,o),
(386,145,o),
(386,178,cs),
(386,183,o),
(385,186,o),
(382,186,cs),
(380,186,o),
(379,185,o),
(377,184,cs),
(361,172,o),
(346,168,o),
(331,168,cs),
(309,168,o),
(287,178,o),
(263,189,cs),
(244,199,o),
(225,204,o),
(205,204,cs),
(167,204,o),
(128,185,o),
(87,137,cs)
);
},
{
closed = 1;
nodes = (
(147,703,o),
(20,575,o),
(57,583,cs),
(67,585,o),
(71,579,o),
(71,562,cs),
(71,547,o),
(68,523,o),
(65,490,cs),
(27,21,ls),
(24,-16,o),
(164,122,o),
(167,155,cs),
(179,303,o),
(194,450,o),
(207,598,cs),
(208,615,o),
(210,635,o),
(210,653,cs),
(210,687,o),
(203,715,o),
(177,709,cs)
);
}
);
width = 426;
}
);
unicode = 76;
userData = {
KernOnName = L;
};
},
{
glyphname = M;
kernLeft = KO_M;
kernRight = KO_M;
lastChange = "2024-05-02 21:24:19 +0000";
layers = (
{
anchors = (
{
name = bottom;
pos = (306,0);
},
{
name = top;
pos = (426,708);
}
);
layerId = m01;
shapes = (
{
closed = 1;
nodes = (
(269,730,o),
(142,605,o),
(152,587,cs),
(221,475,o),
(244,49,o),
(299,-2,cs),
(313,-15,o),
(440,111,o),
(425,124,cs),
(376,171,o),
(349,599,o),
(280,713,cs)
);
},
{
closed = 1;
nodes = (
(32,85,o),
(35,83,o),
(41,83,cs),
(62,83,o),
(127,119,o),
(133,138,cs),
(219,381,o),
(224,675,o),
(224,658,cs),
(224,681,o),
(143,605,o),
(142,583,cs),
(141,572,o),
(119,329,o),
(35,92,cs)
);
},
{
closed = 1;
nodes = (
(302,148,o),
(306,145,o),
(314,145,cs),
(338,145,o),
(397,169,o),
(403,186,cs),
(495,406,o),
(548,620,o),
(550,640,cs),
(551,647,o),
(548,650,o),
(543,650,cs),
(523,650,o),
(469,608,o),
(466,584,cs),
(464,574,o),
(393,368,o),
(305,154,cs)
);
},
{
closed = 1;
nodes = (
(603,737,o),
(474,613,o),
(474,585,cs),
(475,497,ls),
(475,322,o),
(477,3,o),
(538,-1,cs),
(561,-2,o),
(684,123,o),
(656,125,cs),
(608,127,o),
(604,389,o),
(604,569,cs),
(604,707,ls)
);
},
{
closed = 1;
nodes = (
(9,148,o),
(-30,39,o),
(-30,8,cs),
(-30,2,o),
(-29,-1,o),
(-26,-1,cs),
(-25,-1,o),
(-23,0,o),
(-21,2,cs),
(-3,18,o),
(28,28,o),
(58,28,cs),
(87,28,o),
(114,19,o),
(128,0,cs),
(141,-18,o),
(194,121,o),
(194,159,cs),
(194,163,o),
(193,166,o),
(192,168,cs),
(177,188,o),
(149,198,o),
(118,198,cs),
(86,198,o),
(52,187,o),
(29,166,cs)
);
}
);
width = 700;
}
);
unicode = 77;
userData = {
KernOnName = M;
};
},
{
glyphname = N;
kernLeft = KO_N;
kernRight = KO_N;
lastChange = "2024-05-02 21:24:19 +0000";
layers = (
{
anchors = (
{
name = bottom;
pos = (266,0);
},
{
name = top;
pos = (326,709);
}
);
layerId = m01;
shapes = (
{
closed = 1;
nodes = (
(190,728,o),
(69,609,o),
(79,591,cs),
(170,428,o),
(270,129,o),
(373,2,cs),
(385,-13,o),
(506,107,o),
(493,122,cs),
(392,247,o),
(292,546,o),
(201,709,cs)
);
},
{
closed = 1;
nodes = (
(9,150,o),
(-30,41,o),
(-30,10,cs),
(-30,4,o),
(-29,1,o),
(-26,1,cs),
(-25,1,o),
(-23,2,o),
(-21,4,cs),
(-3,20,o),
(27,30,o),
(56,30,cs),
(83,30,o),
(109,21,o),
(124,2,cs),
(138,-15,o),
(190,122,o),
(190,161,cs),
(190,165,o),
(189,168,o),
(188,170,c),
(172,190,o),
(145,200,o),
(115,200,cs),
(84,200,o),
(52,189,o),
(29,168,cs)
);
},
{
closed = 1;
nodes = (
(539,565,o),
(577,673,o),
(577,704,cs),
(577,709,o),
(576,712,o),
(574,712,cs),
(572,712,o),
(571,711,o),
(568,709,cs),
(550,693,o),
(520,683,o),
(491,683,cs),
(464,683,o),
(438,692,o),
(423,711,cs),
(410,727,o),
(357,594,o),
(357,553,cs),
(357,549,o),
(357,545,o),
(359,543,cs),
(375,523,o),
(402,513,o),
(432,513,cs),
(463,513,o),
(495,524,o),
(518,545,cs)
);
},
{
closed = 1;
nodes = (
(45,41,o),
(50,35,o),
(59,35,cs),
(82,35,o),
(131,75,o),
(137,107,cs),
(148,167,o),
(188,635,o),
(188,636,cs),
(189,648,o),
(184,653,o),
(176,653,cs),
(152,653,o),
(101,610,o),
(98,578,cs),
(96,562,o),
(59,116,o),
(47,55,cs)
);
},
{
closed = 1;
nodes = (
(370,41,o),
(375,35,o),
(384,35,cs),
(407,35,o),
(456,75,o),
(462,107,cs),
(473,167,o),
(513,635,o),
(513,636,cs),
(514,648,o),
(509,653,o),
(501,653,cs),
(477,653,o),
(426,610,o),
(423,578,cs),
(421,562,o),
(384,116,o),
(372,55,cs)
);
}
);
width = 557;
}
);
unicode = 78;
userData = {
KernOnName = N;
};
},
{
glyphname = Nhookleft;
lastChange = "2024-05-02 21:07:44 +0000";
layers = (
{
anchors = (
{
name = bottom;
pos = (302,0);
},
{
name = top;
pos = (362,709);
}
);
layerId = m01;
shapes = (
{
closed = 1;
nodes = (
(183,728,o),
(62,609,o),
(72,591,cs),
(163,428,o),
(263,129,o),
(366,2,cs),
(378,-13,o),
(499,107,o),
(486,122,cs),
(385,247,o),
(285,546,o),
(194,709,cs)
);
},
{
closed = 1;
nodes = (
(532,565,o),
(570,673,o),
(570,704,cs),
(570,712,o),
(568,715,o),
(561,709,cs),
(543,693,o),
(513,683,o),
(484,683,cs),
(457,683,o),
(431,692,o),
(416,711,cs),
(403,727,o),
(350,594,o),
(350,553,cs),
(350,549,o),
(350,545,o),
(352,543,cs),
(368,523,o),
(395,513,o),
(425,513,cs),
(456,513,o),
(488,524,o),
(511,545,cs)
);
},
{
closed = 1;
nodes = (
(12,-175,o),
(14,-179,o),
(18,-179,cs),
(37,-179,o),
(94,-126,o),
(99,-100,cs),
(114,-19,o),
(178,608,o),
(181,636,cs),
(182,648,o),
(177,653,o),
(169,653,cs),
(145,653,o),
(94,610,o),
(91,578,cs),
(91,577,o),
(23,-115,o),
(13,-168,cs)
);
},
{
closed = 1;
nodes = (
(363,41,o),
(368,35,o),
(377,35,cs),
(400,35,o),
(449,75,o),
(455,107,cs),
(466,167,o),
(506,635,o),
(506,636,cs),
(507,648,o),
(502,653,o),
(494,653,cs),
(470,653,o),
(419,610,o),
(416,578,cs),
(414,562,o),
(377,116,o),
(365,55,cs)
);
},
{
closed = 1;
nodes = (
(18,-214,o),
(81,-142,o),
(81,-122,cs),
(81,-118,o),
(79,-116,o),
(75,-116,cs),
(71,-116,o),
(64,-119,o),
(55,-123,cs),
(46,-128,o),
(38,-129,o),
(31,-129,cs),
(-4,-129,o),
(-28,-89,o),
(-28,-53,cs),
(-28,-46,o),
(-27,-38,o),
(-25,-31,cs),
(-21,-21,o),
(-24,-16,o),
(-31,-16,cs),
(-60,-16,o),
(-151,-81,o),
(-165,-120,cs),
(-169,-129,o),
(-170,-141,o),
(-170,-153,cs),
(-170,-198,o),
(-146,-254,o),
(-89,-254,cs),
(-72,-254,o),
(-52,-249,o),
(-29,-237,cs)
);
}
);
width = 550;
}
);
metricRight = N;
unicode = 413;
},
{
glyphname = Eng;
lastChange = "2024-04-15 17:09:10 +0000";
layers = (
{
layerId = m01;
shapes = (
{
closed = 1;
nodes = (
(265,-136,o),
(262,-141,o),
(262,-144,cs),
(262,-145,o),
(263,-146,o),
(265,-146,cs),
(281,-146,o),
(372,-80,o),
(400,-32,cs),
(470,90,o),
(479,294,o),
(480,625,cs),
(480,626,o),
(439,677,o),
(374,677,cs),
(309,677,o),
(220,625,o),
(124,418,cs),
(111,390,o),
(106,372,o),
(106,362,cs),
(106,357,o),
(107,354,o),
(110,354,cs),
(120,354,o),
(142,380,o),
(164,428,cs),
(200,505,o),
(250,527,o),
(287,527,cs),
(320,527,o),
(343,511,o),
(343,500,cs),
(324,174,o),
(333,-40,o),
(270,-128,cs)
);
},
{
closed = 1;
nodes = (
(292,-151,o),
(364,-65,o),
(345,-65,cs),
(342,-65,o),
(336,-67,o),
(327,-73,cs),
(320,-77,o),
(311,-79,o),
(302,-79,cs),
(273,-79,o),
(239,-58,o),
(239,-30,cs),
(239,-24,o),
(240,-17,o),
(244,-10,cs),
(248,-3,o),
(250,2,o),
(250,5,cs),
(250,7,o),
(249,8,o),
(247,8,cs),
(230,8,o),
(156,-57,o),
(132,-99,cs),
(122,-117,o),
(118,-133,o),
(118,-147,cs),
(118,-181,o),
(144,-202,o),
(179,-202,cs),
(199,-202,o),
(222,-195,o),
(245,-181,cs)
);
},
{
closed = 1;
nodes = (
(135,703,o),
(5,571,o),
(44,581,cs),
(51,583,o),
(59,572,o),
(59,527,cs),
(59,516,o),
(59,504,o),
(58,490,cs),
(31,108,ls),
(26,43,o),
(49,1,o),
(68,1,cs),
(95,1,o),
(228,140,o),
(192,133,cs),
(174,130,o),
(173,136,o),
(173,152,cs),
(173,166,o),
(177,189,o),
(207,601,cs),
(211,663,o),
(196,719,o),
(166,711,cs)
);
}
);
width = 505;
},
{
associatedMasterId = m01;
layerId = "B74868F1-A122-4256-A2F8-B203F9B06507";
name = "15 Apr 24 at 15:44";
shapes = (
{
closed = 1;
nodes = (
(290,-153,o),
(366,-82,o),
(398,-39,cs),
(480,73,o),
(500,424,o),
(490,635,c),
(490,635,o),
(447,697,o),
(352,697,cs),
(287,697,o),
(200,625,o),
(104,418,cs),
(91,390,o),
(76,352,o),
(76,342,cs),
(76,337,o),
(77,334,o),
(80,334,cs),
(90,334,o),
(112,360,o),
(134,408,cs),
(170,485,o),
(244,542,o),
(301,542,cs),
(354,542,o),
(348,520,o),
(348,520,cs),
(340,230,o),
(319,-47,o),
(276,-135,cs),
(272,-143,o),
(271,-148,o),
(271,-151,cs),
(271,-152,o),
(272,-153,o),
(274,-153,cs)
);
},
{
closed = 1;
nodes = (
(209,-202,o),
(232,-195,o),
(255,-181,cs),
(302,-151,o),
(374,-65,o),
(355,-65,cs),
(352,-65,o),
(346,-67,o),
(337,-73,cs),
(330,-77,o),
(321,-79,o),
(312,-79,cs),
(283,-79,o),
(249,-58,o),
(249,-30,cs),
(249,-24,o),
(250,-17,o),
(254,-10,cs),
(258,-3,o),
(260,2,o),
(260,5,cs),
(260,7,o),
(259,8,o),
(257,8,cs),
(240,8,o),
(166,-57,o),
(142,-99,cs),
(132,-117,o),
(128,-133,o),
(128,-147,cs),
(128,-181,o),
(154,-202,o),
(189,-202,cs)
);
},
{
closed = 1;
nodes = (
(95,1,o),
(228,140,o),
(192,133,cs),
(174,130,o),
(173,136,o),
(173,152,cs),
(173,166,o),
(177,189,o),
(207,601,cs),
(211,663,o),
(196,719,o),
(166,711,cs),
(135,703,o),
(5,571,o),
(44,581,cs),
(51,583,o),
(59,572,o),
(59,527,cs),
(59,516,o),
(59,504,o),
(58,490,cs),
(31,108,ls),
(26,43,o),
(49,1,o),
(68,1,cs)
);
}
);
width = 522;
}
);
unicode = 330;
},
{
glyphname = O;
kernLeft = KO_O;
kernRight = KO_O;
lastChange = "2024-05-02 21:24:19 +0000";
layers = (
{
anchors = (
{
name = bottom;
pos = (153,0);
},
{
name = center;
pos = (224,350);
},
{
name = ogonek;
pos = (398,10);
},
{
name = top;
pos = (300,710);
},
{
name = topleft;
pos = (26,700);
},
{
name = topright;
pos = (325,700);
}
);
guides = (
{
pos = (248,-16);
},
{
pos = (306,716);
}
);
layerId = m01;
shapes = (
{
closed = 1;
nodes = (
(166,62,o),
(139,21,o),
(139,0,cs),
(139,-9,o),
(144,-14,o),
(154,-14,cs),
(167,-14,o),
(189,-5,o),
(219,17,cs),
(318,89,o),
(440,226,o),
(440,399,cs),
(440,495,o),
(402,602,o),
(302,715,cs),
(288,731,o),
(191,546,o),
(206,529,cs),
(304,418,o),
(336,333,o),
(336,269,cs),
(336,152,o),
(227,107,o),
(219,101,cs)
);
},
{
closed = 1;
nodes = (
(273,580,o),
(309,666,o),
(309,699,cs),
(309,707,o),
(307,712,o),
(302,712,cs),
(297,712,o),
(289,707,o),
(277,695,cs),
(209,625,o),
(5,342,o),
(5,153,cs),
(5,70,o),
(45,5,o),
(153,-15,cs),
(183,-21,o),
(310,89,o),
(310,120,cs),
(310,124,o),
(308,126,o),
(303,127,cs),
(179,150,o),
(141,218,o),
(141,293,cs),
(141,408,o),
(232,538,o),
(233,539,cs)
);
}
);
width = 475;
}
);
unicode = 79;
userData = {
KernOnName = O;
};
},
{
glyphname = Oopen;
lastChange = "2024-03-25 03:27:00 +0000";
layers = (
{
anchors = (
{
name = bottom;
pos = (145,0);
},
{
name = top;
pos = (285,700);
}
);
layerId = m01;
shapes = (
{
closed = 1;
nodes = (
(188,106,o),
(182,93,o),
(182,87,cs),
(182,67,o),
(249,113,o),
(292,171,cs),
(405,323,o),
(447,442,o),
(447,529,cs),
(447,659,o),
(354,719,o),
(264,719,cs),
(212,719,o),
(161,698,o),
(129,659,cs),
(95,619,o),
(40,482,o),
(55,482,cs),
(57,482,o),
(61,485,o),
(67,493,cs),
(96,528,o),
(139,546,o),
(182,546,cs),
(252,546,o),
(320,498,o),
(320,400,cs),
(320,333,o),
(288,241,o),
(202,125,cs)
);
},
{
closed = 1;
nodes = (
(274,143,o),
(309,238,o),
(296,238,cs),
(292,238,o),
(286,232,o),
(275,217,cs),
(263,200,o),
(210,171,o),
(162,171,cs),
(115,171,o),
(73,197,o),
(73,283,cs),
(73,293,o),
(71,296,o),
(69,296,cs),
(55,296,o),
(5,178,o),
(5,136,cs),
(5,40,o),
(44,3,o),
(93,3,cs),
(142,3,o),
(201,41,o),
(239,93,cs)
);
}
);
width = 467;
}
);
unicode = 390;
},
{
glyphname = Oslash;
kernLeft = KO_O;
kernRight = KO_O;
lastChange = "2024-04-15 16:21:13 +0000";
layers = (
{
anchors = (
{
name = bottom;
pos = (231,0);
},
{
name = top;
pos = (344,794);
}
);
layerId = m01;
shapes = (
{
closed = 1;
nodes = (
(169,66,o),
(138,21,o),
(138,-1,cs),
(138,-10,o),
(143,-15,o),
(152,-15,cs),
(165,-15,o),
(185,-7,o),
(214,14,cs),
(322,90,o),
(440,230,o),
(440,400,cs),
(440,497,o),
(402,604,o),
(301,715,cs),
(287,731,o),
(190,546,o),
(205,529,cs),
(302,421,o),
(334,337,o),
(334,273,cs),
(334,154,o),
(224,105,o),
(222,104,cs)
);
},
{
closed = 1;
nodes = (
(268,574,o),
(308,666,o),
(308,700,cs),
(308,707,o),
(306,712,o),
(301,712,cs),
(297,712,o),
(289,708,o),
(279,698,cs),
(211,632,o),
(5,344,o),
(5,153,cs),
(5,69,o),
(45,4,o),
(152,-15,cs),
(185,-21,o),
(309,87,o),
(309,119,cs),
(309,123,o),
(307,126,o),
(302,127,cs),
(177,150,o),
(140,218,o),
(140,292,cs),
(140,407,o),
(229,536,o),
(229,536,c)
);
},
{
closed = 1;
nodes = (
(110,-36,o),
(108,-42,o),
(108,-46,cs),
(108,-54,o),
(114,-57,o),
(122,-57,cs),
(143,-57,o),
(185,-32,o),
(201,-1,cs),
(212,21,o),
(220,54,o),
(231,100,cs),
(234,109,o),
(234,118,o),
(234,128,cs),
(234,142,ls),
(234,151,o),
(234,159,o),
(236,168,cs),
(269,304,o),
(310,500,o),
(334,635,cs),
(336,645,o),
(345,651,o),
(347,659,cs),
(369,767,ls),
(372,782,o),
(366,788,o),
(357,788,cs),
(334,788,o),
(286,751,o),
(279,717,cs),
(257,607,ls),
(256,603,o),
(256,599,o),
(256,595,cs),
(257,573,l),
(256,561,l),
(232,427,o),
(191,229,o),
(158,94,cs),
(154,78,o),
(140,66,o),
(137,54,cs),
(126,10,o),
(114,-27,o),
(113,-29,cs)
);
}
);
width = 475;
}
);
unicode = 216;
},
{
glyphname = OE;
kernLeft = KO_O;
kernRight = KO_E;
lastChange = "2024-04-15 16:21:13 +0000";
layers = (
{
anchors = (
{
name = bottom;
pos = (447,1);
},
{
name = ogonek;
pos = (646,0);
},
{
name = top;
pos = (577,700);
},
{
name = topleft;
pos = (302,700);
}
);
layerId = m01;
shapes = (
{
closed = 1;
nodes = (
(169,66,o),
(138,21,o),
(138,-1,cs),
(138,-10,o),
(143,-15,o),
(152,-15,cs),
(165,-15,o),
(185,-7,o),
(214,14,cs),
(322,90,o),
(440,230,o),
(440,400,cs),
(440,497,o),
(402,604,o),
(301,715,cs),
(287,731,o),
(190,546,o),
(205,529,cs),
(302,421,o),
(334,337,o),
(334,273,cs),
(334,154,o),
(224,105,o),
(222,104,cs)
);
},
{
closed = 1;
nodes = (
(268,574,o),
(308,666,o),
(308,700,cs),
(308,707,o),
(306,712,o),
(301,712,cs),
(297,712,o),
(289,708,o),
(279,698,cs),
(211,632,o),
(5,344,o),
(5,153,cs),
(5,69,o),
(45,4,o),
(152,-15,cs),
(185,-21,o),
(309,87,o),
(309,119,cs),
(309,123,o),
(307,126,o),
(302,127,cs),
(177,150,o),
(140,218,o),
(140,292,cs),
(140,407,o),
(229,536,o),
(229,536,c)
);
},
{
closed = 1;
nodes = (
(458,617,o),
(455,619,o),
(451,619,cs),
(432,619,o),
(375,574,o),
(373,552,cs),
(354,372,o),
(322,190,o),
(303,10,cs),
(302,-2,o),
(307,-5,o),
(313,-5,cs),
(316,-5,o),
(320,-4,o),
(322,-3,cs),
(351,9,o),
(372,21,o),
(396,21,cs),
(410,21,o),
(424,17,o),
(441,9,cs),
(470,-6,o),
(495,-17,o),
(523,-17,cs),
(541,-17,o),
(559,-13,o),
(580,-2,cs),
(612,14,o),
(706,140,o),
(684,140,cs),
(682,140,o),
(680,139,o),
(678,138,cs),
(663,131,o),
(648,128,o),
(633,128,cs),
(606,128,o),
(579,138,o),
(549,153,cs),
(532,161,o),
(515,165,o),
(498,165,cs),
(467,165,o),
(434,154,o),
(400,139,c),
(419,126,l),
(436,288,o),
(440,450,o),
(457,612,cs)
);
},
{
closed = 1;
nodes = (
(391,438,o),
(345,314,o),
(345,278,cs),
(345,272,o),
(346,268,o),
(349,268,cs),
(632,269,ls),
(649,269,o),
(696,392,o),
(696,429,cs),
(696,435,o),
(695,439,o),
(692,439,cs),
(409,438,ls)
);
},
{
closed = 1;
nodes = (
(715,545,o),
(748,657,o),
(748,693,cs),
(748,700,o),
(747,705,o),
(744,705,cs),
(743,705,o),
(742,704,o),
(740,703,cs),
(730,696,o),
(710,693,o),
(684,693,cs),
(630,693,o),
(551,705,o),
(484,705,cs),
(439,705,o),
(400,699,o),
(378,681,cs),
(360,666,o),
(329,556,o),
(329,520,cs),
(329,513,o),
(330,509,o),
(333,509,cs),
(334,509,o),
(335,510,o),
(336,511,cs),
(355,526,o),
(388,531,o),
(428,531,cs),
(491,531,o),
(569,519,o),
(627,519,cs),
(658,519,o),
(684,522,o),
(698,533,cs)
);
}
);
width = 768;
}
);
unicode = 338;
},
{
glyphname = P;
kernLeft = KO_P;
kernRight = KO_P;
lastChange = "2024-05-02 21:29:01 +0000";
layers = (
{
guides = (
{
pos = (113,716);
},
{
pos = (-217,587);
},
{
pos = (-226,373);
}
);
layerId = m01;
shapes = (
{
closed = 1;
nodes = (
(242,285,o),
(235,268,o),
(235,257,cs),
(235,248,o),
(240,244,o),
(248,244,cs),
(266,244,o),
(298,264,o),
(330,305,cs),
(407,405,o),
(438,485,o),
(438,548,cs),
(438,661,o),
(338,715,o),
(222,715,cs),
(195,715,o),
(167,713,o),
(140,707,cs),
(118,702,o),
(35,564,o),
(62,569,cs),
(95,576,o),
(124,579,o),
(151,579,cs),
(262,579,o),
(317,524,o),
(317,450,cs),
(317,406,o),
(298,356,o),
(260,307,cs)
);
},
{
closed = 1;
nodes = (
(259,215,o),
(346,318,o),
(346,356,cs),
(346,363,o),
(342,368,o),
(334,369,cs),
(215,382,o),
(157,398,o),
(122,398,cs),
(112,398,o),
(104,397,o),
(98,394,cs),
(79,387,o),
(35,267,o),
(35,234,cs),
(35,228,o),
(36,225,o),
(38,225,cs),
(39,225,o),
(39,226,o),
(40,226,cs),
(44,227,o),
(55,229,o),
(80,229,cs),
(107,229,o),
(152,227,o),
(224,219,cs)
);
},
{
closed = 1;
nodes = (
(217,629,o),
(76,519,o),
(74,492,cs),
(49,106,ls),
(45,42,o),
(58,0,o),
(89,0,cs),
(113,0,o),
(240,130,o),
(211,130,cs),
(195,130,o),
(189,142,o),
(189,176,cs),
(191,214,l),
(216,600,ls)
);
}
);
width = 448;
}
);
unicode = 80;
userData = {
KernOnName = P;
};
},
{
glyphname = Phook;
lastChange = "2024-05-02 21:15:06 +0000";
layers = (
{
layerId = m01;
shapes = (
{
closed = 1;
nodes = (
(407,285,o),
(400,268,o),
(400,257,cs),
(400,248,o),
(405,244,o),
(413,244,cs),
(431,244,o),
(463,264,o),
(495,305,cs),
(574,407,o),
(604,487,o),
(604,549,cs),
(604,666,o),
(495,714,o),
(402,714,cs),
(390,714,o),
(377,713,o),
(365,712,cs),
(345,709,o),
(247,557,o),
(273,560,cs),
(290,563,o),
(306,564,o),
(322,564,cs),
(420,564,o),
(480,515,o),
(480,442,cs),
(480,403,o),
(463,357,o),
(425,307,cs)
);
},
{
closed = 1;
nodes = (
(424,215,o),
(511,318,o),
(511,356,cs),
(511,363,o),
(507,368,o),
(499,369,cs),
(380,382,o),
(322,398,o),
(287,398,cs),
(277,398,o),
(269,397,o),
(263,394,cs),
(244,387,o),
(200,267,o),
(200,234,cs),
(200,227,o),
(202,224,o),
(205,226,cs),
(209,227,o),
(220,229,o),
(245,229,cs),
(272,229,o),
(317,227,o),
(389,219,cs)
);
},
{
closed = 1;
nodes = (
(397,711,o),
(256,600,o),
(254,573,cs),
(241,418,o),
(228,262,o),
(214,106,cs),
(214,97,o),
(213,88,o),
(213,80,cs),
(213,31,o),
(227,0,o),
(254,0,cs),
(278,0,o),
(405,130,o),
(376,130,cs),
(360,130,o),
(354,141,o),
(354,174,cs),
(354,185,o),
(354,198,o),
(356,214,cs),
(369,370,o),
(382,526,o),
(395,682,cs)
);
},
{
closed = 1;
nodes = (
(347,567,o),
(445,714,o),
(421,714,cs),
(399,715,o),
(379,716,o),
(359,716,cs),
(253,716,o),
(176,694,o),
(32,516,cs),
(21,504,o),
(17,496,o),
(17,492,cs),
(17,489,o),
(18,488,o),
(21,488,cs),
(35,488,o),
(77,516,o),
(104,550,cs),
(112,560,o),
(132,569,o),
(239,569,cs),
(263,569,o),
(292,569,o),
(325,568,cs)
);
},
{
closed = 1;
nodes = (
(120,585,o),
(119,587,o),
(115,587,cs),
(99,587,o),
(31,531,o),
(20,504,cs),
(13,486,o),
(10,469,o),
(10,453,cs),
(10,400,o),
(43,360,o),
(85,360,cs),
(98,360,o),
(113,364,o),
(128,374,cs),
(161,395,o),
(213,480,o),
(213,506,cs),
(213,510,o),
(211,513,o),
(207,513,cs),
(204,513,o),
(200,512,o),
(194,508,cs),
(183,501,o),
(169,497,o),
(155,497,cs),
(132,497,o),
(110,510,o),
(110,541,cs),
(110,551,o),
(112,564,o),
(118,578,cs)
);
}
);
width = 614;
}
);
metricRight = P;
unicode = 420;
},
{
glyphname = Thorn;
lastChange = "2024-03-25 03:27:00 +0000";
layers = (
{
layerId = m01;
shapes = (
{
closed = 1;
nodes = (
(230,241,o),
(218,218,o),
(218,206,cs),
(218,199,o),
(221,196,o),
(227,196,cs),
(242,196,o),
(272,215,o),
(310,258,cs),
(385,344,o),
(410,403,o),
(410,446,cs),
(410,508,o),
(357,536,o),
(320,557,c),
(186,562,ls),
(167,563,o),
(83,425,o),
(106,424,cs),
(238,419,l),
(279,396,o),
(292,371,o),
(292,347,cs),
(292,317,o),
(272,290,o),
(258,274,cs)
);
},
{
closed = 1;
nodes = (
(246,196,o),
(371,324,o),
(348,324,cs),
(231,324,o),
(185,330,o),
(171,330,cs),
(149,330,o),
(21,200,o),
(49,200,cs),
(61,200,o),
(107,196,o),
(224,196,cs)
);
},
{
closed = 1;
nodes = (
(203,720,o),
(62,610,o),
(60,583,cs),
(35,106,ls),
(32,42,o),
(44,0,o),
(75,0,cs),
(99,0,o),
(226,130,o),
(197,130,cs),
(181,130,o),
(175,142,o),
(175,178,cs),
(177,214,l),
(202,691,ls)
);
}
);
width = 430;
}
);
unicode = 222;
},
{
glyphname = Q;
kernLeft = KO_Q;
kernRight = KO_Q;
lastChange = "2024-04-15 16:21:13 +0000";
layers = (
{
layerId = m01;
shapes = (
{
closed = 1;
nodes = (
(263,335,o),
(219,290,o),
(221,273,cs),
(232,189,o),
(302,-16,o),
(419,-16,cs),
(427,-16,o),
(436,-15,o),
(444,-13,cs),
(464,-8,o),
(520,136,o),
(520,177,cs),
(520,183,o),
(518,187,o),
(515,187,cs),
(514,187,ls),
(497,183,o),
(480,181,o),
(463,181,cs),
(370,181,o),
(275,239,o),
(265,319,cs)
);
},
{
closed = 1;
nodes = (
(184,66,o),
(153,21,o),
(153,-1,cs),
(153,-10,o),
(158,-15,o),
(167,-15,cs),
(180,-15,o),
(200,-7,o),
(229,14,cs),
(337,90,o),
(455,230,o),
(455,400,cs),
(455,497,o),
(417,604,o),
(316,715,cs),
(302,731,o),
(205,546,o),
(220,529,cs),
(317,421,o),
(349,337,o),
(349,273,cs),
(349,154,o),
(239,105,o),
(237,104,cs)
);
},
{
closed = 1;
nodes = (
(283,574,o),
(323,666,o),
(323,700,cs),
(323,707,o),
(321,712,o),
(316,712,cs),
(312,712,o),
(304,708,o),
(294,698,cs),
(226,632,o),
(20,344,o),
(20,153,cs),
(20,69,o),
(60,4,o),
(167,-15,cs),
(200,-21,o),
(324,87,o),
(324,119,cs),
(324,123,o),
(322,126,o),
(317,127,cs),
(192,150,o),
(155,218,o),
(155,292,cs),
(155,407,o),
(244,536,o),
(244,536,c)
);
}
);
width = 560;
}
);
unicode = 81;
},
{
glyphname = R;
kernLeft = KO_R;
kernRight = KO_R;
lastChange = "2024-05-02 21:24:19 +0000";
layers = (
{
anchors = (
{
name = bottom;
pos = (267,0);
},
{
name = top;
pos = (267,711);
}
);
guides = (
{
angle = 180;
pos = (352,360);
},
{
pos = (198,564);
}
);
layerId = m01;
shapes = (
{
closed = 1;
nodes = (
(195,581,o),
(194,583,o),
(191,583,cs),
(176,583,o),
(123,464,o),
(125,421,cs),
(130,274,o),
(327,-1,o),
(405,-1,cs),
(408,-1,o),
(411,0,o),
(414,0,c),
(431,6,o),
(477,128,o),
(477,161,cs),
(477,167,o),
(476,170,o),
(473,170,cs),
(472,170,l),
(468,168,o),
(463,167,o),
(459,167,cs),
(366,167,o),
(200,448,o),
(195,575,cs)
);
},
{
closed = 1;
nodes = (
(39,148,o),
(0,39,o),
(0,8,cs),
(0,2,o),
(1,-1,o),
(4,-1,cs),
(5,-1,o),
(7,0,o),
(9,2,cs),
(27,18,o),
(57,28,o),
(86,28,cs),
(113,28,o),
(139,19,o),
(154,0,cs),
(168,-17,o),
(220,120,o),
(220,159,cs),
(220,163,o),
(219,166,o),
(218,168,c),
(202,188,o),
(175,198,o),
(145,198,cs),
(114,198,o),
(82,187,o),
(59,166,cs)
);
},
{
closed = 1;
nodes = (
(190,573,o),
(181,587,o),
(168,587,cs),
(142,587,o),
(99,528,o),
(96,462,cs),
(88,287,o),
(94,300,o),
(74,63,cs),
(72,50,o),
(78,44,o),
(87,44,cs),
(109,44,o),
(150,76,o),
(152,105,cs),
(174,358,o),
(180,373,o),
(188,540,cs)
);
},
{
closed = 1;
nodes = (
(255,307,o),
(245,287,o),
(245,274,cs),
(245,265,o),
(250,260,o),
(259,260,cs),
(274,260,o),
(300,275,o),
(330,310,cs),
(423,417,o),
(459,500,o),
(459,563,cs),
(459,669,o),
(354,715,o),
(252,715,cs),
(208,715,o),
(165,706,o),
(130,691,cs),
(105,680,o),
(15,523,o),
(46,537,cs),
(96,559,o),
(142,569,o),
(181,569,cs),
(271,569,o),
(329,519,o),
(329,451,cs),
(329,416,o),
(313,375,o),
(278,334,cs)
);
}
);
width = 537;
}
);
unicode = 82;
userData = {
KernOnName = R;
};
},
{
glyphname = Rstroke;
lastChange = "2024-04-15 14:39:14 +0000";
layers = (
{
anchors = (
{
name = bottom;
pos = (287,0);
},
{
name = top;
pos = (287,700);
}
);
layerId = m01;
shapes = (
{
closed = 1;
nodes = (
(215,581,o),
(214,583,o),
(211,583,cs),
(196,583,o),
(143,464,o),
(145,421,cs),
(150,274,o),
(347,-1,o),
(425,-1,cs),
(428,-1,o),
(431,0,o),
(434,0,c),
(451,6,o),
(497,128,o),
(497,161,cs),
(497,167,o),
(496,170,o),
(493,170,cs),
(492,170,l),
(488,168,o),
(483,167,o),
(479,167,cs),
(386,167,o),
(220,448,o),
(215,575,cs)
);
},
{
closed = 1;
nodes = (
(59,148,o),
(20,39,o),
(20,8,cs),
(20,2,o),
(21,-1,o),
(24,-1,cs),
(25,-1,o),
(27,0,o),
(29,2,cs),
(47,18,o),
(77,28,o),
(106,28,cs),
(133,28,o),
(159,19,o),
(174,0,cs),
(188,-17,o),
(240,120,o),
(240,159,cs),
(240,163,o),
(239,166,o),
(238,168,c),
(222,188,o),
(195,198,o),
(165,198,cs),
(134,198,o),
(102,187,o),
(79,166,cs)
);
},
{
closed = 1;
nodes = (
(210,573,o),
(201,587,o),
(188,587,cs),
(162,587,o),
(119,528,o),
(116,462,cs),
(108,287,o),
(114,300,o),
(94,63,cs),
(92,50,o),
(98,44,o),
(107,44,cs),
(129,44,o),
(170,76,o),
(172,105,cs),
(194,358,o),
(200,373,o),
(208,540,cs)
);
},
{
closed = 1;
nodes = (
(273,332,o),
(263,311,o),
(263,297,cs),
(263,288,o),
(268,283,o),
(277,283,cs),
(291,283,o),
(316,297,o),
(346,331,cs),
(443,439,o),
(480,520,o),
(480,579,cs),
(480,678,o),
(376,715,o),
(275,715,cs),
(230,715,o),
(185,707,o),
(151,695,cs),
(127,687,o),
(36,530,o),
(65,541,cs),
(117,559,o),
(165,567,o),
(206,567,cs),
(294,567,o),
(350,529,o),
(350,470,cs),
(350,438,o),
(334,400,o),
(298,359,cs)
);
},
{
closed = 1;
nodes = (
(139,212,o),
(174,329,o),
(174,369,cs),
(174,377,o),
(172,382,o),
(169,382,cs),
(130,382,o),
(119,384,o),
(87,384,cs),
(70,384,o),
(23,259,o),
(23,224,cs),
(23,218,o),
(24,214,o),
(27,214,cs),
(59,214,o),
(70,213,o),
(109,212,cs)
);
}
);
width = 537;
}
);
unicode = 588;
},
{
glyphname = Rtail;
lastChange = "2024-04-15 14:39:14 +0000";
layers = (
{
anchors = (
{
name = bottom;
pos = (257,0);
},
{
name = top;
pos = (257,711);
}
);
layerId = m01;
shapes = (
{
closed = 1;
nodes = (
(185,581,o),
(184,583,o),
(181,583,cs),
(166,583,o),
(113,464,o),
(115,421,cs),
(120,274,o),
(317,-1,o),
(395,-1,cs),
(398,-1,o),
(401,0,o),
(404,0,c),
(421,6,o),
(467,128,o),
(467,161,cs),
(467,167,o),
(466,170,o),
(463,170,cs),
(462,170,l),
(458,168,o),
(453,167,o),
(449,167,cs),
(356,167,o),
(190,448,o),
(185,575,cs)
);
},
{
closed = 1;
nodes = (
(180,573,o),
(171,587,o),
(158,587,cs),
(132,587,o),
(89,528,o),
(86,462,cs),
(78,295,o),
(58,103,o),
(38,-131,cs),
(36,-144,o),
(42,-150,o),
(51,-150,cs),
(73,-150,o),
(114,-118,o),
(116,-89,cs),
(138,167,o),
(170,365,o),
(178,540,cs)
);
},
{
closed = 1;
nodes = (
(245,307,o),
(235,287,o),
(235,274,cs),
(235,265,o),
(240,260,o),
(249,260,cs),
(264,260,o),
(290,275,o),
(320,310,cs),
(413,417,o),
(449,500,o),
(449,563,cs),
(449,669,o),
(344,715,o),
(242,715,cs),
(198,715,o),
(155,706,o),
(120,691,cs),
(95,680,o),
(5,523,o),
(36,537,cs),
(86,559,o),
(132,569,o),
(171,569,cs),
(261,569,o),
(319,519,o),
(319,451,cs),
(319,416,o),
(303,375,o),
(268,334,cs)
);
},
{
closed = 1;
nodes = (
(-10,-213,o),
(-8,-215,o),
(-5,-215,cs),
(15,-215,o),
(107,-126,o),
(113,-98,cs),
(114,-89,o),
(115,-81,o),
(115,-73,cs),
(115,-3,o),
(56,57,o),
(-2,57,cs),
(-24,57,o),
(-145,-65,o),
(-116,-65,cs),
(-53,-65,o),
(-7,-124,o),
(-7,-185,cs),
(-7,-193,o),
(-7,-201,o),
(-9,-208,cs)
);
}
);
width = 507;
}
);
unicode = 11364;
},
{
glyphname = S;
kernLeft = KO_S;
kernRight = KO_S;
lastChange = "2024-05-02 21:24:19 +0000";
layers = (
{
anchors = (
{
name = bottom;
pos = (186,30);
},
{
name = top;
pos = (265,710);
}
);
layerId = m01;
shapes = (
{
closed = 1;
nodes = (
(289,465,o),
(288,462,o),
(288,459,cs),
(288,457,o),
(289,456,o),
(291,456,cs),
(308,456,o),
(394,534,o),
(415,574,cs),
(420,586,o),
(423,599,o),
(423,613,cs),
(423,662,o),
(389,715,o),
(327,715,cs),
(293,715,o),
(251,700,o),
(203,660,cs),
(152,618,o),
(117,565,o),
(132,565,cs),
(137,565,o),
(149,572,o),
(169,588,cs),
(176,594,o),
(185,597,o),
(195,597,cs),
(238,597,o),
(299,551,o),
(299,500,cs),
(299,490,o),
(297,480,o),
(291,470,c)
);
},
{
closed = 1;
nodes = (
(189,629,o),
(188,631,o),
(185,631,cs),
(169,631,o),
(76,545,o),
(60,509,cs),
(51,489,o),
(47,470,o),
(47,453,cs),
(47,388,o),
(107,345,o),
(162,294,cs),
(214,246,o),
(272,207,o),
(272,142,cs),
(272,125,o),
(268,107,o),
(260,86,cs),
(245,49,o),
(370,163,o),
(386,202,cs),
(397,228,o),
(402,250,o),
(402,269,cs),
(402,340,o),
(335,368,o),
(284,416,cs),
(229,467,o),
(176,516,o),
(176,576,cs),
(176,591,o),
(179,606,o),
(186,623,cs)
);
},
{
closed = 1;
nodes = (
(139,235,o),
(138,238,o),
(135,238,cs),
(116,238,o),
(24,152,o),
(10,117,cs),
(7,109,o),
(5,99,o),
(5,90,cs),
(5,42,o),
(45,-16,o),
(112,-16,cs),
(146,-16,o),
(188,0,o),
(235,40,cs),
(285,82,o),
(317,132,o),
(303,132,cs),
(297,132,o),
(284,124,o),
(263,106,cs),
(259,103,o),
(254,102,o),
(247,102,cs),
(209,102,o),
(131,146,o),
(131,203,cs),
(131,211,o),
(133,219,o),
(136,227,cs)
);
}
);
width = 452;
}
);
unicode = 83;
userData = {
KernOnName = S;
};
},
{
glyphname = Germandbls;
lastChange = "2024-04-15 14:38:12 +0000";
layers = (
{
layerId = m01;
shapes = (
{
closed = 1;
nodes = (
(222,352,o),
(208,330,o),
(208,318,cs),
(208,314,o),
(210,311,o),
(215,311,cs),
(222,311,o),
(235,318,o),
(254,334,cs),
(274,352,o),
(301,361,o),
(327,361,cs),
(386,361,o),
(446,320,o),
(446,248,cs),
(446,226,o),
(440,201,o),
(427,173,cs),
(422,164,o),
(420,158,o),
(420,154,cs),
(420,152,o),
(421,151,o),
(423,151,cs),
(437,151,o),
(506,227,o),
(529,275,cs),
(545,307,o),
(552,338,o),
(552,365,cs),
(552,428,o),
(511,472,o),
(446,472,cs),
(394,472,o),
(325,444,o),
(248,376,cs)
);
},
{
closed = 1;
nodes = (
(502,229,o),
(509,256,o),
(499,256,cs),
(491,256,o),
(472,238,o),
(447,199,cs),
(422,160,o),
(384,142,o),
(352,142,cs),
(321,142,o),
(296,160,o),
(296,192,cs),
(296,202,o),
(299,214,o),
(304,227,cs),
(318,258,o),
(192,141,o),
(178,107,cs),
(176,103,o),
(175,97,o),
(175,90,cs),
(175,54,o),
(203,-3,o),
(260,-3,cs),
(309,-3,o),
(379,40,o),
(471,181,cs)
);
},
{
closed = 1;
nodes = (
(557,641,o),
(561,654,o),
(561,664,cs),
(561,680,o),
(551,688,o),
(536,688,cs),
(515,688,o),
(487,673,o),
(465,639,cs),
(413,558,o),
(236,364,o),
(229,357,c),
(227,354,o),
(225,352,o),
(225,350,cs),
(225,347,o),
(230,345,o),
(237,345,cs),
(262,345,o),
(324,365,o),
(341,383,cs),
(342,384,o),
(490,536,o),
(547,625,cs)
);
},
{
closed = 1;
nodes = (
(514,563,o),
(608,717,o),
(579,710,cs),
(552,702,o),
(518,700,o),
(480,700,cs),
(392,700,o),
(286,714,o),
(209,714,cs),
(170,714,o),
(139,710,o),
(122,699,cs),
(104,686,o),
(64,572,o),
(64,539,cs),
(64,533,o),
(65,529,o),
(68,529,cs),
(69,529,o),
(70,530,o),
(72,531,cs),
(86,541,o),
(128,543,o),
(182,543,cs),
(318,542,ls),
(383,542,o),
(446,545,o),
(489,556,cs)
);
},
{
closed = 1;
nodes = (
(185,628,o),
(183,630,o),
(180,630,cs),
(162,630,o),
(105,577,o),
(103,554,cs),
(50,9,ls),
(50,3,o),
(52,1,o),
(55,1,cs),
(73,1,o),
(130,55,o),
(132,77,cs),
(185,622,ls)
);
}
);
width = 614;
}
);
unicode = 7838;
},
{
glyphname = T;
kernLeft = KO_T;
kernRight = KO_T;
lastChange = "2024-05-02 21:24:19 +0000";
layers = (
{
anchors = (
{
name = bottom;
pos = (205,0);
},
{
name = center;
pos = (245,350);
},
{
name = top;
pos = (255,713);
}
);
layerId = m01;
shapes = (
{
closed = 1;
nodes = (
(416,550,o),
(456,646,o),
(456,685,cs),
(456,696,o),
(453,702,o),
(447,702,cs),
(444,702,o),
(442,701,o),
(439,700,cs),
(428,695,o),
(408,693,o),
(384,693,cs),
(334,693,o),
(263,700,o),
(202,700,cs),
(151,700,o),
(105,695,o),
(84,676,cs),
(65,660,o),
(35,551,o),
(35,515,cs),
(35,508,o),
(36,504,o),
(38,504,cs),
(39,504,o),
(41,505,o),
(42,506,cs),
(60,522,o),
(103,526,o),
(152,526,cs),
(195,526,o),
(244,523,o),
(287,523,cs),
(329,523,o),
(366,526,o),
(387,536,cs)
);
},
{
closed = 1;
nodes = (
(319,593,o),
(323,603,o),
(323,610,cs),
(323,621,o),
(315,627,o),
(304,627,cs),
(291,627,o),
(275,620,o),
(262,602,cs),
(129,431,o),
(68,235,o),
(68,144,cs),
(68,53,o),
(119,-16,o),
(187,-16,cs),
(194,-16,o),
(201,-16,o),
(209,-14,cs),
(242,-7,o),
(373,106,o),
(335,98,cs),
(332,97,o),
(328,97,o),
(324,97,cs),
(266,97,o),
(199,175,o),
(199,265,cs),
(199,308,o),
(219,464,o),
(310,582,cs)
);
}
);
width = 426;
}
);
unicode = 84;
userData = {
KernOnName = T;
};
},
{
glyphname = Thook;
lastChange = "2024-05-02 21:10:19 +0000";
layers = (
{
anchors = (
{
name = bottom;
pos = (238,0);
},
{
name = center;
pos = (278,350);
},
{
name = top;
pos = (278,700);
}
);
layerId = m01;
shapes = (
{
closed = 1;
nodes = (
(524,554,o),
(564,650,o),
(564,689,cs),
(564,703,o),
(559,710,o),
(547,704,cs),
(530,696,o),
(511,693,o),
(491,693,cs),
(454,693,o),
(412,702,o),
(365,702,cs),
(308,702,o),
(179,630,o),
(43,453,cs),
(36,442,o),
(32,435,o),
(32,431,cs),
(32,428,o),
(34,427,o),
(37,427,cs),
(53,427,o),
(98,456,o),
(124,491,cs),
(136,506,o),
(162,524,o),
(278,524,cs),
(322,524,o),
(359,519,o),
(395,519,cs),
(428,519,o),
(460,523,o),
(495,540,cs)
);
},
{
closed = 1;
nodes = (
(427,587,o),
(431,597,o),
(431,604,cs),
(431,615,o),
(423,621,o),
(412,621,cs),
(399,621,o),
(383,614,o),
(369,596,cs),
(236,424,o),
(176,227,o),
(176,137,cs),
(176,46,o),
(227,-22,o),
(295,-22,cs),
(302,-22,o),
(309,-22,o),
(316,-20,cs),
(350,-13,o),
(481,100,o),
(443,92,cs),
(439,91,o),
(435,91,o),
(431,91,cs),
(374,91,o),
(306,169,o),
(306,259,cs),
(306,302,o),
(327,459,o),
(418,576,cs)
);
},
{
closed = 1;
nodes = (
(129,514,o),
(128,516,o),
(124,516,cs),
(108,516,o),
(40,460,o),
(29,433,cs),
(23,417,o),
(20,400,o),
(20,385,cs),
(20,333,o),
(53,290,o),
(96,290,cs),
(110,290,o),
(124,294,o),
(139,303,cs),
(173,325,o),
(223,409,o),
(223,434,cs),
(223,439,o),
(221,442,o),
(217,442,cs),
(214,442,o),
(209,441,o),
(203,437,cs),
(194,431,o),
(181,427,o),
(169,427,cs),
(144,427,o),
(119,441,o),
(119,473,cs),
(119,482,o),
(122,494,o),
(127,507,cs)
);
}
);
width = 534;
}
);
metricRight = T;
unicode = 428;
},
{
glyphname = Tretroflexhook;
lastChange = "2024-04-15 14:38:12 +0000";
layers = (
{
anchors = (
{
name = bottom;
pos = (204,0);
},
{
name = center;
pos = (244,350);
},
{
name = top;
pos = (254,713);
}
);
layerId = m01;
shapes = (
{
closed = 1;
nodes = (
(415,550,o),
(455,646,o),
(455,685,cs),
(455,696,o),
(452,702,o),
(446,702,cs),
(443,702,o),
(441,701,o),
(438,700,cs),
(427,695,o),
(407,693,o),
(383,693,cs),
(333,693,o),
(262,700,o),
(201,700,cs),
(150,700,o),
(104,695,o),
(83,676,cs),
(64,660,o),
(34,551,o),
(34,515,cs),
(34,508,o),
(35,504,o),
(37,504,cs),
(38,504,o),
(40,505,o),
(41,506,cs),
(59,522,o),
(102,526,o),
(151,526,cs),
(194,526,o),
(243,523,o),
(286,523,cs),
(328,523,o),
(365,526,o),
(386,536,cs)
);
},
{
closed = 1;
nodes = (
(326,593,o),
(330,603,o),
(330,610,cs),
(330,621,o),
(322,627,o),
(311,627,cs),
(298,627,o),
(282,620,o),
(269,602,cs),
(96,378,o),
(20,118,o),
(20,4,cs),
(20,-112,o),
(80,-215,o),
(166,-215,cs),
(184,-215,o),
(203,-211,o),
(222,-201,cs),
(267,-180,o),
(363,-71,o),
(338,-71,cs),
(335,-71,o),
(331,-72,o),
(326,-75,cs),
(311,-82,o),
(297,-85,o),
(284,-85,cs),
(209,-85,o),
(150,12,o),
(150,121,cs),
(150,186,o),
(184,410,o),
(317,582,cs)
);
}
);
width = 435;
}
);
unicode = 430;
},
{
glyphname = U;
kernLeft = KO_U;
kernRight = KO_U;
lastChange = "2024-05-02 21:24:19 +0000";
layers = (
{
anchors = (
{
name = bottom;
pos = (314,4);
},
{
name = ogonek;
pos = (502,0);
},
{
name = top;
pos = (313,709);
},
{
name = topright;
pos = (449,700);
}
);
guides = (
{
pos = (-195,910);
},
{
pos = (306,725);
}
);
layerId = m01;
shapes = (
{
closed = 1;
nodes = (
(403,365,o),
(392,373,o),
(381,373,cs),
(372,373,o),
(363,367,o),
(362,355,cs),
(335,114,o),
(263,124,o),
(251,124,cs),
(212,121,o),
(197,173,o),
(197,240,cs),
(199,293,l),
(229,590,ls),
(235,650,o),
(211,703,o),
(170,703,cs),
(164,703,o),
(158,702,o),
(152,700,cs),
(124,690,o),
(30,593,o),
(30,574,cs),
(30,571,o),
(32,570,o),
(38,572,cs),
(44,574,o),
(50,575,o),
(54,575,cs),
(78,575,o),
(86,551,o),
(86,520,cs),
(85,496,l),
(55,199,ls),
(54,192,o),
(53,184,o),
(53,176,cs),
(53,82,o),
(110,-16,o),
(194,-16,cs),
(324,-16,o),
(387,217,o),
(402,351,cs)
);
},
{
closed = 1;
nodes = (
(425,-1,o),
(541,117,o),
(513,117,cs),
(485,117,o),
(477,152,o),
(477,203,cs),
(477,229,o),
(479,260,o),
(482,293,cs),
(513,590,l),
(514,608,ls),
(514,661,o),
(490,703,o),
(453,703,cs),
(447,703,o),
(441,702,o),
(435,700,cs),
(407,690,o),
(313,593,o),
(313,574,cs),
(313,571,o),
(315,570,o),
(321,572,cs),
(327,574,o),
(333,575,o),
(337,575,cs),
(362,575,o),
(370,551,o),
(370,519,cs),
(369,496,l),
(338,199,ls),
(336,180,o),
(335,162,o),
(335,144,cs),
(335,60,o),
(357,-1,o),
(401,-1,cs)
);
}
);
width = 567;
}
);
unicode = 85;
userData = {
KernOnName = U;
};
},
{
glyphname = Ubar;
lastChange = "2024-04-15 16:21:13 +0000";
layers = (
{
layerId = m01;
shapes = (
{
closed = 1;
nodes = (
(52,408,o),
(20,328,o),
(20,297,cs),
(20,290,o),
(22,286,o),
(26,286,cs),
(506,284,ls),
(522,284,o),
(554,364,o),
(554,394,cs),
(554,402,o),
(552,406,o),
(548,406,cs),
(68,408,ls)
);
},
{
pos = (8,0);
ref = U;
}
);
width = 604;
}
);
metricRight = U;
unicode = 580;
},
{
glyphname = "Upsilon-latin";
kernLeft = KO_N;
lastChange = "2024-04-15 16:58:02 +0000";
layers = (
{
anchors = (
{
name = bottom;
pos = (205,0);
},
{
name = center;
pos = (276,350);
},
{
name = ogonek;
pos = (450,10);
},
{
name = top;
pos = (352,710);
},
{
name = topleft;
pos = (78,700);
},
{
name = topright;
pos = (377,700);
}
);
layerId = m01;
shapes = (
{
closed = 1;
nodes = (
(227,62,o),
(200,21,o),
(200,0,cs),
(200,-9,o),
(205,-14,o),
(215,-14,cs),
(228,-14,o),
(250,-5,o),
(280,17,cs),
(410,112,o),
(485,261,o),
(485,408,cs),
(485,504,o),
(453,599,o),
(384,678,cs),
(370,694,o),
(272,526,o),
(286,510,cs),
(349,438,o),
(370,369,o),
(370,309,cs),
(370,187,o),
(281,102,o),
(280,101,cs)
);
},
{
closed = 1;
nodes = (
(268,577,o),
(279,610,o),
(279,628,cs),
(279,638,o),
(275,644,o),
(269,644,cs),
(256,644,o),
(234,622,o),
(206,573,cs),
(122,423,o),
(38,270,o),
(38,157,cs),
(38,72,o),
(84,10,o),
(212,-14,cs),
(244,-20,o),
(364,84,o),
(364,116,cs),
(364,120,o),
(361,123,o),
(356,124,cs),
(223,149,o),
(186,233,o),
(186,319,cs),
(186,415,o),
(232,513,o),
(244,533,cs)
);
},
{
closed = 1;
nodes = (
(512,524,o),
(588,656,o),
(588,690,cs),
(588,694,o),
(587,697,o),
(583,697,cs),
(581,697,o),
(579,696,o),
(576,694,cs),
(548,680,o),
(516,673,o),
(487,673,cs),
(450,673,o),
(417,683,o),
(404,698,cs),
(386,718,o),
(285,560,o),
(285,517,cs),
(285,513,o),
(286,510,o),
(288,508,cs),
(304,490,o),
(336,479,o),
(374,479,cs),
(406,479,o),
(443,487,o),
(478,506,cs)
);
},
{
closed = 1;
nodes = (
(237,524,o),
(313,656,o),
(313,690,cs),
(313,694,o),
(312,697,o),
(308,697,cs),
(306,697,o),
(304,696,o),
(301,694,cs),
(273,680,o),
(241,673,o),
(212,673,cs),
(175,673,o),
(142,683,o),
(129,698,cs),
(111,718,o),
(10,560,o),
(10,517,cs),
(10,513,o),
(11,510,o),
(13,508,cs),
(29,490,o),
(61,479,o),
(99,479,cs),
(131,479,o),
(168,487,o),
(203,506,cs)
);
}
);
width = 548;
}
);
unicode = 433;
},
{
glyphname = V;
kernLeft = KO_V;
kernRight = KO_V;
lastChange = "2024-05-02 21:24:19 +0000";
layers = (
{
layerId = m01;
shapes = (
{
closed = 1;
nodes = (
(511,619,o),
(503,622,o),
(492,622,cs),
(466,622,o),
(418,607,o),
(413,592,cs),
(354,391,o),
(263,122,o),
(249,30,cs),
(245,8,o),
(354,111,o),
(357,134,cs),
(367,194,o),
(456,433,o),
(509,612,cs)
);
},
{
closed = 1;
nodes = (
(537,554,o),
(575,662,o),
(575,693,cs),
(575,698,o),
(574,701,o),
(572,701,cs),
(570,701,o),
(569,700,o),
(566,698,cs),
(548,682,o),
(518,672,o),
(489,672,cs),
(462,672,o),
(436,681,o),
(421,700,cs),
(408,716,o),
(355,583,o),
(355,542,cs),
(355,538,o),
(355,534,o),
(357,532,cs),
(373,512,o),
(400,502,o),
(430,502,cs),
(461,502,o),
(493,513,o),
(516,534,cs)
);
},
{
closed = 1;
nodes = (
(255,5,o),
(363,123,o),
(340,123,cs),
(338,123,o),
(335,123,o),
(331,121,cs),
(319,115,o),
(253,475,o),
(225,622,cs),
(217,669,o),
(180,700,o),
(147,700,cs),
(143,700,o),
(138,699,o),
(134,698,cs),
(102,688,o),
(-21,558,o),
(18,570,cs),
(23,572,o),
(29,572,o),
(33,572,cs),
(64,572,o),
(88,543,o),
(97,498,cs),
(123,357,o),
(173,-33,o),
(213,-15,cs)
);
}
);
width = 550;
}
);
unicode = 86;
userData = {
KernOnName = V;
};
},
{
glyphname = "Gamma-latin";
lastChange = "2024-04-15 14:38:12 +0000";
layers = (
{
layerId = m01;
shapes = (
{
closed = 1;
nodes = (
(500,619,o),
(492,622,o),
(480,622,cs),
(454,622,o),
(408,608,o),
(402,593,cs),
(270,277,o),
(98,17,o),
(98,-117,cs),
(98,-166,o),
(120,-198,o),
(176,-209,cs),
(193,-213,o),
(278,-127,o),
(258,-123,cs),
(210,-113,o),
(190,-88,o),
(190,-51,cs),
(190,59,o),
(361,284,o),
(496,611,cs)
);
},
{
closed = 1;
nodes = (
(526,552,o),
(565,661,o),
(565,693,cs),
(565,698,o),
(564,701,o),
(561,701,cs),
(560,701,o),
(558,700,o),
(555,698,cs),
(536,682,o),
(506,672,o),
(477,672,cs),
(450,672,o),
(424,681,o),
(410,700,cs),
(398,717,o),
(344,583,o),
(344,542,cs),
(344,538,o),
(345,534,o),
(346,532,cs),
(361,512,o),
(388,502,o),
(417,502,cs),
(448,502,o),
(481,513,o),
(505,534,cs)
);
},
{
closed = 1;
nodes = (
(196,-177,o),
(194,-187,o),
(202,-187,cs),
(213,-187,o),
(246,-164,o),
(274,-130,cs),
(353,-33,o),
(384,21,o),
(384,81,cs),
(384,178,o),
(303,290,o),
(211,622,cs),
(199,668,o),
(184,702,o),
(147,702,cs),
(140,702,o),
(132,701,o),
(124,698,cs),
(92,688,o),
(-31,558,o),
(8,570,cs),
(12,571,o),
(15,572,o),
(19,572,cs),
(44,572,o),
(70,545,o),
(83,498,cs),
(177,156,o),
(263,43,o),
(263,-45,cs),
(263,-80,o),
(249,-112,o),
(216,-152,cs)
);
}
);
width = 535;
}
);
unicode = 404;
},
{
glyphname = Vhook;
kernLeft = KO_W;
lastChange = "2024-05-02 21:14:39 +0000";
layers = (
{
layerId = m01;
shapes = (
{
closed = 1;
nodes = (
(365.723,726.784,o),
(243.814,607.274,o),
(262.444,596.983,cs),
(315,568,o),
(335,518,o),
(335,460,cs),
(335,296,o),
(181,70,o),
(180.448,70.014,cs),
(167,53,o),
(161,44,o),
(161,40,cs),
(161,28,o),
(217,73,o),
(259.552,125.986,cs),
(286,159,o),
(456,405,o),
(456,577,cs),
(456,637,o),
(436,688,o),
(381.377,718.137,cs)
);
},
{
closed = 1;
nodes = (
(128.458,-18.806,o),
(256.115,108.854,o),
(249.224,127.745,cs),
(196,275,o),
(238,711,o),
(138,711,cs),
(134,711,o),
(130,711,o),
(125.885,709.44,cs),
(99,701,o),
(10,609,o),
(10,591,cs),
(10,588,o),
(13,587,o),
(18.115,588.56,cs),
(21,590,o),
(24,590,o),
(27,590,cs),
(111,590,o),
(57,176,o),
(120.776,2.255,cs)
);
}
);
width = 466;
}
);
metricLeft = V;
unicode = 434;
},
{
glyphname = Vturned;
lastChange = "2024-04-15 14:38:12 +0000";
layers = (
{
layerId = m01;
shapes = (
{
closed = 1;
nodes = (
(-31,1,o),
(-27,-2,o),
(-20,-2,cs),
(1,-2,o),
(53,25,o),
(59,44,cs),
(118,245,o),
(233,571,o),
(247,661,cs),
(251,684,o),
(142,577,o),
(139,557,cs),
(129,495,o),
(24,187,o),
(-29,8,cs)
);
},
{
closed = 1;
nodes = (
(244,687,o),
(133,568,o),
(156,568,cs),
(158,568,o),
(161,569,o),
(165,570,c),
(177,576,o),
(243,216,o),
(271,69,cs),
(279,22,o),
(316,-9,o),
(349,-9,cs),
(353,-9,o),
(358,-8,o),
(362,-7,cs),
(395,3,o),
(507,122,o),
(483,122,cs),
(481,122,o),
(480,122,o),
(478,121,cs),
(473,119,o),
(467,119,o),
(463,119,cs),
(432,119,o),
(408,148,o),
(399,193,cs),
(373,334,o),
(323,724,o),
(283,706,cs)
);
}
);
width = 486;
}
);
unicode = 581;
},
{
glyphname = W;
kernLeft = KO_W;
kernRight = KO_W;
lastChange = "2024-04-15 16:21:13 +0000";
layers = (
{
anchors = (
{
name = bottom;
pos = (300,0);
},
{
name = top;
pos = (390,711);
}
);
guides = (
{
pos = (-215,910);
},
{
pos = (286,725);
}
);
layerId = m01;
shapes = (
{
closed = 1;
nodes = (
(383,-34,o),
(511,94,o),
(501,111,cs),
(443,216,o),
(457,644,o),
(399,696,cs),
(385,709,o),
(264,590,o),
(279,576,cs),
(331,528,o),
(313,94,o),
(373,-15,cs)
);
},
{
closed = 1;
nodes = (
(674,606,o),
(671,609,o),
(664,609,cs),
(641,609,o),
(575,576,o),
(568,556,cs),
(484,313,o),
(409,21,o),
(406,10,cs),
(398,-17,o),
(513,94,o),
(520,122,cs),
(523,132,o),
(589,358,o),
(672,600,cs)
);
},
{
closed = 1;
nodes = (
(421,608,o),
(418,611,o),
(410,611,cs),
(388,611,o),
(333,584,o),
(325,564,cs),
(284,456,o),
(182,54,o),
(181,54,c),
(168,37,o),
(162,28,o),
(162,24,cs),
(162,12,o),
(218,57,o),
(261,110,cs),
(296,155,o),
(391,529,o),
(419,602,cs)
);
},
{
closed = 1;
nodes = (
(129,-35,o),
(257,93,o),
(250,112,cs),
(197,259,o),
(238,698,o),
(138,698,cs),
(134,698,o),
(130,698,o),
(126,696,c),
(96,687,o),
(-11,575,o),
(13,575,cs),
(15,575,o),
(16,575,o),
(18,576,cs),
(21,577,o),
(24,577,o),
(27,577,cs),
(111,577,o),
(58,161,o),
(122,-14,cs)
);
},
{
closed = 1;
nodes = (
(693,550,o),
(731,659,o),
(731,689,cs),
(731,695,o),
(730,697,o),
(728,697,cs),
(727,697,o),
(725,696,o),
(722,694,c),
(705,678,o),
(674,668,o),
(643,668,cs),
(615,668,o),
(587,677,o),
(573,696,cs),
(560,712,o),
(507,579,o),
(507,538,cs),
(507,534,o),
(507,530,o),
(509,528,cs),
(524,508,o),
(553,498,o),
(584,498,cs),
(616,498,o),
(650,509,o),
(672,530,cs)
);
}
);
width = 701;
}
);
unicode = 87;
},
{
glyphname = Whook;
kernLeft = Whook;
kernRight = Whook;
lastChange = "2024-05-02 21:46:08 +0000";
layers = (
{
anchors = (
{
name = bottom;
pos = (370,0);
},
{
name = top;
pos = (400,710);
}
);
layerId = m01;
shapes = (
{
closed = 1;
nodes = (
(402,-18,o),
(530,110,o),
(520,127,cs),
(462,232,o),
(477,651,o),
(419,703,cs),
(405,716,o),
(284,597,o),
(299,583,cs),
(351,535,o),
(332,110,o),
(392,1,cs)
);
},
{
closed = 1;
nodes = (
(695,626,o),
(692,629,o),
(685,629,cs),
(662,629,o),
(596,596,o),
(589,576,cs),
(505,333,o),
(428,37,o),
(425,26,cs),
(417,-1,o),
(531,110,o),
(539,138,cs),
(542,149,o),
(610,378,o),
(693,620,cs)
);
},
{
closed = 1;
nodes = (
(441,615,o),
(438,618,o),
(430,618,cs),
(408,618,o),
(353,591,o),
(345,571,cs),
(304,463,o),
(201,70,o),
(200,70,cs),
(187,53,o),
(181,44,o),
(181,40,cs),
(181,28,o),
(237,73,o),
(280,126,cs),
(315,171,o),
(411,535,o),
(439,609,cs)
);
},
{
closed = 1;
nodes = (
(148,-19,o),
(276,109,o),
(269,128,cs),
(216,275,o),
(258,711,o),
(158,711,cs),
(154,711,o),
(150,711,o),
(146,709,cs),
(119,701,o),
(30,609,o),
(30,591,cs),
(30,588,o),
(33,587,o),
(38,589,cs),
(41,590,o),
(44,590,o),
(47,590,cs),
(131,590,o),
(77,176,o),
(141,2,cs)
);
},
{
closed = 1;
nodes = (
(625,635,o),
(588,586,o),
(588,568,cs),
(588,564,o),
(590,562,o),
(594,562,cs),
(600,562,o),
(613,568,o),
(633,582,cs),
(639,587,o),
(693,576,o),
(693,532,cs),
(693,521,o),
(689,507,o),
(679,490,cs),
(675,483,o),
(673,478,o),
(673,474,cs),
(673,469,o),
(676,467,o),
(681,467,cs),
(707,467,o),
(787,520,o),
(812,562,cs),
(827,588,o),
(834,613,o),
(834,635,cs),
(834,676,o),
(810,707,o),
(768,707,cs),
(743,707,o),
(711,696,o),
(674,670,cs)
);
}
);
width = 794;
}
);
metricLeft = w;
unicode = 11378;
},
{
glyphname = X;
kernLeft = KO_X;
kernRight = KO_X;
lastChange = "2024-05-02 21:24:19 +0000";
layers = (
{
layerId = m01;
shapes = (
{
closed = 1;
nodes = (
(459,598,o),
(452,601,o),
(439,601,cs),
(411,601,o),
(357,586,o),
(346,570,cs),
(326,541,o),
(76,128,o),
(76,128,c),
(71,120,o),
(78,117,o),
(90,117,cs),
(118,117,o),
(175,133,o),
(184,149,cs),
(197,170,o),
(424,545,o),
(454,590,cs)
);
},
{
closed = 1;
nodes = (
(389,-5,o),
(485,128,o),
(464,128,cs),
(463,128,o),
(462,128,o),
(460,127,cs),
(398,105,o),
(238,715,o),
(152,715,cs),
(149,715,o),
(147,714,o),
(144,713,c),
(117,699,o),
(39,595,o),
(39,575,cs),
(39,571,o),
(41,570,o),
(48,573,cs),
(109,604,o),
(282,-42,o),
(360,-15,cs)
);
},
{
closed = 1;
nodes = (
(85,-47,o),
(198,91,o),
(200,122,cs),
(202,170,o),
(143,241,o),
(106,250,cs),
(88,255,o),
(-24,113,o),
(-2,108,cs),
(21,101,o),
(88,26,o),
(86,-12,cs)
);
},
{
closed = 1;
nodes = (
(429,444,o),
(540,587,o),
(518,592,cs),
(489,600,o),
(428,673,o),
(430,712,cs),
(431,745,o),
(318,612,o),
(316,578,cs),
(314,530,o),
(378,458,o),
(410,450,cs)
);
}
);
width = 521;
}
);
unicode = 88;
userData = {
KernOnName = X;
};
},
{
glyphname = Y;
kernLeft = KO_Y;
kernRight = KO_Y;
lastChange = "2024-05-02 21:24:19 +0000";
layers = (
{
anchors = (
{
name = bottom;
pos = (167,6);
},
{
name = top;
pos = (320,710);
},
{
name = topleft;
pos = (14,700);
}
);
layerId = m01;
shapes = (
{
closed = 1;
nodes = (
(509,623,o),
(510,628,o),
(510,633,cs),
(510,645,o),
(503,650,o),
(493,650,cs),
(464,650,o),
(407,609,o),
(393,564,cs),
(389,551,o),
(160,116,o),
(151,99,cs),
(144,87,o),
(142,77,o),
(142,70,cs),
(142,59,o),
(149,54,o),
(160,54,cs),
(185,54,o),
(230,82,o),
(253,125,cs),
(255,129,o),
(494,575,o),
(507,616,cs)
);
},
{
closed = 1;
nodes = (
(524,554,o),
(562,662,o),
(562,693,cs),
(562,698,o),
(561,701,o),
(559,701,cs),
(557,701,o),
(556,700,o),
(553,698,cs),
(535,682,o),
(505,672,o),
(476,672,cs),
(449,672,o),
(423,681,o),
(408,700,cs),
(395,716,o),
(342,583,o),
(342,542,cs),
(342,538,o),
(342,534,o),
(344,532,cs),
(360,512,o),
(387,502,o),
(417,502,cs),
(448,502,o),
(480,513,o),
(503,534,cs)
);
},
{
closed = 1;
nodes = (
(267,333,o),
(359,437,o),
(338,437,cs),
(335,437,o),
(332,436,o),
(326,433,cs),
(272,405,o),
(225,701,o),
(155,701,cs),
(152,701,o),
(149,700,o),
(146,699,cs),
(112,686,o),
(6,571,o),
(28,571,cs),
(30,571,o),
(31,572,o),
(34,573,cs),
(88,594,o),
(126,306,o),
(206,306,cs),
(212,306,o),
(218,308,o),
(224,311,cs)
);
},
{
closed = 1;
nodes = (
(118,148,o),
(79,39,o),
(79,8,cs),
(79,2,o),
(80,-1,o),
(83,-1,cs),
(84,-1,o),
(86,0,o),
(88,2,cs),
(106,18,o),
(136,28,o),
(165,28,cs),
(192,28,o),
(218,19,o),
(233,0,cs),
(247,-17,o),
(299,120,o),
(299,159,cs),
(299,163,o),
(298,166,o),
(297,168,c),
(281,188,o),
(254,198,o),
(224,198,cs),
(193,198,o),
(161,187,o),
(138,166,cs)
);
}
);
width = 541;
}
);
unicode = 89;
userData = {
KernOnName = Y;
};
},
{
glyphname = Yhook;
lastChange = "2024-05-02 21:14:16 +0000";
layers = (
{
anchors = (
{
name = bottom;
pos = (141,6);
},
{
name = top;
pos = (294,710);
},
{
name = topleft;
pos = (-12,700);
}
);
layerId = m01;
shapes = (
{
closed = 1;
nodes = (
(500,641,o),
(497,644,o),
(491,644,cs),
(465,644,o),
(379,589,o),
(370,560,cs),
(362,536,o),
(139,106,o),
(136,99,cs),
(129,87,o),
(127,77,o),
(127,70,cs),
(127,58,o),
(134,53,o),
(145,53,cs),
(171,53,o),
(216,81,o),
(238,125,cs),
(244,137,o),
(490,608,o),
(498,634,cs)
);
},
{
closed = 1;
nodes = (
(252,333,o),
(344,437,o),
(323,437,cs),
(320,437,o),
(317,436,o),
(311,433,cs),
(257,405,o),
(210,711,o),
(140,711,cs),
(137,711,o),
(134,710,o),
(131,709,cs),
(100,697,o),
(10,602,o),
(10,584,cs),
(10,581,o),
(13,580,o),
(19,583,cs),
(73,604,o),
(112,306,o),
(191,306,cs),
(197,306,o),
(203,308,o),
(209,311,cs)
);
},
{
closed = 1;
nodes = (
(103,148,o),
(64,38,o),
(64,7,cs),
(64,-1,o),
(67,-4,o),
(73,2,cs),
(91,18,o),
(121,28,o),
(150,28,cs),
(177,28,o),
(203,19,o),
(218,0,cs),
(232,-17,o),
(284,120,o),
(284,159,cs),
(284,163,o),
(283,166,o),
(282,168,cs),
(266,188,o),
(239,198,o),
(209,198,cs),
(178,198,o),
(146,187,o),
(123,166,cs)
);
},
{
closed = 1;
nodes = (
(414,636,o),
(377,587,o),
(377,570,cs),
(377,566,o),
(379,564,o),
(383,564,cs),
(390,564,o),
(402,569,o),
(422,583,cs),
(429,588,o),
(482,577,o),
(482,533,cs),
(482,522,o),
(478,508,o),
(468,491,cs),
(464,484,o),
(462,478,o),
(462,475,cs),
(462,470,o),
(465,468,o),
(470,468,cs),
(496,468,o),
(576,521,o),
(601,563,cs),
(616,589,o),
(623,614,o),
(623,637,cs),
(623,678,o),
(600,708,o),
(558,708,cs),
(532,708,o),
(500,697,o),
(463,671,cs)
);
}
);
width = 593;
}
);
metricLeft = y;
unicode = 435;
},
{
glyphname = Z;
kernLeft = KO_Z;
kernRight = KO_Z;
lastChange = "2024-04-15 16:21:13 +0000";
layers = (
{
anchors = (
{
name = bottom;
pos = (224,-16);
},
{
name = center;
pos = (224,350);
},
{
name = top;
pos = (284,716);
}
);
layerId = m01;
shapes = (
{
closed = 1;
nodes = (
(39,123,o),
(5,36,o),
(5,-1,cs),
(5,-12,o),
(8,-18,o),
(14,-18,cs),
(18,-18,o),
(22,-16,o),
(28,-11,cs),
(46,3,o),
(67,7,o),
(91,7,cs),
(146,7,o),
(213,-19,o),
(273,-19,cs),
(302,-19,o),
(330,-13,o),
(354,6,cs),
(372,19,o),
(404,129,o),
(404,166,cs),
(404,173,o),
(403,178,o),
(400,178,cs),
(399,178,o),
(398,177,o),
(396,176,cs),
(375,161,o),
(353,155,o),
(329,155,cs),
(279,155,o),
(223,178,o),
(167,178,cs),
(134,178,o),
(101,170,o),
(68,145,cs)
);
},
{
closed = 1;
nodes = (
(97,670,o),
(56,556,o),
(56,525,cs),
(56,520,o),
(57,517,o),
(59,517,cs),
(60,517,o),
(62,517,o),
(64,519,cs),
(79,531,o),
(104,535,o),
(134,535,cs),
(184,535,o),
(248,525,o),
(310,525,cs),
(337,525,o),
(364,527,o),
(389,532,cs),
(406,536,o),
(453,657,o),
(453,692,cs),
(453,699,o),
(451,702,o),
(447,702,c),
(424,697,o),
(400,695,o),
(375,695,cs),
(315,695,o),
(252,705,o),
(200,705,cs),
(165,705,o),
(136,701,o),
(116,685,cs)
);
},
{
closed = 1;
nodes = (
(417,590,o),
(407,593,o),
(391,593,cs),
(364,593,o),
(322,582,o),
(316,568,cs),
(258,426,o),
(71,211,o),
(36,100,cs),
(34,92,o),
(44,89,o),
(58,89,cs),
(86,89,o),
(130,101,o),
(134,114,cs),
(167,219,o),
(354,434,o),
(414,582,cs)
);
},
{
closed = 1;
nodes = (
(129,447,o),
(87,332,o),
(87,299,cs),
(87,294,o),
(88,291,o),
(91,291,cs),
(92,291,o),
(93,291,o),
(94,292,cs),
(100,296,o),
(106,298,o),
(114,298,cs),
(158,298,o),
(233,248,o),
(282,248,cs),
(289,248,o),
(296,249,o),
(302,252,cs),
(320,259,o),
(365,377,o),
(365,412,cs),
(365,418,o),
(364,421,o),
(361,421,cs),
(360,421,o),
(359,420,o),
(358,420,c),
(354,418,o),
(348,418,o),
(343,418,cs),
(299,418,o),
(226,467,o),
(176,467,cs),
(165,467,o),
(156,465,o),
(148,460,cs)
);
}
);
width = 458;
}
);
unicode = 90;
},
{
glyphname = Saltillo;
lastChange = "2024-03-25 03:27:00 +0000";
layers = (
{
layerId = m01;
shapes = (
{
closed = 1;
nodes = (
(166,711,o),
(32,581,o),
(61,581,cs),
(66,581,o),
(68,575,o),
(68,567,cs),
(68,558,o),
(66,545,o),
(65,533,cs),
(50,312,ls),
(50,297,o),
(55,241,o),
(78,246,cs),
(110,252,o),
(236,385,o),
(200,378,cs),
(196,377,o),
(195,388,o),
(195,400,cs),
(196,424,ls),
(200,497,o),
(206,571,o),
(211,645,cs),
(212,665,o),
(210,711,o),
(189,711,cs)
);
}
);
width = 251;
}
);
unicode = 42891;
},
{
glyphname = a;
kernLeft = KO_a;
kernRight = KO_a;
lastChange = "2024-05-02 21:24:19 +0000";
layers = (
{
anchors = (
{
name = bottom;
pos = (188,1);
},
{
name = ogonek;
pos = (389,0);
},
{
name = top;
pos = (283,710);
}
);
background = {
shapes = (
{
closed = 1;
nodes = (
);
}
);
};
guides = (
{
pos = (253,0);
},
{
pos = (310,715);
}
);
layerId = m01;
shapes = (
{
closed = 1;
nodes = (
(309,-7,o),
(450,139,o),
(422,145,cs),
(412,148,o),
(407,166,o),
(407,202,cs),
(407,246,o),
(414,319,o),
(421,421,cs),
(425,476,o),
(429,499,o),
(435,569,cs),
(439,620,o),
(419,700,o),
(357,700,cs),
(317,700,o),
(258,665,o),
(177,561,cs),
(153,531,o),
(143,511,o),
(143,501,cs),
(143,496,o),
(146,493,o),
(150,493,cs),
(162,493,o),
(189,513,o),
(221,555,c),
(222,555,o),
(226,556,o),
(231,556,cs),
(250,556,o),
(291,544,o),
(291,461,c),
(289,435,l),
(277,285,ls),
(269,181,o),
(262,110,o),
(262,64,cs),
(262,23,o),
(268,3,o),
(286,-1,cs)
);
},
{
closed = 1;
nodes = (
(67,392,o),
(20,267,o),
(20,232,cs),
(20,226,o),
(21,222,o),
(24,222,cs),
(421,223,ls),
(438,223,o),
(485,347,o),
(485,383,cs),
(485,389,o),
(484,393,o),
(481,393,cs),
(84,392,ls)
);
},
{
closed = 1;
nodes = (
(239,595,o),
(242,603,o),
(242,608,cs),
(242,611,o),
(240,613,o),
(237,613,cs),
(221,613,o),
(167,562,o),
(142,515,cs),
(128,489,o),
(110,442,o),
(103,398,cs),
(88,302,o),
(73,151,o),
(56,17,cs),
(54,3,o),
(59,-2,o),
(67,-2,cs),
(90,-2,o),
(142,44,o),
(146,77,cs),
(165,221,o),
(182,378,o),
(197,480,cs),
(204,527,o),
(230,579,o),
(232,583,cs)
);
}
);
width = 530;
}
);
unicode = 97;
userData = {
KernOnName = a;
};
},
{
glyphname = "alpha-latin";
lastChange = "2024-03-28 13:21:43 +0000";
layers = (
{
background = {
anchors = (
{
name = bottom;
pos = (242,0);
},
{
name = center;
pos = (110,310);
},
{
name = top;
pos = (242,500);
},
{
name = topright;
pos = (478,714);
}
);
};
layerId = m01;
shapes = (
{
closed = 1;
nodes = (
(440,5,o),
(567,138,o),
(532,132,cs),
(519,130,o),
(508,129,o),
(499,129,cs),
(471,129,o),
(463,140,o),
(463,162,cs),
(463,176,o),
(466,195,o),
(468,218,cs),
(475,283,o),
(488,348,o),
(496,412,cs),
(511,535,o),
(526,629,o),
(531,654,cs),
(536,683,o),
(486,698,o),
(429,698,cs),
(374,698,o),
(313,685,o),
(284,661,cs),
(170,568,o),
(10,288,o),
(10,120,cs),
(10,48,o),
(39,-4,o),
(114,-14,cs),
(237,-31,o),
(416,179,o),
(432,246,cs),
(436,262,o),
(400,297,o),
(384,297,cs),
(381,297,o),
(379,296,o),
(378,292,cs),
(334,111,o),
(263,128,o),
(262,128,cs),
(185,139,o),
(161,199,o),
(161,269,cs),
(161,380,o),
(223,524,o),
(224,525,cs),
(243,540,o),
(314,556,o),
(357,556,cs),
(377,556,o),
(391,553,o),
(391,544,cs),
(391,532,o),
(357,442,o),
(342,320,cs),
(333,248,o),
(331,177,o),
(324,106,cs),
(322,92,o),
(321,77,o),
(321,64,cs),
(321,27,o),
(331,-3,o),
(381,-3,cs),
(390,-3,o),
(399,-2,o),
(410,0,cs)
);
}
);
width = 558;
}
);
unicode = 593;
},
{
glyphname = aturned;
lastChange = "2024-05-03 14:29:02 +0000";
layers = (
{
anchors = (
{
name = bottom;
pos = (222,-12);
},
{
name = top;
pos = (317,697);
}
);
layerId = m01;
shapes = (
{
closed = 1;
nodes = (
(196,705,o),
(55,559,o),
(83,553,cs),
(93,550,o),
(98,532,o),
(98,496,cs),
(98,452,o),
(91,379,o),
(84,277,cs),
(80,222,o),
(76,199,o),
(70,129,cs),
(66,78,o),
(86,-2,o),
(148,-2,cs),
(188,-2,o),
(247,33,o),
(328,137,cs),
(352,167,o),
(362,187,o),
(362,197,cs),
(362,202,o),
(359,205,o),
(355,205,cs),
(343,205,o),
(316,185,o),
(284,143,c),
(283,143,o),
(279,142,o),
(274,142,cs),
(255,142,o),
(214,154,o),
(214,237,c),
(216,263,l),
(228,413,ls),
(236,517,o),
(243,588,o),
(243,634,cs),
(243,675,o),
(237,695,o),
(219,699,cs)
);
},
{
closed = 1;
nodes = (
(438,306,o),
(485,431,o),
(485,466,cs),
(485,472,o),
(484,476,o),
(481,476,cs),
(84,475,ls),
(67,475,o),
(20,351,o),
(20,315,cs),
(20,309,o),
(21,305,o),
(24,305,cs),
(421,306,ls)
);
},
{
closed = 1;
nodes = (
(266,103,o),
(263,95,o),
(263,90,cs),
(263,87,o),
(265,85,o),
(268,85,cs),
(284,85,o),
(338,136,o),
(363,183,cs),
(377,209,o),
(395,256,o),
(402,300,cs),
(417,396,o),
(432,547,o),
(449,681,cs),
(451,695,o),
(446,700,o),
(438,700,cs),
(415,700,o),
(363,654,o),
(359,621,cs),
(340,477,o),
(323,320,o),
(308,218,cs),
(301,171,o),
(275,119,o),
(273,115,cs)
);
}
);
width = 530;
}
);
metricLeft = a;
metricRight = a;
unicode = 592;
},
{
glyphname = ae;
kernLeft = KO_ae;
lastChange = "2024-05-03 14:09:42 +0000";
layers = (
{
anchors = (
{
name = bottom;
pos = (357,0);
},
{
name = top;
pos = (461,735);
}
);
layerId = m01;
shapes = (
{
closed = 1;
nodes = (
(299,-6,o),
(440,140,o),
(412,146,cs),
(402,149,o),
(397,168,o),
(397,204,cs),
(397,250,o),
(404,323,o),
(411,428,cs),
(415,484,o),
(419,508,o),
(425,579,cs),
(429,631,o),
(409,714,o),
(347,714,cs),
(306,714,o),
(247,677,o),
(165,571,cs),
(142,542,o),
(133,522,o),
(133,512,cs),
(133,507,o),
(135,505,o),
(139,505,cs),
(152,505,o),
(180,526,o),
(213,569,c),
(213,569,o),
(216,570,o),
(221,570,cs),
(239,570,o),
(281,559,o),
(281,472,c),
(279,445,l),
(267,292,ls),
(259,186,o),
(252,113,o),
(252,66,cs),
(252,24,o),
(258,4,o),
(276,0,cs)
);
},
{
closed = 1;
nodes = (
(56,397,o),
(10,273,o),
(10,237,cs),
(10,231,o),
(11,227,o),
(14,227,cs),
(357,228,ls),
(374,228,o),
(421,351,o),
(421,388,cs),
(421,394,o),
(420,398,o),
(417,398,cs),
(74,397,ls)
);
},
{
closed = 1;
nodes = (
(229,606,o),
(232,614,o),
(232,619,cs),
(232,622,o),
(230,624,o),
(227,624,cs),
(211,624,o),
(157,573,o),
(132,526,cs),
(117,498,o),
(100,454,o),
(93,407,cs),
(78,308,o),
(63,154,o),
(45,16,cs),
(44,3,o),
(48,-2,o),
(56,-2,cs),
(80,-2,o),
(132,45,o),
(137,78,cs),
(155,224,o),
(172,385,o),
(187,489,cs),
(194,536,o),
(221,592,o),
(222,594,cs)
);
},
{
closed = 1;
nodes = (
(552,455,o),
(679,583,o),
(672,602,cs),
(643,681,o),
(591,714,o),
(546,714,cs),
(532,714,o),
(520,711,o),
(508,706,cs),
(296,606,o),
(294,144,o),
(275,45,cs),
(273,33,o),
(272,24,o),
(272,18,cs),
(272,5,o),
(276,2,o),
(280,2,cs),
(283,2,o),
(286,4,o),
(286,4,c),
(314,14,o),
(338,19,o),
(365,19,cs),
(379,19,o),
(395,17,o),
(412,14,cs),
(446,8,o),
(487,-4,o),
(527,-4,cs),
(559,-4,o),
(590,3,o),
(618,26,cs),
(646,49,o),
(674,132,o),
(674,171,cs),
(674,184,o),
(671,192,o),
(664,192,cs),
(660,192,o),
(656,190,o),
(650,186,c),
(640,177,o),
(613,174,o),
(583,174,cs),
(546,174,o),
(503,178,o),
(472,184,cs),
(449,188,o),
(429,191,o),
(408,191,cs),
(389,191,o),
(370,188,o),
(348,180,c),
(359,139,l),
(408,391,o),
(424,538,o),
(458,554,cs),
(466,558,o),
(473,561,o),
(481,561,cs),
(499,561,o),
(519,544,o),
(544,476,cs)
);
},
{
closed = 1;
nodes = (
(300,430,o),
(254,306,o),
(254,270,cs),
(254,264,o),
(255,260,o),
(258,260,cs),
(554,261,ls),
(571,261,o),
(618,384,o),
(618,421,cs),
(618,427,o),
(617,431,o),
(614,431,cs),
(318,430,ls)
);
}
);
width = 714;
}
);
unicode = 230;
},
{
glyphname = b;
kernLeft = KO_b;
kernRight = KO_b;
lastChange = "2024-04-15 16:21:13 +0000";
layers = (
{
anchors = (
{
name = bottom;
pos = (211,0);
},
{
name = center;
pos = (251,250);
},
{
name = left;
pos = (210,557);
},
{
name = top;
pos = (251,500);
}
);
guides = (
{
pos = (310,715);
}
);
layerId = m01;
shapes = (
{
closed = 1;
nodes = (
(205,588,o),
(207,593,o),
(207,596,cs),
(207,603,o),
(203,605,o),
(197,605,cs),
(171,605,o),
(101,557,o),
(83,518,cs),
(37,415,o),
(30,274,o),
(30,191,cs),
(30,149,o),
(32,122,o),
(32,119,cs),
(32,110,o),
(37,107,o),
(44,107,cs),
(73,107,o),
(143,162,o),
(142,193,cs),
(142,194,o),
(148,459,o),
(203,582,cs)
);
},
{
closed = 1;
nodes = (
(57,255,o),
(55,228,o),
(55,205,cs),
(55,176,o),
(59,154,o),
(65,154,cs),
(69,154,o),
(74,163,o),
(79,184,cs),
(96,257,o),
(185,302,o),
(262,302,cs),
(326,302,o),
(381,272,o),
(381,202,cs),
(381,182,o),
(376,159,o),
(367,133,cs),
(365,128,o),
(364,124,o),
(364,122,cs),
(364,119,o),
(365,118,o),
(367,118,cs),
(383,118,o),
(459,205,o),
(475,249,cs),
(485,275,o),
(490,299,o),
(490,320,cs),
(490,413,o),
(405,462,o),
(311,462,cs),
(208,462,o),
(93,403,o),
(63,278,cs)
);
},
{
closed = 1;
nodes = (
(197,406,o),
(174,365,o),
(174,342,cs),
(174,332,o),
(178,326,o),
(188,326,cs),
(197,326,o),
(210,331,o),
(227,342,cs),
(380,448,o),
(436,540,o),
(436,605,cs),
(436,665,o),
(387,701,o),
(324,701,cs),
(237,701,o),
(123,634,o),
(67,471,cs),
(60,450,o),
(58,433,o),
(58,419,cs),
(58,390,o),
(69,375,o),
(85,375,cs),
(104,375,o),
(128,397,o),
(145,447,cs),
(165,507,o),
(239,539,o),
(283,539,cs),
(303,539,o),
(317,533,o),
(317,519,cs),
(317,502,o),
(295,474,o),
(237,434,cs)
);
},
{
closed = 1;
nodes = (
(479,270,o),
(484,294,o),
(484,308,cs),
(484,316,o),
(482,321,o),
(479,321,cs),
(472,321,o),
(458,301,o),
(443,257,cs),
(416,184,o),
(337,150,o),
(265,150,cs),
(196,150,o),
(134,182,o),
(134,240,cs),
(134,256,o),
(139,274,o),
(150,295,cs),
(156,307,o),
(159,314,o),
(159,318,cs),
(159,321,o),
(158,322,o),
(156,322,cs),
(142,322,o),
(81,258,o),
(52,203,cs),
(38,177,o),
(32,151,o),
(32,127,cs),
(32,46,o),
(104,-14,o),
(193,-14,cs),
(288,-14,o),
(402,54,o),
(467,237,cs)
);
}
);
width = 531;
}
);
unicode = 98;
},
{
glyphname = bhook;
kernRight = KO_b;
lastChange = "2024-05-02 21:10:49 +0000";
layers = (
{
anchors = (
{
name = bottom;
pos = (235,0);
},
{
name = center;
pos = (275,250);
},
{
name = left;
pos = (234,557);
},
{
name = top;
pos = (275,500);
}
);
layerId = m01;
shapes = (
{
closed = 1;
nodes = (
(385,588,o),
(387,593,o),
(387,596,cs),
(387,603,o),
(383,605,o),
(377,605,cs),
(351,605,o),
(281,557,o),
(263,518,cs),
(217,415,o),
(210,274,o),
(210,191,cs),
(210,149,o),
(212,122,o),
(212,119,cs),
(212,110,o),
(217,107,o),
(224,107,cs),
(253,107,o),
(323,162,o),
(322,193,cs),
(322,194,o),
(328,459,o),
(383,582,cs)
);
},
{
closed = 1;
nodes = (
(237,255,o),
(235,228,o),
(235,205,cs),
(235,176,o),
(239,154,o),
(245,154,cs),
(249,154,o),
(254,163,o),
(259,184,cs),
(276,257,o),
(365,302,o),
(442,302,cs),
(506,302,o),
(561,272,o),
(561,202,cs),
(561,182,o),
(556,159,o),
(547,133,cs),
(545,128,o),
(544,124,o),
(544,122,cs),
(544,119,o),
(545,118,o),
(547,118,cs),
(563,118,o),
(639,205,o),
(655,249,cs),
(665,275,o),
(670,299,o),
(670,320,cs),
(670,413,o),
(585,462,o),
(491,462,cs),
(388,462,o),
(273,403,o),
(243,278,cs)
);
},
{
closed = 1;
nodes = (
(375,403,o),
(354,365,o),
(354,343,cs),
(354,333,o),
(359,326,o),
(369,326,cs),
(378,326,o),
(392,331,o),
(411,345,cs),
(562,456,o),
(617,552,o),
(617,618,cs),
(617,680,o),
(569,716,o),
(506,716,cs),
(418,716,o),
(301,645,o),
(246,473,cs),
(240,454,o),
(237,438,o),
(237,424,cs),
(237,396,o),
(249,380,o),
(265,380,cs),
(284,380,o),
(309,403,o),
(326,455,cs),
(347,524,o),
(413,556,o),
(456,556,cs),
(479,556,o),
(495,547,o),
(495,529,cs),
(495,508,o),
(473,475,o),
(413,431,cs)
);
},
{
closed = 1;
nodes = (
(659,270,o),
(664,294,o),
(664,308,cs),
(664,316,o),
(662,321,o),
(659,321,cs),
(652,321,o),
(638,301,o),
(623,257,cs),
(596,184,o),
(517,150,o),
(445,150,cs),
(376,150,o),
(314,182,o),
(314,240,cs),
(314,256,o),
(319,274,o),
(330,295,cs),
(336,307,o),
(339,314,o),
(339,318,cs),
(339,321,o),
(338,322,o),
(336,322,cs),
(322,322,o),
(261,258,o),
(232,203,cs),
(218,177,o),
(212,151,o),
(212,127,cs),
(212,46,o),
(284,-14,o),
(373,-14,cs),
(468,-14,o),
(582,54,o),
(647,237,cs)
);
},
{
closed = 1;
nodes = (
(284,485,o),
(364,620,o),
(348,631,cs),
(335,640,o),
(312,647,o),
(282,647,cs),
(214,647,o),
(113,613,o),
(30,497,cs),
(27,492,o),
(25,489,o),
(25,486,cs),
(25,483,o),
(28,481,o),
(33,481,cs),
(49,481,o),
(84,498,o),
(99,519,cs),
(107,530,o),
(124,544,o),
(154,544,cs),
(181,544,o),
(218,532,o),
(268,497,cs)
);
},
{
closed = 1;
nodes = (
(121,561,o),
(120,563,o),
(116,563,cs),
(99,563,o),
(31,507,o),
(21,480,cs),
(13,460,o),
(10,441,o),
(10,424,cs),
(10,374,o),
(38,336,o),
(79,336,cs),
(93,336,o),
(108,340,o),
(124,349,cs),
(156,367,o),
(210,454,o),
(210,481,cs),
(210,486,o),
(208,489,o),
(204,489,cs),
(202,489,o),
(198,488,o),
(193,485,cs),
(179,477,o),
(163,473,o),
(149,473,cs),
(126,473,o),
(109,485,o),
(109,513,cs),
(109,524,o),
(112,538,o),
(118,554,cs)
);
}
);
width = 711;
}
);
metricRight = b;
unicode = 595;
},
{
glyphname = bstroke;
lastChange = "2024-05-03 14:30:12 +0000";
layers = (
{
anchors = (
{
name = bottom;
pos = (261,0);
},
{
name = center;
pos = (301,250);
},
{
name = left;
pos = (260,557);
},
{
name = top;
pos = (301,500);
}
);
layerId = m01;
shapes = (
{
closed = 1;
nodes = (
(255,588,o),
(257,593,o),
(257,596,cs),
(257,603,o),
(253,605,o),
(247,605,cs),
(221,605,o),
(151,557,o),
(133,518,cs),
(87,415,o),
(80,274,o),
(80,191,cs),
(80,149,o),
(82,122,o),
(82,119,cs),
(82,110,o),
(87,107,o),
(94,107,cs),
(123,107,o),
(193,162,o),
(192,193,cs),
(192,194,o),
(198,459,o),
(253,582,cs)
);
},
{
closed = 1;
nodes = (
(107,255,o),
(105,228,o),
(105,205,cs),
(105,176,o),
(109,154,o),
(115,154,cs),
(119,154,o),
(124,163,o),
(129,184,cs),
(146,257,o),
(235,302,o),
(312,302,cs),
(376,302,o),
(431,272,o),
(431,202,cs),
(431,182,o),
(426,159,o),
(417,133,cs),
(415,128,o),
(414,124,o),
(414,122,cs),
(414,119,o),
(415,118,o),
(417,118,cs),
(433,118,o),
(509,205,o),
(525,249,cs),
(535,275,o),
(540,299,o),
(540,320,cs),
(540,413,o),
(455,462,o),
(361,462,cs),
(258,462,o),
(143,403,o),
(113,278,cs)
);
},
{
closed = 1;
nodes = (
(247,406,o),
(224,365,o),
(224,342,cs),
(224,332,o),
(228,326,o),
(238,326,cs),
(247,326,o),
(260,331,o),
(277,342,cs),
(430,448,o),
(486,540,o),
(486,605,cs),
(486,665,o),
(437,701,o),
(374,701,cs),
(287,701,o),
(173,634,o),
(117,471,cs),
(110,450,o),
(108,433,o),
(108,419,cs),
(108,390,o),
(119,375,o),
(135,375,cs),
(154,375,o),
(178,397,o),
(195,447,cs),
(215,507,o),
(289,539,o),
(333,539,cs),
(353,539,o),
(367,533,o),
(367,519,cs),
(367,502,o),
(345,474,o),
(287,434,cs)
);
},
{
closed = 1;
nodes = (
(529,270,o),
(534,294,o),
(534,308,cs),
(534,316,o),
(532,321,o),
(529,321,cs),
(522,321,o),
(508,301,o),
(493,257,cs),
(466,184,o),
(387,150,o),
(315,150,cs),
(246,150,o),
(184,182,o),
(184,240,cs),
(184,256,o),
(189,274,o),
(200,295,cs),
(206,307,o),
(209,314,o),
(209,318,cs),
(209,321,o),
(208,322,o),
(206,322,cs),
(192,322,o),
(131,258,o),
(102,203,cs),
(88,177,o),
(82,151,o),
(82,127,cs),
(82,46,o),
(154,-14,o),
(243,-14,cs),
(338,-14,o),
(452,54,o),
(517,237,cs)
);
},
{
closed = 1;
nodes = (
(26,353,o),
(-20,229,o),
(-20,193,cs),
(-20,187,o),
(-19,183,o),
(-16,183,cs),
(120,185,ls),
(137,185,o),
(184,308,o),
(184,345,cs),
(184,351,o),
(183,355,o),
(180,355,cs),
(44,353,ls)
);
}
);
width = 581;
}
);
metricRight = b;
unicode = 384;
},
{
glyphname = c;
kernLeft = KO_c;
kernRight = KO_c;
lastChange = "2024-05-02 21:24:19 +0000";
layers = (
{
anchors = (
{
name = bottom;
pos = (242,0);
},
{
name = top;
pos = (335,711);
}
);
guides = (
{
pos = (-197,910);
},
{
pos = (304,725);
}
);
layerId = m01;
shapes = (
{
closed = 1;
nodes = (
(239,577,o),
(247,595,o),
(247,606,cs),
(247,613,o),
(243,616,o),
(237,616,cs),
(220,616,o),
(185,592,o),
(151,545,cs),
(65,430,o),
(30,311,o),
(30,213,cs),
(30,80,o),
(95,-16,o),
(187,-16,cs),
(240,-16,o),
(302,16,o),
(366,91,cs),
(405,137,o),
(426,186,o),
(426,210,cs),
(426,219,o),
(423,224,o),
(417,224,cs),
(408,224,o),
(392,213,o),
(368,185,cs),
(343,156,o),
(316,144,o),
(291,144,cs),
(220,144,o),
(157,243,o),
(157,360,cs),
(157,423,o),
(175,491,o),
(219,551,cs)
);
},
{
closed = 1;
nodes = (
(343,468,o),
(470,595,o),
(461,613,cs),
(448,638,o),
(419,700,o),
(361,700,cs),
(331,700,o),
(294,683,o),
(249,637,cs),
(197,585,o),
(163,517,o),
(180,517,cs),
(186,517,o),
(198,525,o),
(217,545,cs),
(225,552,o),
(234,556,o),
(245,556,cs),
(274,556,o),
(312,528,o),
(333,487,cs)
);
}
);
width = 481;
}
);
unicode = 99;
userData = {
KernOnName = c;
};
},
{
glyphname = chook;
lastChange = "2024-05-02 21:14:07 +0000";
layers = (
{
anchors = (
{
name = bottom;
pos = (230,0);
},
{
name = top;
pos = (323,711);
}
);
background = {
shapes = (
{
closed = 0;
nodes = (
(391,613,ls,{
"Letterink-NibData" = {
MainAxisWidth = "140";
MinorAxisWidth = "15";
ValidForParentMainAxisWidth = "30";
ValidForParentMinorAxisWidth = "15";
};
}),
(406,687,o),
(348,762,o),
(280,762,cs,{
"Letterink-NibData" = {
MainAxisWidth = "140";
MinorAxisWidth = "15";
ValidForParentMainAxisWidth = "30";
ValidForParentMinorAxisWidth = "15";
};
})
);
}
);
};
layerId = m01;
shapes = (
{
closed = 1;
nodes = (
(239,577,o),
(247,595,o),
(247,606,cs),
(247,613,o),
(243,616,o),
(237,616,cs),
(220,616,o),
(185,592,o),
(151,545,cs),
(65,430,o),
(30,311,o),
(30,213,cs),
(30,80,o),
(95,-16,o),
(187,-16,cs),
(240,-16,o),
(302,16,o),
(366,91,cs),
(405,137,o),
(426,186,o),
(426,210,cs),
(426,219,o),
(423,224,o),
(417,224,cs),
(408,224,o),
(392,213,o),
(368,185,cs),
(343,156,o),
(316,144,o),
(291,144,cs),
(220,144,o),
(157,243,o),
(157,360,cs),
(157,423,o),
(175,491,o),
(219,551,cs)
);
},
{
closed = 1;
nodes = (
(343,468,o),
(470,595,o),
(461,613,cs),
(448,638,o),
(419,700,o),
(361,700,cs),
(331,700,o),
(294,683,o),
(249,637,cs),
(197,585,o),
(163,517,o),
(180,517,cs),
(186,517,o),
(198,525,o),
(217,545,cs),
(225,552,o),
(234,556,o),
(245,556,cs),
(274,556,o),
(312,528,o),
(333,487,cs)
);
},
{
closed = 1;
nodes = (
(298,647,o),
(301,646,o),
(306,646,cs),
(322,646,o),
(359,666,o),
(358,679,cs),
(353,740,o),
(391,779,o),
(392,780,cs),
(417,802,o),
(429,818,o),
(429,826,cs),
(429,830,o),
(426,832,o),
(422,832,cs),
(412,832,o),
(391,822,o),
(364,798,cs),
(296,739,o),
(296,678,o),
(298,651,cs)
);
},
{
closed = 1;
nodes = (
(351,799,o),
(314,744,o),
(314,725,cs),
(314,721,o),
(316,718,o),
(320,718,cs),
(328,718,o),
(344,727,o),
(369,747,cs),
(369,747,o),
(393,767,o),
(424,767,cs),
(450,767,o),
(482,753,o),
(511,701,cs),
(525,675,o),
(683,822,o),
(669,847,cs),
(641,898,o),
(605,920,o),
(564,920,cs),
(515,920,o),
(459,889,o),
(403,843,cs)
);
}
);
width = 520;
}
);
metricLeft = c;
unicode = 392;
},
{
glyphname = d;
kernLeft = KO_d;
kernRight = KO_d;
lastChange = "2024-05-02 21:24:19 +0000";
layers = (
{
anchors = (
{
name = bottom;
pos = (205,0);
},
{
name = center;
pos = (103,310);
},
{
name = top;
pos = (238,709);
},
{
name = topright;
pos = (471,714);
}
);
guides = (
{
pos = (295,715);
}
);
layerId = m01;
shapes = (
{
closed = 1;
nodes = (
(124,711,o),
(47,548,o),
(65,539,cs),
(319,399,o),
(357,259,o),
(357,221,cs),
(357,217,o),
(357,214,o),
(356,213,c),
(344,188,o),
(339,170,o),
(339,159,cs),
(339,147,o),
(344,141,o),
(352,141,cs),
(369,141,o),
(402,170,o),
(428,223,cs),
(451,271,o),
(462,314,o),
(462,354,cs),
(462,490,o),
(339,593,o),
(141,701,cs)
);
},
{
closed = 1;
nodes = (
(170,576,o),
(164,579,o),
(155,579,cs),
(132,579,o),
(88,561,o),
(87,546,cs),
(47,90,ls),
(46,84,o),
(52,81,o),
(60,81,cs),
(83,81,o),
(128,99,o),
(129,114,cs),
(169,570,ls)
);
},
{
closed = 1;
nodes = (
(50,232,o),
(0,90,o),
(0,48,cs),
(0,42,o),
(1,38,o),
(3,37,cs),
(45,7,o),
(93,-15,o),
(146,-15,cs),
(218,-15,o),
(300,27,o),
(385,152,cs),
(405,180,o),
(413,204,o),
(413,220,cs),
(413,233,o),
(407,241,o),
(398,241,cs),
(386,241,o),
(367,229,o),
(347,198,cs),
(329,172,o),
(293,153,o),
(245,153,cs),
(196,153,o),
(135,172,o),
(65,221,cs)
);
}
);
width = 512;
}
);
unicode = 100;
userData = {
KernOnName = d;
};
},
{
glyphname = dhook;
kernRight = KO_d;
lastChange = "2024-05-02 21:11:17 +0000";
layers = (
{
anchors = (
{
name = bottom;
pos = (232,0);
},
{
name = center;
pos = (100,310);
},
{
name = top;
pos = (232,500);
},
{
name = topright;
pos = (468,714);
}
);
layerId = m01;
shapes = (
{
closed = 1;
nodes = (
(537,188,o),
(532,170,o),
(532,159,cs),
(532,147,o),
(537,141,o),
(545,141,cs),
(562,141,o),
(595,170,o),
(621,223,cs),
(641,265,o),
(651,305,o),
(651,342,cs),
(651,488,o),
(515,602,o),
(367,656,cs),
(349,662,o),
(272,499,o),
(291,492,cs),
(507,414,o),
(557,229,o),
(549,213,cs)
);
},
{
closed = 1;
nodes = (
(363,576,o),
(357,579,o),
(348,579,cs),
(325,579,o),
(281,561,o),
(280,546,cs),
(266,394,o),
(253,242,o),
(240,90,cs),
(239,84,o),
(245,81,o),
(253,81,cs),
(276,81,o),
(321,99,o),
(322,114,cs),
(336,266,o),
(349,418,o),
(362,570,cs)
);
},
{
closed = 1;
nodes = (
(243,232,o),
(193,90,o),
(193,48,cs),
(193,42,o),
(194,38,o),
(196,37,cs),
(238,7,o),
(286,-15,o),
(339,-15,cs),
(411,-15,o),
(493,27,o),
(578,152,cs),
(598,180,o),
(606,204,o),
(606,220,cs),
(606,233,o),
(600,241,o),
(591,241,cs),
(579,241,o),
(560,229,o),
(540,198,cs),
(522,172,o),
(486,153,o),
(438,153,cs),
(389,153,o),
(328,172,o),
(258,221,cs)
);
},
{
closed = 1;
nodes = (
(310,508,o),
(391,645,o),
(372,654,cs),
(363,658,o),
(340,664,o),
(310,664,cs),
(241,664,o),
(134,637,o),
(50,519,cs),
(47,515,o),
(45,511,o),
(45,509,cs),
(45,505,o),
(48,504,o),
(53,504,cs),
(69,504,o),
(104,521,o),
(119,542,cs),
(124,549,o),
(138,555,o),
(159,555,cs),
(188,555,o),
(232,545,o),
(292,517,cs)
);
},
{
closed = 1;
nodes = (
(141,583,o),
(139,586,o),
(136,586,cs),
(119,586,o),
(51,529,o),
(40,502,cs),
(33,483,o),
(30,464,o),
(30,447,cs),
(30,396,o),
(57,358,o),
(99,358,cs),
(113,358,o),
(127,362,o),
(143,371,cs),
(176,390,o),
(230,478,o),
(230,504,cs),
(230,509,o),
(228,512,o),
(224,512,cs),
(221,512,o),
(218,510,o),
(213,508,cs),
(199,500,o),
(183,495,o),
(170,495,cs),
(147,495,o),
(129,508,o),
(129,536,cs),
(129,547,o),
(132,560,o),
(138,577,cs)
);
}
);
width = 701;
}
);
metricRight = d;
unicode = 599;
},
{
glyphname = e;
kernLeft = KO_e;
kernRight = KO_e;
lastChange = "2024-05-02 21:24:19 +0000";
layers = (
{
anchors = (
{
name = bottom;
pos = (191,0);
},
{
name = ogonek;
pos = (429,0);
},
{
name = top;
pos = (295,711);
}
);
guides = (
{
pos = (-220,910);
},
{
pos = (281,725);
}
);
layerId = m01;
shapes = (
{
closed = 1;
nodes = (
(306,444,o),
(433,572,o),
(426,591,cs),
(396,669,o),
(345,701,o),
(300,701,cs),
(287,701,o),
(274,698,o),
(262,693,cs),
(56,600,o),
(46,132,o),
(28,41,cs),
(26,29,o),
(25,20,o),
(25,14,cs),
(25,1,o),
(29,-2,o),
(33,-2,cs),
(36,-2,o),
(39,0,o),
(39,0,c),
(71,11,o),
(96,18,o),
(127,18,cs),
(139,18,o),
(151,17,o),
(166,14,cs),
(200,8,o),
(241,-4,o),
(281,-4,cs),
(313,-4,o),
(344,3,o),
(372,26,cs),
(400,49,o),
(428,132,o),
(428,171,cs),
(428,184,o),
(425,192,o),
(418,192,cs),
(414,192,o),
(410,190,o),
(404,186,c),
(394,177,o),
(367,174,o),
(337,174,cs),
(300,174,o),
(257,178,o),
(226,184,cs),
(207,187,o),
(189,189,o),
(172,189,cs),
(149,189,o),
(126,186,o),
(101,176,c),
(112,135,l),
(161,382,o),
(177,525,o),
(212,541,cs),
(219,544,o),
(227,548,o),
(235,548,cs),
(253,548,o),
(273,531,o),
(298,465,cs)
);
},
{
closed = 1;
nodes = (
(61,438,o),
(15,314,o),
(15,278,cs),
(15,272,o),
(16,268,o),
(19,268,cs),
(342,269,ls),
(359,269,o),
(406,392,o),
(406,429,cs),
(406,435,o),
(405,439,o),
(402,439,cs),
(79,438,ls)
);
}
);
width = 463;
}
);
unicode = 101;
userData = {
KernOnName = e;
};
},
{
glyphname = eopen;
kernLeft = KO_eopen;
lastChange = "2024-03-25 03:27:00 +0000";
layers = (
{
guides = (
{
pos = (370,290);
},
{
pos = (349,410);
}
);
layerId = m01;
shapes = (
{
closed = 1;
nodes = (
(181,591,o),
(193,615,o),
(193,627,cs),
(193,633,o),
(190,636,o),
(185,636,cs),
(173,636,o),
(147,618,o),
(113,579,cs),
(36,488,o),
(8,412,o),
(8,356,cs),
(8,285,o),
(54,246,o),
(107,246,cs),
(129,246,o),
(152,253,o),
(174,268,cs),
(216,297,o),
(303,447,o),
(279,447,cs),
(277,447,o),
(273,446,o),
(268,442,cs),
(243,425,o),
(222,418,o),
(205,418,cs),
(159,418,o),
(142,470,o),
(142,512,cs),
(142,532,o),
(146,550,o),
(153,557,cs)
);
},
{
closed = 1;
nodes = (
(256,471,o),
(382,599,o),
(379,624,cs),
(376,656,o),
(340,701,o),
(283,701,cs),
(253,701,o),
(218,689,o),
(178,656,cs),
(131,616,o),
(72,520,o),
(92,520,cs),
(96,520,o),
(103,524,o),
(116,534,cs),
(134,550,o),
(156,556,o),
(176,556,cs),
(214,556,o),
(249,533,o),
(253,498,cs)
);
},
{
closed = 1;
nodes = (
(211,310,o),
(213,313,o),
(213,315,cs),
(213,317,o),
(211,318,o),
(208,318,cs),
(185,318,o),
(94,273,o),
(72,248,cs),
(21,188,o),
(0,137,o),
(0,97,cs),
(0,32,o),
(54,-6,o),
(119,-6,cs),
(178,-6,o),
(246,24,o),
(294,92,cs),
(325,137,o),
(346,202,o),
(346,230,cs),
(346,240,o),
(344,245,o),
(339,245,cs),
(333,245,o),
(324,237,o),
(310,218,cs),
(280,174,o),
(223,146,o),
(183,146,cs),
(158,146,o),
(139,158,o),
(139,183,cs),
(139,208,o),
(158,249,o),
(208,306,cs)
);
}
);
width = 379;
}
);
unicode = 603;
},
{
glyphname = esh;
kernLeft = KO_esh;
lastChange = "2024-04-15 16:21:13 +0000";
layers = (
{
anchors = (
{
name = bottom;
pos = (264,0);
},
{
name = top;
pos = (364,713);
}
);
layerId = m01;
shapes = (
{
closed = 1;
nodes = (
(147,85,o),
(149,92,o),
(149,96,cs),
(149,102,o),
(146,105,o),
(140,105,cs),
(115,105,o),
(40,45,o),
(17,-4,cs),
(5,-30,o),
(0,-52,o),
(0,-70,cs),
(0,-120,o),
(39,-140,o),
(71,-140,cs),
(159,-140,o),
(357,81,o),
(365,166,cs),
(387,365,l),
(407,576,ls),
(410,609,o),
(449,622,o),
(459,622,cs),
(481,621,o),
(504,605,o),
(504,575,cs),
(504,566,o),
(502,555,o),
(496,544,c),
(493,535,o),
(491,528,o),
(491,524,cs),
(491,517,o),
(494,514,o),
(500,514,cs),
(525,514,o),
(599,573,o),
(623,624,cs),
(635,650,o),
(640,672,o),
(640,690,cs),
(640,738,o),
(606,760,o),
(569,760,cs),
(480,760,o),
(283,539,o),
(274,454,cs),
(253,255,l),
(233,44,ls),
(229,11,o),
(190,-2,o),
(180,-2,cs),
(153,-1,o),
(135,17,o),
(135,43,cs),
(135,53,o),
(138,64,o),
(143,76,cs)
);
}
);
width = 660;
}
);
unicode = 643;
},
{
glyphname = eturned;
lastChange = "2024-04-15 16:21:13 +0000";
layers = (
{
layerId = m01;
shapes = (
{
closed = 1;
nodes = (
(116,350,o),
(116,353,o),
(116,356,cs),
(116,365,o),
(112,369,o),
(105,369,cs),
(83,369,o),
(32,325,o),
(23,286,cs),
(14,248,o),
(10,213,o),
(10,180,cs),
(10,63,o),
(63,-16,o),
(139,-16,cs),
(170,-16,o),
(205,-3,o),
(241,27,cs),
(286,63,o),
(342,164,o),
(342,195,cs),
(342,200,o),
(340,203,o),
(336,203,cs),
(331,203,o),
(324,199,o),
(315,191,cs),
(281,164,o),
(247,152,o),
(215,152,cs),
(155,152,o),
(107,198,o),
(107,283,cs),
(107,302,o),
(110,323,o),
(115,346,cs)
);
},
{
closed = 1;
nodes = (
(240,121,o),
(232,103,o),
(232,93,cs),
(232,85,o),
(236,82,o),
(243,82,cs),
(262,82,o),
(304,113,o),
(340,166,cs),
(428,296,o),
(469,420,o),
(469,516,cs),
(469,626,o),
(415,699,o),
(318,699,cs),
(293,699,o),
(266,695,o),
(236,685,cs),
(183,667,o),
(107,563,o),
(107,523,cs),
(107,514,o),
(111,508,o),
(121,508,cs),
(125,508,o),
(130,509,o),
(136,511,cs),
(163,520,o),
(187,524,o),
(208,524,cs),
(293,524,o),
(330,457,o),
(330,372,cs),
(330,300,o),
(304,216,o),
(258,148,cs)
);
},
{
closed = 1;
nodes = (
(103,396,o),
(31,320,o),
(31,292,cs),
(31,286,o),
(35,282,o),
(45,282,cs),
(81,285,o),
(306,285,o),
(314,285,cs),
(346,286,o),
(420,363,o),
(420,391,cs),
(420,397,o),
(416,401,o),
(408,401,cs),
(407,401,o),
(170,400,o),
(135,398,cs)
);
}
);
width = 479;
}
);
unicode = 477;
},
{
glyphname = schwa;
kernLeft = KO_schwa;
kernRight = KO_o;
lastChange = "2024-04-15 16:21:13 +0000";
layers = (
{
layerId = m01;
shapes = (
{
closed = 1;
nodes = (
(116,350,o),
(116,353,o),
(116,356,cs),
(116,365,o),
(112,369,o),
(105,369,cs),
(83,369,o),
(32,325,o),
(23,286,cs),
(14,248,o),
(10,213,o),
(10,180,cs),
(10,63,o),
(63,-16,o),
(139,-16,cs),
(170,-16,o),
(205,-3,o),
(241,27,cs),
(286,63,o),
(342,164,o),
(342,195,cs),
(342,200,o),
(340,203,o),
(336,203,cs),
(331,203,o),
(324,199,o),
(315,191,cs),
(281,164,o),
(247,152,o),
(215,152,cs),
(155,152,o),
(107,198,o),
(107,283,cs),
(107,302,o),
(110,323,o),
(115,346,cs)
);
},
{
closed = 1;
nodes = (
(243,128,o),
(233,106,o),
(233,94,cs),
(233,86,o),
(237,82,o),
(244,82,cs),
(261,82,o),
(296,107,o),
(332,156,cs),
(421,276,o),
(455,387,o),
(455,477,cs),
(455,612,o),
(379,700,o),
(300,700,cs),
(278,700,o),
(257,693,o),
(236,680,cs),
(183,643,o),
(89,513,o),
(116,513,cs),
(119,513,o),
(126,516,o),
(136,522,cs),
(151,533,o),
(167,538,o),
(181,538,cs),
(253,538,o),
(308,421,o),
(308,308,cs),
(308,253,o),
(296,199,o),
(266,158,cs)
);
},
{
closed = 1;
nodes = (
(85,369,o),
(51,327,o),
(51,305,cs),
(51,298,o),
(55,292,o),
(66,292,cs),
(69,292,ls),
(105,294,o),
(331,294,o),
(339,294,cs),
(367,295,o),
(402,337,o),
(402,360,cs),
(402,368,o),
(397,374,o),
(385,374,c),
(385,374,o),
(148,373,o),
(113,370,cs)
);
}
);
width = 475;
}
);
unicode = 601;
},
{
glyphname = ezh;
lastChange = "2024-04-15 14:38:12 +0000";
layers = (
{
anchors = (
{
name = bottom;
pos = (139,-211);
},
{
name = ogonek;
pos = (5,500);
},
{
name = top;
pos = (243,500);
}
);
layerId = m01;
shapes = (
{
closed = 1;
nodes = (
(135,262,o),
(5,138,o),
(5,110,cs),
(5,62,o),
(29,-4,o),
(97,-4,cs),
(131,-4,o),
(175,12,o),
(233,54,cs),
(278,87,o),
(311,135,o),
(311,153,cs),
(311,157,o),
(309,160,o),
(304,160,cs),
(297,160,o),
(285,155,o),
(267,142,cs),
(250,130,o),
(233,124,o),
(216,124,cs),
(172,124,o),
(135,164,o),
(135,232,cs)
);
},
{
closed = 1;
nodes = (
(381,533,o),
(428,641,o),
(428,683,cs),
(428,694,o),
(425,700,o),
(418,700,cs),
(417,700,o),
(415,700,o),
(413,699,cs),
(381,688,o),
(356,681,o),
(325,681,cs),
(313,681,o),
(301,682,o),
(286,685,cs),
(252,691,o),
(211,703,o),
(171,703,cs),
(139,703,o),
(108,696,o),
(80,673,cs),
(52,650,o),
(24,567,o),
(24,528,cs),
(24,515,o),
(27,507,o),
(34,507,cs),
(38,507,o),
(42,509,o),
(48,513,c),
(58,522,o),
(85,525,o),
(115,525,cs),
(152,525,o),
(195,521,o),
(226,515,cs),
(245,512,o),
(263,510,o),
(280,510,cs),
(303,510,o),
(326,513,o),
(351,523,cs)
);
},
{
closed = 1;
nodes = (
(228,106,o),
(221,92,o),
(221,85,cs),
(221,80,o),
(224,78,o),
(229,78,cs),
(246,78,o),
(288,106,o),
(323,150,cs),
(386,232,o),
(414,301,o),
(414,352,cs),
(414,411,o),
(377,445,o),
(316,445,cs),
(278,445,o),
(231,432,o),
(177,404,cs),
(128,379,o),
(85,325,o),
(85,305,cs),
(85,299,o),
(88,296,o),
(94,296,cs),
(100,296,o),
(109,299,o),
(123,306,cs),
(152,321,o),
(178,328,o),
(201,328,cs),
(255,328,o),
(286,289,o),
(286,237,cs),
(286,203,o),
(273,163,o),
(243,126,cs)
);
},
{
closed = 1;
nodes = (
(395,572,o),
(403,589,o),
(403,601,cs),
(403,613,o),
(396,619,o),
(384,619,cs),
(364,619,o),
(330,600,o),
(297,560,c),
(135,386,ls),
(107,357,o),
(95,334,o),
(95,320,cs),
(95,310,o),
(100,305,o),
(110,305,cs),
(125,305,o),
(151,319,o),
(183,352,c),
(183,352,o),
(353,519,o),
(377,548,cs)
);
}
);
width = 448;
}
);
unicode = 658;
},
{
glyphname = f;
kernLeft = KO_f;
kernRight = KO_f;
lastChange = "2024-05-02 21:24:19 +0000";
layers = (
{
layerId = m01;
shapes = (
{
closed = 1;
nodes = (
(430,588,o),
(455,669,o),
(455,701,cs),
(455,709,o),
(454,714,o),
(450,714,cs),
(446,714,o),
(441,710,o),
(435,701,cs),
(414,674,o),
(351,659,o),
(309,659,cs),
(254,659,o),
(192,681,o),
(159,710,c),
(157,713,o),
(155,714,o),
(152,714,cs),
(122,714,o),
(80,578,o),
(80,574,cs),
(61,383,o),
(37,200,o),
(20,17,cs),
(19,5,o),
(24,0,o),
(32,0,cs),
(57,0,o),
(109,43,o),
(112,77,cs),
(132,282,o),
(145,487,o),
(164,684,c),
(85,548,l),
(124,511,o),
(192,489,o),
(249,489,cs),
(303,489,o),
(352,486,o),
(403,553,cs)
);
},
{
closed = 1;
nodes = (
(340,226,o),
(377,346,o),
(377,386,cs),
(377,395,o),
(376,400,o),
(372,400,cs),
(77,402,ls),
(61,402,o),
(24,282,o),
(24,241,cs),
(24,233,o),
(26,228,o),
(29,228,cs),
(324,226,ls)
);
}
);
width = 430;
}
);
unicode = 102;
userData = {
KernOnName = f;
};
},
{
glyphname = g;
kernLeft = KO_o;
kernRight = KO_g;
lastChange = "2024-05-02 21:24:19 +0000";
layers = (
{
anchors = (
{
name = bottom;
pos = (244,0);
},
{
name = top;
pos = (332,710);
}
);
layerId = m01;
shapes = (
{
closed = 1;
nodes = (
(223,578,o),
(232,596,o),
(232,606,cs),
(232,611,o),
(229,614,o),
(224,614,cs),
(209,614,o),
(175,589,o),
(139,541,cs),
(47,419,o),
(10,295,o),
(10,195,cs),
(10,72,o),
(66,-15,o),
(144,-15,cs),
(192,-15,o),
(249,18,o),
(306,95,cs),
(347,151,o),
(370,200,o),
(370,219,cs),
(370,223,o),
(368,226,o),
(365,226,cs),
(358,226,o),
(341,211,o),
(314,175,cs),
(299,154,o),
(281,145,o),
(263,145,cs),
(203,145,o),
(139,242,o),
(139,359,cs),
(139,421,o),
(157,489,o),
(203,551,cs)
);
},
{
closed = 1;
nodes = (
(276,356,o),
(207,256,o),
(224,256,cs),
(227,256,o),
(233,259,o),
(242,266,cs),
(250,273,o),
(266,279,o),
(282,279,cs),
(308,279,o),
(335,265,o),
(335,217,cs),
(335,174,o),
(325,129,o),
(319,85,cs),
(318,75,o),
(318,65,o),
(318,57,cs),
(318,8,o),
(336,-6,o),
(343,-14,cs),
(356,-29,o),
(472,86,o),
(472,110,cs),
(472,115,o),
(458,117,o),
(458,157,cs),
(458,167,o),
(459,178,o),
(461,193,cs),
(465,234,o),
(473,275,o),
(476,317,cs),
(479,373,o),
(437,415,o),
(386,415,cs),
(364,415,o),
(340,407,o),
(318,390,cs)
);
},
{
closed = 1;
nodes = (
(354,470,o),
(481,597,o),
(471,614,cs),
(455,641,o),
(420,701,o),
(358,701,cs),
(328,701,o),
(292,687,o),
(249,647,cs),
(199,601,o),
(151,517,o),
(169,517,cs),
(174,517,o),
(184,523,o),
(199,537,cs),
(214,551,o),
(231,557,o),
(247,557,cs),
(285,557,o),
(322,524,o),
(343,488,cs)
);
}
);
width = 527;
}
);
unicode = 103;
userData = {
KernOnName = g;
};
},
{
glyphname = "gamma-latin";
lastChange = "2024-03-25 04:14:21 +0000";
layers = (
{
layerId = m01;
shapes = (
{
closed = 1;
nodes = (
(466,681,o),
(466,685,o),
(466,689,cs),
(466,697,o),
(462,700,o),
(456,700,cs),
(431,700,o),
(367,649,o),
(352,607,cs),
(244,291,o),
(67,13,o),
(67,-119,cs),
(67,-171,o),
(94,-201,o),
(166,-201,cs),
(185,-201,o),
(238,-146,o),
(238,-129,cs),
(238,-125,o),
(237,-123,o),
(232,-123,cs),
(186,-123,o),
(167,-104,o),
(167,-68,cs),
(167,41,o),
(337,305,o),
(464,675,cs)
);
},
{
closed = 1;
nodes = (
(201,-146,o),
(195,-157,o),
(195,-162,cs),
(195,-179,o),
(249,-141,o),
(289,-91,cs),
(335,-33,o),
(353,17,o),
(353,70,cs),
(353,190,o),
(262,324,o),
(190,589,cs),
(172,652,o),
(163,695,o),
(137,700,cs),
(118,704,o),
(-11,577,o),
(13,572,cs),
(25,569,o),
(38,532,o),
(54,471,cs),
(129,197,o),
(229,14,o),
(229,-81,cs),
(229,-101,o),
(224,-117,o),
(215,-129,cs)
);
}
);
width = 466;
}
);
unicode = 611;
},
{
glyphname = ghook;
lastChange = "2024-05-02 21:11:51 +0000";
layers = (
{
layerId = m01;
shapes = (
{
closed = 1;
nodes = (
(223,578,o),
(232,596,o),
(232,606,cs),
(232,611,o),
(229,614,o),
(224,614,cs),
(209,614,o),
(175,589,o),
(139,541,cs),
(47,419,o),
(10,295,o),
(10,195,cs),
(10,72,o),
(66,-15,o),
(144,-15,cs),
(192,-15,o),
(249,18,o),
(306,95,cs),
(347,151,o),
(370,200,o),
(370,219,cs),
(370,223,o),
(368,226,o),
(365,226,cs),
(358,226,o),
(341,211,o),
(314,175,cs),
(299,154,o),
(281,145,o),
(263,145,cs),
(203,145,o),
(139,242,o),
(139,359,cs),
(139,421,o),
(157,489,o),
(203,551,cs)
);
},
{
closed = 1;
nodes = (
(276,356,o),
(207,256,o),
(224,256,cs),
(227,256,o),
(233,259,o),
(242,266,cs),
(250,273,o),
(266,279,o),
(282,279,cs),
(308,279,o),
(335,265,o),
(335,217,cs),
(335,174,o),
(325,129,o),
(319,85,cs),
(318,75,o),
(318,65,o),
(318,57,cs),
(318,8,o),
(336,-6,o),
(343,-14,cs),
(356,-29,o),
(472,86,o),
(472,110,cs),
(472,115,o),
(458,117,o),
(458,157,cs),
(458,167,o),
(459,178,o),
(461,193,cs),
(465,234,o),
(473,275,o),
(476,317,cs),
(479,373,o),
(437,415,o),
(386,415,cs),
(364,415,o),
(340,407,o),
(318,390,cs)
);
},
{
closed = 1;
nodes = (
(354,470,o),
(481,597,o),
(471,614,cs),
(455,641,o),
(420,701,o),
(358,701,cs),
(328,701,o),
(292,687,o),
(249,647,cs),
(199,601,o),
(151,517,o),
(169,517,cs),
(174,517,o),
(184,523,o),
(199,537,cs),
(214,551,o),
(231,557,o),
(247,557,cs),
(285,557,o),
(322,524,o),
(343,488,cs)
);
},
{
closed = 1;
nodes = (
(281,647,o),
(284,646,o),
(289,646,cs),
(305,646,o),
(342,666,o),
(341,679,cs),
(336,740,o),
(374,779,o),
(375,780,cs),
(400,802,o),
(412,818,o),
(412,826,cs),
(412,830,o),
(409,832,o),
(405,832,cs),
(395,832,o),
(374,822,o),
(347,798,cs),
(279,739,o),
(279,678,o),
(281,651,cs)
);
},
{
closed = 1;
nodes = (
(334,799,o),
(297,744,o),
(297,725,cs),
(297,721,o),
(299,718,o),
(303,718,cs),
(311,718,o),
(327,727,o),
(352,747,cs),
(352,747,o),
(376,767,o),
(407,767,cs),
(433,767,o),
(465,753,o),
(494,701,cs),
(508,675,o),
(666,822,o),
(652,847,cs),
(624,898,o),
(588,920,o),
(547,920,cs),
(498,920,o),
(442,889,o),
(386,843,cs)
);
}
);
width = 533;
}
);
metricLeft = g;
unicode = 608;
},
{
glyphname = glottalstop;
lastChange = "2024-04-15 16:21:13 +0000";
layers = (
{
layerId = m01;
shapes = (
{
closed = 1;
nodes = (
(77,270,o),
(65,251,o),
(65,242,cs),
(65,238,o),
(68,236,o),
(73,236,cs),
(94,236,o),
(154,273,o),
(210,333,cs),
(326,458,o),
(371,555,o),
(371,617,cs),
(371,671,o),
(337,700,o),
(287,700,cs),
(222,700,o),
(128,651,o),
(44,546,cs),
(14,508,o),
(0,473,o),
(0,456,cs),
(0,448,o),
(2,443,o),
(8,443,cs),
(18,443,o),
(35,456,o),
(60,486,cs),
(86,519,o),
(122,536,o),
(152,536,cs),
(184,536,o),
(209,517,o),
(209,480,cs),
(209,442,o),
(181,382,o),
(106,301,cs)
);
},
{
closed = 1;
nodes = (
(207,416,o),
(59,264,o),
(52,223,c),
(51,220,o),
(44,-31,o),
(44,-7,cs),
(44,-12,o),
(47,-14,o),
(51,-14,cs),
(71,-14,o),
(131,33,o),
(134,57,c),
(200,375,ls)
);
}
);
width = 371;
}
);
unicode = 660;
},
{
glyphname = glottalstopreversed;
lastChange = "2024-04-15 16:21:13 +0000";
layers = (
{
layerId = m01;
shapes = (
{
closed = 1;
nodes = (
(341,342,o),
(366,384,o),
(366,401,cs),
(366,405,o),
(364,408,o),
(360,408,cs),
(353,408,o),
(338,399,o),
(315,378,cs),
(284,349,o),
(249,335,o),
(220,335,cs),
(184,335,o),
(158,357,o),
(158,399,cs),
(158,443,o),
(187,509,o),
(263,597,cs),
(291,629,o),
(298,643,o),
(292,643,cs),
(278,643,o),
(206,585,o),
(147,517,cs),
(42,397,o),
(0,306,o),
(0,249,cs),
(0,205,o),
(26,181,o),
(69,181,cs),
(125,181,o),
(208,220,o),
(299,304,cs)
);
},
{
closed = 1;
nodes = (
(365,392,o),
(364,394,o),
(361,394,cs),
(338,394,o),
(232,283,o),
(225,245,cs),
(225,243,o),
(213,-15,o),
(213,10,cs),
(213,5,o),
(216,3,o),
(220,3,cs),
(240,3,o),
(300,50,o),
(303,74,c),
(365,387,l)
);
},
{
closed = 1;
nodes = (
(280,465,o),
(283,462,o),
(287,462,cs),
(316,462,o),
(428,595,o),
(428,630,cs),
(428,672,o),
(415,707,o),
(380,707,cs),
(346,707,o),
(293,676,o),
(213,591,cs),
(164,540,o),
(138,494,o),
(138,475,cs),
(138,470,o),
(140,467,o),
(145,467,cs),
(154,467,o),
(175,481,o),
(207,515,cs),
(209,517,o),
(228,530,o),
(246,530,cs),
(263,530,o),
(280,518,o),
(280,472,cs)
);
}
);
width = 428;
}
);
unicode = 661;
},
{
glyphname = glottalstopsmall;
lastChange = "2024-04-15 14:39:14 +0000";
layers = (
{
layerId = m01;
shapes = (
{
closed = 1;
nodes = (
(90,116,o),
(80,98,o),
(88,98,cs),
(100,98,o),
(157,141,o),
(215,204,cs),
(329,327,o),
(372,411,o),
(372,460,cs),
(372,496,o),
(350,513,o),
(314,513,cs),
(247,513,o),
(135,452,o),
(45,336,cs),
(15,297,o),
(0,262,o),
(0,244,cs),
(0,236,o),
(3,231,o),
(9,231,cs),
(19,231,o),
(36,244,o),
(59,274,cs),
(91,316,o),
(142,340,o),
(178,340,cs),
(202,340,o),
(219,329,o),
(219,305,cs),
(219,276,o),
(196,229,o),
(131,160,cs)
);
},
{
closed = 1;
nodes = (
(203,219,o),
(202,221,o),
(199,221,cs),
(176,221,o),
(70,110,o),
(63,72,c),
(74,2,l),
(73,-4,o),
(76,-7,o),
(81,-7,cs),
(102,-7,o),
(161,40,o),
(164,64,c),
(203,214,l)
);
}
);
width = 372;
}
);
unicode = 578;
},
{
glyphname = h;
kernLeft = KO_h;
kernRight = KO_h;
lastChange = "2024-05-02 21:24:19 +0000";
layers = (
{
anchors = (
{
name = bottom;
pos = (291,0);
},
{
name = center;
pos = (189,564);
},
{
name = top;
pos = (347,707);
}
);
layerId = m01;
shapes = (
{
closed = 1;
nodes = (
(87,437,o),
(40,312,o),
(40,277,cs),
(40,271,o),
(41,267,o),
(44,267,cs),
(477,268,ls),
(494,268,o),
(541,392,o),
(541,428,cs),
(541,434,o),
(540,438,o),
(537,438,cs),
(104,437,ls)
);
},
{
closed = 1;
nodes = (
(205,717,o),
(75,594,o),
(85,575,cs),
(97,553,o),
(101,545,o),
(101,526,cs),
(101,517,o),
(100,506,o),
(98,491,cs),
(87,363,o),
(79,234,o),
(69,106,cs),
(68,81,ls),
(68,34,o),
(82,17,o),
(107,0,cs),
(123,-11,o),
(250,116,o),
(233,128,cs),
(216,140,o),
(209,148,o),
(209,179,cs),
(209,189,o),
(209,200,o),
(211,214,cs),
(220,342,o),
(228,471,o),
(240,599,cs),
(241,622,ls),
(241,657,o),
(231,670,o),
(215,699,cs)
);
},
{
closed = 1;
nodes = (
(473,717,o),
(343,594,o),
(353,575,cs),
(365,553,o),
(368,545,o),
(368,526,cs),
(368,517,o),
(368,506,o),
(366,491,cs),
(337,106,l),
(336,81,ls),
(336,34,o),
(350,17,o),
(375,0,cs),
(391,-11,o),
(518,116,o),
(501,128,cs),
(484,140,o),
(477,148,o),
(477,179,cs),
(477,189,o),
(477,200,o),
(479,214,cs),
(508,599,ls),
(512,653,o),
(502,665,o),
(483,699,cs)
);
}
);
width = 581;
}
);
unicode = 104;
userData = {
KernOnName = h;
};
},
{
glyphname = hbar;
lastChange = "2024-03-25 03:27:00 +0000";
layers = (
{
anchors = (
{
name = top;
pos = (300,650);
}
);
layerId = m01;
shapes = (
{
ref = h;
},
{
closed = 1;
nodes = (
(37,631,o),
(3,542,o),
(3,510,cs),
(3,503,o),
(4,499,o),
(8,499,cs),
(234,501,ls),
(250,501,o),
(285,590,o),
(285,622,cs),
(285,629,o),
(284,633,o),
(280,633,cs),
(54,631,ls)
);
}
);
width = 576;
}
);
unicode = 295;
},
{
glyphname = hhook;
kernRight = KO_h;
lastChange = "2024-05-02 21:13:41 +0000";
layers = (
{
anchors = (
{
name = bottom;
pos = (352,0);
},
{
name = center;
pos = (250,564);
},
{
name = top;
pos = (352,800);
}
);
layerId = m01;
shapes = (
{
closed = 1;
nodes = (
(268,437,o),
(221,312,o),
(221,277,cs),
(221,271,o),
(222,267,o),
(225,267,cs),
(369,268,o),
(514,268,o),
(658,268,cs),
(675,268,o),
(722,392,o),
(722,428,cs),
(722,434,o),
(721,438,o),
(718,438,cs),
(574,437,o),
(429,437,o),
(285,437,cs)
);
},
{
closed = 1;
nodes = (
(304,-11,o),
(431,116,o),
(414,128,cs),
(397,140,o),
(390,150,o),
(390,180,cs),
(390,189,o),
(390,200,o),
(392,214,cs),
(402,325,o),
(411,437,o),
(421,548,cs),
(422,562,o),
(425,584,o),
(425,608,cs),
(425,654,o),
(414,707,o),
(364,720,cs),
(354,723,o),
(343,724,o),
(329,724,cs),
(263,724,o),
(151,685,o),
(26,507,cs),
(20,498,o),
(17,492,o),
(17,489,cs),
(17,486,o),
(18,485,o),
(21,485,cs),
(36,485,o),
(86,521,o),
(110,555,cs),
(122,572,o),
(136,590,o),
(179,590,cs),
(198,590,o),
(223,587,o),
(256,578,cs),
(281,571,o),
(288,549,o),
(288,522,cs),
(288,496,o),
(282,465,o),
(279,440,cs),
(270,329,o),
(260,217,o),
(250,106,cs),
(249,95,o),
(249,86,o),
(249,77,cs),
(249,31,o),
(263,17,o),
(288,0,cs)
);
},
{
closed = 1;
nodes = (
(654,726,o),
(524,603,o),
(534,584,cs),
(546,563,o),
(549,553,o),
(549,534,cs),
(549,525,o),
(549,515,o),
(547,500,cs),
(537,369,o),
(528,237,o),
(518,106,cs),
(518,97,o),
(517,88,o),
(517,81,cs),
(517,34,o),
(531,17,o),
(556,0,cs),
(572,-11,o),
(699,116,o),
(682,128,cs),
(664,140,o),
(658,148,o),
(658,179,cs),
(658,189,o),
(658,200,o),
(660,214,cs),
(670,345,o),
(679,477,o),
(689,608,cs),
(693,662,o),
(683,673,o),
(664,708,cs)
);
},
{
closed = 1;
nodes = (
(120,583,o),
(119,585,o),
(115,585,cs),
(99,585,o),
(31,529,o),
(20,502,cs),
(13,484,o),
(10,467,o),
(10,451,cs),
(10,398,o),
(43,358,o),
(85,358,cs),
(98,358,o),
(113,362,o),
(128,372,cs),
(161,393,o),
(213,478,o),
(213,504,cs),
(213,508,o),
(211,511,o),
(207,511,cs),
(204,511,o),
(200,510,o),
(194,506,cs),
(183,499,o),
(169,495,o),
(155,495,cs),
(132,495,o),
(110,508,o),
(110,539,cs),
(110,549,o),
(112,562,o),
(118,576,cs)
);
}
);
width = 762;
}
);
metricRight = h;
unicode = 614;
},
{
glyphname = i;
kernLeft = KO_i;
kernRight = KO_i;
lastChange = "2024-05-02 21:24:19 +0000";
layers = (
{
anchors = (
{
name = bottom;
pos = (137,0);
},
{
name = center;
pos = (135,334);
},
{
name = ogonek;
pos = (191,0);
},
{
name = top;
pos = (164,711);
}
);
layerId = m01;
shapes = (
{
closed = 1;
nodes = (
(187,717,o),
(57,594,o),
(67,575,cs),
(78,554,o),
(83,544,o),
(83,522,cs),
(80,481,l),
(51,106,l),
(50,80,ls),
(50,34,o),
(64,17,o),
(89,0,cs),
(105,-11,o),
(232,116,o),
(215,128,cs),
(198,140,o),
(191,148,o),
(191,179,cs),
(191,188,o),
(191,200,o),
(193,214,cs),
(222,589,l),
(223,618,ls),
(223,658,o),
(213,670,o),
(197,699,cs)
);
}
);
width = 273;
}
);
unicode = 105;
userData = {
KernOnName = i;
};
},
{
glyphname = "iota-latin";
lastChange = "2024-04-15 18:13:15 +0000";
layers = (
{
anchors = (
{
name = bottom;
pos = (108,0);
},
{
name = center;
pos = (106,334);
},
{
name = ogonek;
pos = (162,0);
},
{
name = top;
pos = (135,711);
}
);
background = {
shapes = (
{
closed = 0;
nodes = (
(143,645,l,{
"Letterink-NibData" = {
AngleInDegrees = "-1";
MainAxisWidth = "155";
MinorAxisWidth = "15";
ValidForParentMainAxisWidth = "30";
ValidForParentMinorAxisWidth = "15";
};
}),
(163,650,o),
(174,613,o),
(169,544,cs,{
"Letterink-NibData" = {
AngleInDegrees = "-6";
MainAxisWidth = "155";
MinorAxisWidth = "15";
ValidForParentMainAxisWidth = "30";
ValidForParentMinorAxisWidth = "15";
};
}),
(140,162,ls,{
"Letterink-NibData" = {
AngleInDegrees = "-6";
MainAxisWidth = "155";
MinorAxisWidth = "15";
ValidForParentMainAxisWidth = "30";
ValidForParentMinorAxisWidth = "15";
};
}),
(135,97,o),
(141,61,o),
(170,66,c,{
"Letterink-NibData" = {
MainAxisWidth = "155";
MinorAxisWidth = "15";
ValidForParentMainAxisWidth = "30";
ValidForParentMinorAxisWidth = "15";
};
})
);
},
{
closed = 0;
nodes = (
(238,65,l,{
"Letterink-NibData" = {
AngleInDegrees = "6";
MainAxisWidth = "160";
MinorAxisWidth = "34";
ValidForParentMainAxisWidth = "30";
ValidForParentMinorAxisWidth = "15";
};
}),
(115,78,o),
(89,83,o),
(73,70,c,{
"Letterink-NibData" = {
AngleInDegrees = "25";
MainAxisWidth = "150";
MinorAxisWidth = "15";
ValidForParentMainAxisWidth = "30";
ValidForParentMinorAxisWidth = "15";
};
})
);
}
);
};
layerId = m01;
shapes = (
{
closed = 1;
nodes = (
(158,717,o),
(28,594,o),
(38,575,cs),
(49,554,o),
(54,544,o),
(54,522,cs),
(51,481,l),
(21,106,ls),
(20,96,o),
(20,86,o),
(20,78,cs),
(20,16,o),
(40,-12,o),
(78,-12,cs),
(99,-12,o),
(124,-3,o),
(153,12,cs),
(196,35,o),
(280,131,o),
(259,131,cs),
(256,131,o),
(253,130,o),
(247,127,cs),
(226,116,o),
(208,109,o),
(195,109,cs),
(172,109,o),
(160,127,o),
(160,177,cs),
(162,214,l),
(193,589,l),
(194,618,ls),
(194,658,o),
(184,670,o),
(168,699,cs)
);
}
);
width = 292;
}
);
unicode = 617;
},
{
glyphname = j;
kernLeft = KO_j;
kernRight = KO_j;
lastChange = "2024-05-02 21:24:19 +0000";
layers = (
{
layerId = m01;
shapes = (
{
closed = 1;
nodes = (
(126,262,o),
(127,265,o),
(127,267,cs),
(127,269,o),
(126,270,o),
(124,270,cs),
(106,270,o),
(16,190,o),
(-2,153,cs),
(-11,135,o),
(-15,117,o),
(-15,99,cs),
(-15,38,o),
(34,-16,o),
(100,-16,cs),
(146,-16,o),
(201,10,o),
(254,77,cs),
(279,109,o),
(293,148,o),
(293,170,cs),
(293,180,o),
(290,186,o),
(284,186,cs),
(278,186,o),
(268,179,o),
(254,161,cs),
(235,136,o),
(208,125,o),
(182,125,cs),
(144,125,o),
(108,151,o),
(108,198,cs),
(108,215,o),
(113,235,o),
(124,257,cs)
);
},
{
closed = 1;
nodes = (
(412,687,o),
(413,691,o),
(413,694,cs),
(413,699,o),
(410,701,o),
(405,701,cs),
(379,701,o),
(293,638,o),
(274,595,cs),
(263,570,o),
(263,564,o),
(257,506,cs),
(246,379,o),
(239,253,o),
(229,126,cs),
(227,89,o),
(231,77,o),
(238,77,cs),
(252,77,o),
(279,132,o),
(278,131,c),
(233,103,o),
(150,7,o),
(169,7,cs),
(172,7,o),
(178,10,o),
(186,15,cs),
(271,67,o),
(368,203,o),
(371,234,cs),
(380,361,o),
(387,488,o),
(399,614,cs),
(404,674,o),
(405,672,o),
(410,683,cs)
);
},
{
closed = 1;
nodes = (
(334,594,o),
(402,692,o),
(383,692,cs),
(381,692,o),
(378,691,o),
(373,688,cs),
(342,669,o),
(312,662,o),
(285,662,cs),
(243,662,o),
(208,680,o),
(187,700,cs),
(172,714,o),
(71,566,o),
(85,552,cs),
(101,536,o),
(126,527,o),
(158,527,cs),
(197,527,o),
(246,541,o),
(301,574,cs)
);
}
);
width = 443;
}
);
unicode = 106;
userData = {
KernOnName = j;
};
},
{
glyphname = jdotless;
lastChange = "2024-04-15 14:39:14 +0000";
layers = (
{
anchors = (
{
name = bottom;
pos = (150,-14);
},
{
name = top;
pos = (342,710);
}
);
layerId = m01;
shapes = (
{
closed = 1;
nodes = (
(126,262,o),
(127,265,o),
(127,267,cs),
(127,269,o),
(126,270,o),
(124,270,cs),
(106,270,o),
(16,190,o),
(-2,153,cs),
(-11,135,o),
(-15,117,o),
(-15,99,cs),
(-15,38,o),
(34,-16,o),
(100,-16,cs),
(146,-16,o),
(201,10,o),
(254,77,cs),
(279,109,o),
(293,148,o),
(293,170,cs),
(293,180,o),
(290,186,o),
(284,186,cs),
(278,186,o),
(268,179,o),
(254,161,cs),
(235,136,o),
(208,125,o),
(182,125,cs),
(144,125,o),
(108,151,o),
(108,198,cs),
(108,215,o),
(113,235,o),
(124,257,cs)
);
},
{
closed = 1;
nodes = (
(412,689,o),
(413,693,o),
(413,696,cs),
(413,701,o),
(410,703,o),
(405,703,cs),
(379,703,o),
(293,640,o),
(274,597,cs),
(263,572,o),
(263,566,o),
(257,506,cs),
(229,126,ls),
(227,89,o),
(231,77,o),
(238,77,cs),
(252,77,o),
(279,132,o),
(278,131,c),
(233,103,o),
(150,7,o),
(169,7,cs),
(172,7,o),
(178,10,o),
(186,15,cs),
(271,67,o),
(368,203,o),
(371,234,cs),
(380,361,o),
(388,488,o),
(399,614,cs),
(404,676,o),
(405,674,o),
(410,685,cs)
);
}
);
width = 443;
}
);
unicode = 567;
},
{
glyphname = k;
kernLeft = KO_k;
kernRight = KO_k;
lastChange = "2024-05-02 21:24:19 +0000";
layers = (
{
anchors = (
{
name = bottom;
pos = (236,0);
},
{
name = top;
pos = (276,711);
}
);
guides = (
{
pos = (169,711);
}
);
layerId = m01;
shapes = (
{
closed = 1;
nodes = (
(157,721,o),
(26,591,o),
(42,578,c),
(47,575,o),
(65,551,o),
(61,496,cs),
(32,118,l),
(30,105,o),
(30,93,o),
(30,82,cs),
(30,38,o),
(40,17,o),
(69,0,cs),
(89,-11,o),
(220,140,o),
(199,152,cs),
(187,158,o),
(176,167,o),
(176,208,cs),
(176,230,l),
(205,608,ls),
(211,677,o),
(183,701,o),
(172,710,cs)
);
},
{
closed = 1;
nodes = (
(524,689,o),
(527,695,o),
(527,699,cs),
(527,707,o),
(519,710,o),
(506,710,cs),
(474,710,o),
(415,689,o),
(389,659,cs),
(368,636,o),
(105,291,o),
(102,288,cs),
(98,283,o),
(96,279,o),
(96,276,cs),
(96,271,o),
(101,269,o),
(109,269,cs),
(138,269,o),
(212,300,o),
(236,330,cs),
(248,345,o),
(495,655,o),
(517,681,cs)
);
},
{
closed = 1;
nodes = (
(104,309,o),
(82,249,o),
(82,222,cs),
(82,213,o),
(85,207,o),
(90,207,cs),
(95,207,o),
(102,211,o),
(111,222,cs),
(154,268,o),
(201,289,o),
(241,289,cs),
(305,289,o),
(354,238,o),
(354,154,cs),
(354,121,o),
(347,82,o),
(329,40,cs),
(324,29,o),
(323,21,o),
(323,14,cs),
(323,4,o),
(328,-1,o),
(337,-1,cs),
(371,-1,o),
(451,59,o),
(475,116,cs),
(498,170,o),
(507,217,o),
(507,258,cs),
(507,374,o),
(429,436,o),
(334,436,cs),
(267,436,o),
(191,404,o),
(131,338,cs)
);
}
);
width = 562;
}
);
unicode = 107;
userData = {
KernOnName = k;
};
},
{
glyphname = khook;
lastChange = "2024-05-02 19:16:07 +0000";
layers = (
{
anchors = (
{
name = bottom;
pos = (236,0);
},
{
name = top;
pos = (276,711);
}
);
background = {
shapes = (
{
closed = 0;
nodes = (
(420,605,ls,{
"Letterink-NibData" = {
MainAxisWidth = "140";
MinorAxisWidth = "15";
ValidForParentMainAxisWidth = "30";
ValidForParentMinorAxisWidth = "15";
};
}),
(435,679,o),
(377,754,o),
(309,754,cs,{
"Letterink-NibData" = {
MainAxisWidth = "140";
MinorAxisWidth = "15";
ValidForParentMainAxisWidth = "30";
ValidForParentMinorAxisWidth = "15";
};
})
);
}
);
};
layerId = m01;
shapes = (
{
closed = 1;
nodes = (
(132.141,720.886,o),
(0.55,590.595,o),
(16.788,578.417,cs),
(21.547,574.848,o),
(39.812,550.841,o),
(35.522,496.328,cs),
(25.61,370.347,o),
(16.202,244.327,o),
(6.522,118.328,cs),
(5,105,o),
(5,93,o),
(5,82,cs),
(5,38,o),
(15,17,o),
(44.107,0.227,cs),
(64.29,-11.076,o),
(195.405,139.726,o),
(173.893,151.773,cs),
(162,158,o),
(151,167,o),
(151,208,cs),
(151,214,o),
(151,221,o),
(151.478,229.672,cs),
(161.157,355.671,o),
(170.565,481.691,o),
(180.478,607.672,cs),
(185.947,677.178,o),
(158.453,701.152,o),
(147.212,709.583,cs)
);
},
{
closed = 1;
nodes = (
(499,689,o),
(502,695,o),
(502,699,cs),
(502,707,o),
(494,710,o),
(481,710,cs),
(449,710,o),
(390,689,o),
(363.631,659.457,cs),
(343.004,636.08,o),
(79.872,291.332,o),
(77.329,288.079,cs),
(73,283,o),
(71,279,o),
(71,276,cs),
(71,271,o),
(76,269,o),
(84,269,cs),
(113,269,o),
(187,300,o),
(210.671,329.921,cs),
(222.579,345.148,o),
(469.868,655.041,o),
(492.369,680.543,cs)
);
},
{
closed = 1;
nodes = (
(79,309,o),
(57,249,o),
(57,222,cs),
(57,213,o),
(60,207,o),
(65,207,cs),
(70,207,o),
(77,211,o),
(86.417,221.526,cs),
(129,268,o),
(176,289,o),
(216,289,cs),
(280,289,o),
(329,238,o),
(329,154,cs),
(329,121,o),
(322,82,o),
(303.836,39.629,cs),
(299,29,o),
(298,21,o),
(298,14,cs),
(298,4,o),
(303,-1,o),
(312,-1,cs),
(346,-1,o),
(426,59,o),
(450.164,116.371,cs),
(473,170,o),
(482,217,o),
(482,258,cs),
(482,374,o),
(404,436,o),
(309,436,cs),
(242,436,o),
(166,404,o),
(105.583,338.474,cs)
);
},
{
closed = 1;
nodes = (
(347,638,o),
(310,589,o),
(310,571,cs),
(310,567,o),
(312,565,o),
(316,565,cs),
(323,565,o),
(336,571,o),
(355.802,585.076,cs),
(362,589,o),
(415,578,o),
(415,535,cs),
(415,523,o),
(411,509,o),
(401.448,492.548,cs),
(397,485,o),
(395,480,o),
(395,476,cs),
(395,472,o),
(398,470,o),
(404,470,cs),
(430,470,o),
(510,522,o),
(534.635,565.086,cs),
(549,591,o),
(556,616,o),
(556,639,cs),
(556,680,o),
(533.008,710,o),
(491,710,cs),
(466,710,o),
(434,699,o),
(396.281,672.558,cs)
);
}
);
width = 547;
}
);
unicode = 409;
},
{
glyphname = l;
kernLeft = KO_l;
kernRight = KO_l;
lastChange = "2024-05-02 21:24:19 +0000";
layers = (
{
anchors = (
{
name = bottom;
pos = (199,0);
},
{
name = center;
pos = (129,350);
},
{
name = top;
pos = (154,712);
},
{
name = topright;
pos = (286,770);
}
);
layerId = m01;
shapes = (
{
closed = 1;
nodes = (
(184,721,o),
(53,591,o),
(69,578,cs),
(73,575,o),
(86,557,o),
(86,518,cs),
(85,496,l),
(43,118,ls),
(41,103,o),
(40,88,o),
(40,75,cs),
(40,31,o),
(50,0,o),
(79,0,cs),
(105,0,o),
(236,152,o),
(203,152,cs),
(189,152,o),
(183,157,o),
(183,178,cs),
(183,190,o),
(185,206,o),
(187,230,cs),
(229,608,ls),
(230,616,o),
(231,624,o),
(231,632,cs),
(231,683,o),
(209,702,o),
(199,710,cs)
);
},
{
closed = 1;
nodes = (
(154,129,o),
(92,24,o),
(109,24,cs),
(111,24,o),
(115,26,o),
(121,30,cs),
(143,48,o),
(169,55,o),
(193,55,cs),
(246,55,o),
(296,24,o),
(306,1,cs),
(315,-22,o),
(417,127,o),
(408,147,cs),
(400,167,o),
(355,196,o),
(298,196,cs),
(264,196,o),
(225,185,o),
(187,156,cs)
);
}
);
width = 449;
}
);
unicode = 108;
userData = {
KernOnName = l;
};
},
{
glyphname = m;
kernLeft = KO_m;
kernRight = KO_m;
lastChange = "2024-05-03 14:34:09 +0000";
layers = (
{
anchors = (
{
name = bottom;
pos = (275,0);
},
{
name = top;
pos = (384,710);
}
);
layerId = m01;
shapes = (
{
closed = 1;
nodes = (
(233,720,o),
(102,591,o),
(118,579,cs),
(172,540,o),
(226,181,o),
(233,3,cs),
(234,-26,o),
(366,103,o),
(365,129,cs),
(358,309,o),
(306,666,o),
(248,709,cs)
);
},
{
closed = 1;
nodes = (
(-4,18,o),
(-5,14,o),
(-5,11,cs),
(-5,3,o),
(-1,0,o),
(6,0,cs),
(30,0,o),
(84,43,o),
(93,78,cs),
(167,354,o),
(189,633,o),
(189,634,cs),
(190,640,o),
(187,642,o),
(183,642,cs),
(163,642,o),
(100,583,o),
(97,556,cs),
(96,545,o),
(70,293,o),
(-3,22,cs)
);
},
{
closed = 1;
nodes = (
(232,102,o),
(231,98,o),
(231,95,cs),
(231,91,o),
(233,89,o),
(238,89,cs),
(260,89,o),
(331,138,o),
(349,173,cs),
(464,397,o),
(520,636,o),
(521,639,cs),
(524,648,o),
(521,652,o),
(516,652,cs),
(493,652,o),
(420,588,o),
(411,551,cs),
(408,542,o),
(348,327,o),
(235,107,cs)
);
},
{
closed = 1;
nodes = (
(542,707,o),
(410,575,o),
(438,575,cs),
(451,575,o),
(452,516,o),
(452,436,cs),
(452,316,ls),
(452,190,o),
(455,55,o),
(479,1,cs),
(489,-19,o),
(619,111,o),
(611,129,cs),
(587,181,o),
(585,305,o),
(585,425,cs),
(585,519,ls),
(585,624,o),
(583,707,o),
(564,707,cs)
);
}
);
width = 661;
}
);
unicode = 109;
userData = {
KernOnName = m;
};
},
{
glyphname = n;
kernLeft = KO_n;
kernRight = KO_n;
lastChange = "2024-05-02 21:24:19 +0000";
layers = (
{
anchors = (
{
name = bottom;
pos = (283,0);
},
{
name = top;
pos = (310,710);
}
);
guides = (
{
pos = (289,0);
},
{
pos = (346,715);
}
);
layerId = m01;
shapes = (
{
closed = 1;
nodes = (
(180,725,o),
(59,606,o),
(69,588,cs),
(160,423,o),
(281,94,o),
(387,0,cs),
(401,-13,o),
(522,107,o),
(507,120,cs),
(493,133,o),
(487,140,o),
(487,178,cs),
(487,230,o),
(498,339,o),
(519,598,cs),
(520,609,o),
(520,618,o),
(520,626,cs),
(520,666,o),
(510,679,o),
(495,707,cs),
(485,726,o),
(361,609,o),
(371,591,cs),
(383,569,o),
(388,560,o),
(388,537,cs),
(388,527,o),
(387,514,o),
(385,496,cs),
(367,265,o),
(357,150,o),
(357,88,cs),
(357,28,o),
(367,18,o),
(387,0,cs),
(401,-13,o),
(522,107,o),
(507,120,cs),
(404,212,o),
(282,541,o),
(191,706,cs)
);
},
{
closed = 1;
nodes = (
(40,5,o),
(45,1,o),
(52,1,cs),
(75,1,o),
(124,40,o),
(131,72,cs),
(142,126,o),
(182,594,o),
(182,595,cs),
(183,607,o),
(178,612,o),
(170,612,cs),
(146,612,o),
(95,569,o),
(92,537,cs),
(90,520,o),
(47,4,o),
(41,4,cs),
(40,4,o),
(40,7,o),
(40,13,cs)
);
}
);
width = 570;
}
);
unicode = 110;
userData = {
KernOnName = n;
};
},
{
glyphname = nhookleft;
lastChange = "2024-05-02 21:12:12 +0000";
layers = (
{
anchors = (
{
name = bottom;
pos = (231,0);
},
{
name = top;
pos = (258,710);
}
);
layerId = m01;
shapes = (
{
closed = 1;
nodes = (
(213,725,o),
(92,606,o),
(102,588,cs),
(193,423,o),
(314,94,o),
(420,0,cs),
(434,-13,o),
(555,107,o),
(540,120,cs),
(526,133,o),
(520,140,o),
(520,178,cs),
(520,230,o),
(531,339,o),
(552,598,cs),
(553,609,o),
(553,618,o),
(553,626,cs),
(553,666,o),
(543,679,o),
(528,707,cs),
(518,726,o),
(394,609,o),
(404,591,cs),
(416,569,o),
(421,560,o),
(421,537,cs),
(421,527,o),
(420,514,o),
(418,496,cs),
(400,265,o),
(390,150,o),
(390,88,cs),
(390,28,o),
(400,18,o),
(420,0,cs),
(434,-13,o),
(555,107,o),
(540,120,cs),
(437,212,o),
(315,541,o),
(224,706,cs)
);
},
{
closed = 1;
nodes = (
(38,-191,o),
(43,-197,o),
(52,-197,cs),
(75,-197,o),
(123,-158,o),
(130,-126,cs),
(141,-73,o),
(215,593,o),
(215,595,cs),
(217,607,o),
(211,612,o),
(203,612,cs),
(179,612,o),
(128,570,o),
(125,537,cs),
(121,503,o),
(56,-106,o),
(41,-177,cs)
);
},
{
closed = 1;
nodes = (
(68,-214,o),
(131,-142,o),
(131,-122,cs),
(131,-118,o),
(129,-116,o),
(125,-116,cs),
(121,-116,o),
(114,-119,o),
(105,-123,cs),
(96,-128,o),
(88,-129,o),
(81,-129,cs),
(46,-129,o),
(22,-89,o),
(22,-53,cs),
(22,-46,o),
(23,-38,o),
(25,-31,cs),
(29,-21,o),
(26,-16,o),
(19,-16,cs),
(-10,-16,o),
(-101,-81,o),
(-115,-120,cs),
(-119,-129,o),
(-120,-141,o),
(-120,-153,cs),
(-120,-198,o),
(-96,-254,o),
(-39,-254,cs),
(-22,-254,o),
(-2,-249,o),
(21,-237,cs)
);
}
);
width = 603;
}
);
metricRight = n;
unicode = 626;
},
{
glyphname = eng;
lastChange = "2024-04-15 17:08:39 +0000";
layers = (
{
anchors = (
{
name = bottom;
pos = (207,-213);
},
{
name = bottomleft;
pos = (28,-183);
},
{
name = center;
pos = (225,129);
},
{
name = ogonek;
pos = (183,500);
},
{
name = top;
pos = (249,500);
}
);
associatedMasterId = m01;
background = {
anchors = (
{
name = bottom;
pos = (257,0);
},
{
name = top;
pos = (284,710);
}
);
shapes = (
{
closed = 1;
nodes = (
(57,438,o),
(10,313,o),
(10,278,cs),
(10,272,o),
(11,268,o),
(14,268,cs),
(447,269,ls),
(464,269,o),
(511,393,o),
(511,429,cs),
(511,435,o),
(510,439,o),
(507,439,cs),
(74,438,ls)
);
},
{
closed = 1;
nodes = (
(138,706,o),
(8,575,o),
(47,584,cs),
(54,586,o),
(63,571,o),
(63,526,cs),
(63,515,o),
(63,503,o),
(62,488,cs),
(33,106,ls),
(27,39,o),
(51,-4,o),
(74,0,cs),
(104,5,o),
(231,138,o),
(196,132,cs),
(177,129,o),
(172,136,o),
(172,153,cs),
(172,168,o),
(175,189,o),
(177,218,cs),
(206,600,ls),
(211,660,o),
(200,721,o),
(169,714,cs)
);
},
{
closed = 1;
nodes = (
(407,706,o),
(277,575,o),
(316,584,cs),
(323,586,o),
(332,571,o),
(332,526,cs),
(332,515,o),
(332,503,o),
(331,488,cs),
(302,106,ls),
(296,39,o),
(320,-4,o),
(343,0,cs),
(373,5,o),
(500,138,o),
(465,132,cs),
(446,129,o),
(441,136,o),
(441,153,cs),
(441,168,o),
(444,189,o),
(446,218,cs),
(475,600,ls),
(480,660,o),
(469,721,o),
(438,714,cs)
);
}
);
};
layerId = "E712FDBB-8EBD-4EC2-88FA-06E62C6BC520";
name = "15 Apr 24 at 15:31";
shapes = (
{
closed = 1;
nodes = (
(253,-139,o),
(251,-146,o),
(251,-149,cs),
(251,-152,o),
(252,-153,o),
(254,-153,cs),
(272,-153,o),
(354,-79,o),
(381,-32,cs),
(466,112,o),
(434,194,o),
(469,513,cs),
(471,528,o),
(472,542,o),
(472,556,cs),
(472,645,o),
(436,697,o),
(379,697,cs),
(311,697,o),
(214,623,o),
(112,447,cs),
(89,409,o),
(78,376,o),
(78,361,cs),
(78,355,o),
(80,352,o),
(83,352,cs),
(89,352,o),
(102,365,o),
(120,397,cs),
(178,496,o),
(240,553,o),
(282,553,cs),
(315,553,o),
(336,519,o),
(336,446,cs),
(336,429,o),
(335,410,o),
(333,389,cs),
(297,74,o),
(316,-32,o),
(259,-130,cs)
);
},
{
closed = 1;
nodes = (
(245,-188,o),
(352,-75,o),
(326,-75,cs),
(322,-75,l),
(311,-78,o),
(300,-80,o),
(290,-80,cs),
(246,-80,o),
(219,-51,o),
(212,2,cs),
(208,29,o),
(86,-88,o),
(90,-114,cs),
(97,-167,o),
(125,-202,o),
(176,-202,cs),
(187,-202,o),
(200,-200,o),
(214,-197,cs)
);
},
{
closed = 1;
nodes = (
(75,-13,o),
(195,107,o),
(180,120,cs),
(166,132,o),
(159,139,o),
(159,177,cs),
(159,229,o),
(171,339,o),
(192,598,cs),
(193,609,o),
(193,618,o),
(193,626,cs),
(193,666,o),
(183,679,o),
(168,707,cs),
(158,726,o),
(34,609,o),
(44,591,cs),
(56,569,o),
(61,560,o),
(61,537,cs),
(61,527,o),
(60,514,o),
(58,496,cs),
(40,263,o),
(30,148,o),
(30,86,cs),
(30,27,o),
(39,17,o),
(60,0,cs)
);
}
);
width = 512;
},
{
background = {
anchors = (
{
name = bottom;
pos = (257,0);
},
{
name = top;
pos = (284,710);
}
);
shapes = (
{
closed = 1;
nodes = (
(57,438,o),
(10,313,o),
(10,278,cs),
(10,272,o),
(11,268,o),
(14,268,cs),
(447,269,ls),
(464,269,o),
(511,393,o),
(511,429,cs),
(511,435,o),
(510,439,o),
(507,439,cs),
(74,438,ls)
);
},
{
closed = 1;
nodes = (
(138,706,o),
(8,575,o),
(47,584,cs),
(54,586,o),
(63,571,o),
(63,526,cs),
(63,515,o),
(63,503,o),
(62,488,cs),
(33,106,ls),
(27,39,o),
(51,-4,o),
(74,0,cs),
(104,5,o),
(231,138,o),
(196,132,cs),
(177,129,o),
(172,136,o),
(172,153,cs),
(172,168,o),
(175,189,o),
(177,218,cs),
(206,600,ls),
(211,660,o),
(200,721,o),
(169,714,cs)
);
},
{
closed = 1;
nodes = (
(407,706,o),
(277,575,o),
(316,584,cs),
(323,586,o),
(332,571,o),
(332,526,cs),
(332,515,o),
(332,503,o),
(331,488,cs),
(302,106,ls),
(296,39,o),
(320,-4,o),
(343,0,cs),
(373,5,o),
(500,138,o),
(465,132,cs),
(446,129,o),
(441,136,o),
(441,153,cs),
(441,168,o),
(444,189,o),
(446,218,cs),
(475,600,ls),
(480,660,o),
(469,721,o),
(438,714,cs)
);
}
);
};
layerId = m01;
name = Bold;
shapes = (
{
closed = 1;
nodes = (
(253,-139,o),
(251,-146,o),
(251,-149,cs),
(251,-152,o),
(252,-153,o),
(254,-153,cs),
(272,-153,o),
(354,-79,o),
(381,-32,cs),
(462,105,o),
(472,489,o),
(472,556,cs),
(472,643,o),
(436,697,o),
(379,697,cs),
(304,697,o),
(201,601,o),
(112,447,cs),
(89,409,o),
(78,376,o),
(78,361,cs),
(78,355,o),
(80,352,o),
(83,352,cs),
(89,352,o),
(102,365,o),
(120,397,cs),
(182,501,o),
(235,553,o),
(282,553,cs),
(312,553,o),
(327,518,o),
(327,446,cs),
(327,390,o),
(309,-43,o),
(259,-130,cs)
);
},
{
closed = 1;
nodes = (
(245,-188,o),
(352,-75,o),
(326,-75,cs),
(322,-75,l),
(311,-78,o),
(300,-80,o),
(290,-80,cs),
(246,-80,o),
(219,-51,o),
(212,2,cs),
(208,29,o),
(86,-88,o),
(90,-114,cs),
(97,-167,o),
(125,-202,o),
(176,-202,cs),
(187,-202,o),
(200,-200,o),
(214,-197,cs)
);
},
{
closed = 1;
nodes = (
(79,-13,o),
(210,107,o),
(195,120,cs),
(181,132,o),
(170,139,o),
(173,177,cs),
(177,229,o),
(186,339,o),
(206,598,cs),
(207,609,o),
(207,618,o),
(207,626,cs),
(207,666,o),
(200,704,o),
(177,713,cs),
(157,721,o),
(34,609,o),
(44,591,cs),
(56,569,o),
(61,560,o),
(61,537,cs),
(61,527,o),
(60,514,o),
(58,496,cs),
(40,263,o),
(30,148,o),
(30,86,cs),
(30,27,o),
(43,17,o),
(64,0,cs)
);
}
);
width = 507;
}
);
unicode = 331;
},
{
glyphname = o;
kernLeft = KO_o;
kernRight = KO_o;
lastChange = "2024-05-02 21:31:31 +0000";
layers = (
{
anchors = (
{
name = bottom;
pos = (163,0);
},
{
name = center;
pos = (233,250);
},
{
name = ogonek;
pos = (320,0);
},
{
name = top;
pos = (308,712);
},
{
name = topright;
pos = (364,683);
}
);
guides = (
{
pos = (328,911);
}
);
layerId = m01;
shapes = (
{
closed = 1;
nodes = (
(223,580,o),
(229,595,o),
(229,603,cs),
(229,609,o),
(226,612,o),
(221,612,cs),
(202,612,o),
(157,579,o),
(123,526,cs),
(42,403,o),
(10,290,o),
(10,201,cs),
(10,77,o),
(72,-2,o),
(154,-2,cs),
(187,-2,o),
(223,11,o),
(260,38,cs),
(303,72,o),
(362,176,o),
(362,207,cs),
(362,212,o),
(360,215,o),
(356,215,cs),
(352,215,o),
(345,212,o),
(336,206,cs),
(306,182,o),
(278,172,o),
(252,172,cs),
(185,172,o),
(139,243,o),
(139,340,cs),
(139,406,o),
(160,484,o),
(209,560,cs)
);
},
{
closed = 1;
nodes = (
(263,140,o),
(253,118,o),
(253,105,cs),
(253,97,o),
(257,93,o),
(264,93,cs),
(281,93,o),
(314,116,o),
(351,165,cs),
(441,285,o),
(476,394,o),
(476,482,cs),
(476,615,o),
(399,700,o),
(320,700,cs),
(299,700,o),
(277,693,o),
(257,680,cs),
(204,645,o),
(109,513,o),
(136,513,cs),
(139,513,o),
(146,516,o),
(155,522,cs),
(171,532,o),
(187,537,o),
(201,537,cs),
(274,537,o),
(328,424,o),
(328,314,cs),
(328,261,o),
(316,209,o),
(287,171,cs)
);
}
);
width = 496;
}
);
unicode = 111;
userData = {
KernOnName = o;
};
},
{
glyphname = oslash;
kernLeft = KO_ograve;
kernRight = KO_o;
lastChange = "2024-04-15 16:21:13 +0000";
layers = (
{
anchors = (
{
name = top;
pos = (355,820);
}
);
layerId = m01;
shapes = (
{
pos = (3,0);
ref = o;
},
{
closed = 1;
nodes = (
(105,-58,o),
(104,-63,o),
(104,-67,cs),
(104,-75,o),
(109,-78,o),
(117,-78,cs),
(139,-78,o),
(182,-52,o),
(196,-21,cs),
(207,2,o),
(214,34,o),
(226,84,cs),
(229,98,o),
(229,112,o),
(229,126,cs),
(229,136,o),
(229,146,o),
(231,155,cs),
(264,298,o),
(305,507,o),
(329,648,cs),
(331,660,o),
(340,666,o),
(342,674,cs),
(355,747,o),
(363,771,o),
(363,773,cs),
(364,777,o),
(365,780,o),
(365,783,cs),
(365,792,o),
(360,796,o),
(352,796,cs),
(330,796,o),
(285,762,o),
(275,727,c),
(275,726,o),
(265,692,o),
(252,622,cs),
(251,618,o),
(251,613,o),
(251,609,cs),
(252,586,l),
(251,574,l),
(227,432,o),
(186,225,o),
(153,81,cs),
(149,63,o),
(135,51,o),
(132,38,cs),
(121,-9,o),
(109,-48,o),
(108,-51,cs)
);
}
);
width = 499;
}
);
unicode = 248;
},
{
glyphname = oe;
kernLeft = KO_oacute;
lastChange = "2024-04-15 16:21:13 +0000";
layers = (
{
layerId = m01;
shapes = (
{
closed = 1;
nodes = (
(223,591,o),
(228,603,o),
(228,611,cs),
(228,617,o),
(225,620,o),
(219,620,cs),
(200,620,o),
(152,584,o),
(119,530,cs),
(41,404,o),
(10,289,o),
(10,196,cs),
(10,67,o),
(71,-17,o),
(153,-17,cs),
(186,-17,o),
(223,-3,o),
(260,27,cs),
(305,63,o),
(361,164,o),
(361,195,cs),
(361,200,o),
(359,203,o),
(355,203,cs),
(350,203,o),
(343,199,o),
(334,191,cs),
(304,167,o),
(276,157,o),
(251,157,cs),
(185,157,o),
(138,230,o),
(138,334,cs),
(138,404,o),
(159,488,o),
(211,572,cs)
);
},
{
closed = 1;
nodes = (
(261,125,o),
(252,105,o),
(252,94,cs),
(252,86,o),
(256,82,o),
(263,82,cs),
(280,82,o),
(317,108,o),
(354,160,cs),
(441,280,o),
(473,392,o),
(473,484,cs),
(473,623,o),
(398,715,o),
(319,715,cs),
(297,715,o),
(275,708,o),
(254,694,cs),
(201,657,o),
(109,528,o),
(135,528,cs),
(139,528,o),
(145,531,o),
(156,538,cs),
(171,549,o),
(186,553,o),
(200,553,cs),
(271,553,o),
(328,435,o),
(328,317,cs),
(328,258,o),
(314,199,o),
(282,154,cs)
);
},
{
closed = 1;
nodes = (
(619,455,o),
(746,583,o),
(739,602,cs),
(710,681,o),
(658,714,o),
(613,714,cs),
(599,714,o),
(587,711,o),
(575,706,cs),
(363,606,o),
(360,140,o),
(341,41,cs),
(339,29,o),
(338,20,o),
(338,14,cs),
(338,1,o),
(342,-2,o),
(346,-2,cs),
(349,-2,o),
(352,0,o),
(352,0,c),
(384,11,o),
(409,18,o),
(440,18,cs),
(452,18,o),
(464,17,o),
(479,14,cs),
(513,8,o),
(554,-4,o),
(594,-4,cs),
(626,-4,o),
(657,3,o),
(685,26,cs),
(713,49,o),
(741,132,o),
(741,171,cs),
(741,184,o),
(738,192,o),
(731,192,cs),
(727,192,o),
(723,190,o),
(717,186,c),
(707,177,o),
(680,174,o),
(650,174,cs),
(613,174,o),
(570,178,o),
(539,184,cs),
(520,187,o),
(502,189,o),
(485,189,cs),
(462,189,o),
(439,186,o),
(414,176,c),
(425,135,l),
(474,387,o),
(491,538,o),
(525,554,cs),
(533,558,o),
(540,561,o),
(548,561,cs),
(566,561,o),
(586,544,o),
(611,476,cs)
);
},
{
closed = 1;
nodes = (
(374,438,o),
(328,314,o),
(328,278,cs),
(328,272,o),
(329,268,o),
(332,268,cs),
(655,269,ls),
(672,269,o),
(719,392,o),
(719,429,cs),
(719,435,o),
(718,439,o),
(715,439,cs),
(392,438,ls)
);
}
);
width = 791;
}
);
unicode = 339;
},
{
glyphname = p;
kernLeft = KO_p;
kernRight = KO_p;
lastChange = "2024-04-15 16:21:13 +0000";
layers = (
{
guides = (
{
pos = (722,374);
},
{
pos = (634,569);
}
);
layerId = m01;
shapes = (
{
closed = 1;
nodes = (
(248,669,o),
(252,678,o),
(252,683,cs),
(252,686,o),
(250,688,o),
(245,688,cs),
(225,688,o),
(169,656,o),
(136,617,cs),
(42,507,o),
(30,229,o),
(30,91,cs),
(31,11,ls),
(31,2,o),
(35,-1,o),
(42,-1,cs),
(74,-1,o),
(157,66,o),
(157,99,cs),
(157,118,o),
(159,565,o),
(238,657,cs)
);
},
{
closed = 1;
nodes = (
(200,336,o),
(184,312,o),
(184,297,cs),
(184,287,o),
(191,281,o),
(204,281,cs),
(217,281,o),
(238,288,o),
(264,306,cs),
(380,384,o),
(439,495,o),
(439,576,cs),
(439,627,o),
(413,716,o),
(317,716,cs),
(310,716,o),
(303,716,o),
(295,715,cs),
(253,709,o),
(136,633,o),
(136,612,cs),
(136,609,o),
(139,607,o),
(146,607,cs),
(151,607,ls),
(157,608,o),
(164,608,o),
(170,608,cs),
(249,608,o),
(283,541,o),
(285,509,cs),
(289,439,o),
(238,361,o),
(236,360,cs)
);
},
{
closed = 1;
nodes = (
(310,337,o),
(365,414,o),
(343,414,cs),
(338,414,o),
(330,410,o),
(317,402,cs),
(303,393,o),
(276,388,o),
(247,388,cs),
(199,388,o),
(145,402,o),
(137,433,cs),
(128,469,o),
(60,329,o),
(69,295,cs),
(76,268,o),
(96,252,o),
(129,252,cs),
(161,252,o),
(204,268,o),
(257,302,cs)
);
}
);
width = 449;
}
);
unicode = 112;
},
{
glyphname = phook;
lastChange = "2024-05-02 21:12:32 +0000";
layers = (
{
background = {
shapes = (
{
closed = 0;
nodes = (
(193,605,ls,{
"Letterink-NibData" = {
MainAxisWidth = "140";
MinorAxisWidth = "15";
ValidForParentMainAxisWidth = "30";
ValidForParentMinorAxisWidth = "15";
};
}),
(208,679,o),
(150,754,o),
(82,754,cs,{
"Letterink-NibData" = {
MainAxisWidth = "140";
MinorAxisWidth = "15";
ValidForParentMainAxisWidth = "30";
ValidForParentMinorAxisWidth = "15";
};
})
);
}
);
};
layerId = m01;
shapes = (
{
closed = 1;
nodes = (
(423,667,o),
(427,675,o),
(427,680,cs),
(427,683,o),
(424,685,o),
(420,685,cs),
(400,685,o),
(344,653,o),
(311,615,cs),
(224,514,o),
(210,272,o),
(210,127,cs),
(210,60,o),
(213,13,o),
(213,10,cs),
(213,2,o),
(217,-1,o),
(224,-1,cs),
(255,-1,o),
(340,68,o),
(339,100,cs),
(339,103,o),
(339,114,o),
(339,131,cs),
(339,238,o),
(345,576,o),
(412,655,cs)
);
},
{
closed = 1;
nodes = (
(382,336,o),
(366,312,o),
(366,297,cs),
(366,287,o),
(373,281,o),
(386,281,cs),
(399,281,o),
(420,288,o),
(446,306,cs),
(549,375,o),
(620,481,o),
(620,560,cs),
(620,570,o),
(619,579,o),
(617,588,cs),
(602,644,o),
(575,696,o),
(459,704,cs),
(431,707,o),
(404,709,o),
(378,709,cs),
(291,709,o),
(204,683,o),
(55,531,cs),
(27,503,o),
(23,489,o),
(34,489,cs),
(44,489,o),
(71,504,o),
(101,535,cs),
(123,558,o),
(193,579,o),
(273,579,cs),
(284,579,o),
(296,578,o),
(307,578,cs),
(393,571,o),
(462,540,o),
(471,506,cs),
(474,497,o),
(475,489,o),
(475,481,cs),
(475,418,o),
(420,362,o),
(418,360,cs)
);
},
{
closed = 1;
nodes = (
(492,337,o),
(547,414,o),
(525,414,cs),
(520,414,o),
(512,410,o),
(499,402,cs),
(485,393,o),
(458,388,o),
(429,388,cs),
(381,388,o),
(327,402,o),
(319,433,cs),
(310,469,o),
(242,329,o),
(251,295,cs),
(258,268,o),
(278,252,o),
(311,252,cs),
(343,252,o),
(386,268,o),
(439,302,cs)
);
},
{
closed = 1;
nodes = (
(130,585,o),
(129,587,o),
(125,587,cs),
(109,587,o),
(41,531,o),
(30,504,cs),
(23,486,o),
(20,469,o),
(20,453,cs),
(20,400,o),
(53,360,o),
(95,360,cs),
(108,360,o),
(123,364,o),
(138,374,cs),
(171,395,o),
(223,480,o),
(223,506,cs),
(223,510,o),
(221,513,o),
(217,513,cs),
(214,513,o),
(210,512,o),
(204,508,cs),
(193,501,o),
(179,497,o),
(165,497,cs),
(142,497,o),
(120,510,o),
(120,541,cs),
(120,551,o),
(122,564,o),
(128,578,cs)
);
}
);
width = 630;
}
);
metricRight = p;
unicode = 421;
},
{
glyphname = thorn;
lastChange = "2024-03-25 03:27:00 +0000";
layers = (
{
layerId = m01;
shapes = (
{
closed = 1;
nodes = (
(189,696,o),
(185,700,o),
(177,700,cs),
(147,700,o),
(65,637,o),
(62,601,cs),
(49,462,o),
(40,-31,o),
(40,3,cs),
(40,-4,o),
(44,-7,o),
(51,-7,cs),
(81,-7,o),
(166,61,o),
(166,94,c),
(166,94,o),
(177,572,o),
(188,687,cs)
);
},
{
closed = 1;
nodes = (
(188,274,o),
(172,250,o),
(172,235,cs),
(172,225,o),
(179,219,o),
(192,219,cs),
(205,219,o),
(226,226,o),
(252,244,cs),
(315,286,o),
(401,381,o),
(401,449,cs),
(401,522,o),
(340,565,o),
(176,562,cs),
(152,562,o),
(70,459,o),
(70,430,cs),
(70,425,o),
(72,422,o),
(78,422,cs),
(127,422,ls),
(247,422,o),
(275,410,o),
(275,363,cs),
(275,318,o),
(244,312,o),
(224,298,cs)
);
},
{
closed = 1;
nodes = (
(292,272,o),
(346,348,o),
(324,348,cs),
(319,348,o),
(311,344,o),
(298,335,cs),
(290,330,o),
(272,327,o),
(251,327,cs),
(211,327,o),
(160,338,o),
(153,365,cs),
(144,400,o),
(76,259,o),
(85,227,cs),
(91,205,o),
(106,193,o),
(131,193,cs),
(156,193,o),
(192,206,o),
(238,237,cs)
);
}
);
width = 421;
}
);
unicode = 254;
},
{
glyphname = q;
kernLeft = KO_o;
kernRight = KO_q;
lastChange = "2024-04-15 16:21:13 +0000";
layers = (
{
background = {
shapes = (
{
closed = 1;
nodes = (
);
},
{
closed = 1;
nodes = (
);
}
);
};
guides = (
{
pos = (298,713);
}
);
layerId = m01;
shapes = (
{
closed = 1;
nodes = (
(252,324,o),
(248,326,o),
(244,326,cs),
(226,326,o),
(196,292,o),
(196,269,cs),
(196,266,o),
(197,263,o),
(198,260,cs),
(211,234,o),
(352,-9,o),
(352,-9,c),
(355,-13,o),
(358,-15,o),
(362,-15,cs),
(380,-15,o),
(410,20,o),
(410,42,cs),
(410,45,o),
(409,49,o),
(408,51,cs),
(400,65,o),
(273,281,o),
(254,320,cs)
);
},
{
closed = 1;
nodes = (
(223,581,o),
(229,596,o),
(229,604,cs),
(229,610,o),
(226,613,o),
(221,613,cs),
(202,613,o),
(157,580,o),
(123,527,cs),
(42,403,o),
(10,291,o),
(10,202,cs),
(10,77,o),
(73,-2,o),
(154,-2,cs),
(185,-2,o),
(220,10,o),
(254,37,cs),
(300,72,o),
(381,215,o),
(357,215,cs),
(354,215,o),
(349,213,o),
(342,207,cs),
(310,183,o),
(280,172,o),
(253,172,cs),
(185,172,o),
(140,244,o),
(140,341,cs),
(140,408,o),
(160,486,o),
(209,561,cs)
);
},
{
closed = 1;
nodes = (
(265,127,o),
(256,107,o),
(256,99,cs),
(256,81,o),
(299,111,o),
(349,178,cs),
(437,294,o),
(470,400,o),
(470,486,cs),
(470,618,o),
(392,703,o),
(315,703,cs),
(296,703,o),
(277,697,o),
(259,686,cs),
(207,654,o),
(108,518,o),
(135,518,cs),
(139,518,o),
(145,521,o),
(153,526,cs),
(168,535,o),
(183,539,o),
(197,539,cs),
(272,539,o),
(332,420,o),
(332,304,cs),
(332,251,o),
(319,198,o),
(289,158,cs)
);
}
);
width = 490;
}
);
unicode = 113;
},
{
glyphname = r;
kernLeft = KO_r;
kernRight = KO_r;
lastChange = "2024-05-02 21:26:29 +0000";
layers = (
{
anchors = (
{
name = bottom;
pos = (208,0);
},
{
name = top;
pos = (288,710);
}
);
guides = (
{
pos = (303,713);
}
);
layerId = m01;
shapes = (
{
closed = 1;
nodes = (
(176,505,o),
(177,509,o),
(177,512,cs),
(177,519,o),
(173,522,o),
(166,522,cs),
(140,522,o),
(68,471,o),
(53,432,cs),
(31,379,o),
(20,15,o),
(20,12,cs),
(20,4,o),
(24,0,o),
(31,0,cs),
(62,0,o),
(145,67,o),
(146,100,cs),
(147,114,o),
(159,465,o),
(173,500,c)
);
},
{
closed = 1;
nodes = (
(187,378,o),
(167,342,o),
(167,320,cs),
(167,310,o),
(172,303,o),
(182,303,cs),
(192,303,o),
(206,309,o),
(226,324,cs),
(375,437,o),
(429,534,o),
(429,601,cs),
(429,663,o),
(382,700,o),
(320,700,cs),
(231,700,o),
(112,624,o),
(56,443,cs),
(51,425,o),
(49,409,o),
(49,397,cs),
(49,368,o),
(60,353,o),
(76,353,cs),
(95,353,o),
(121,378,o),
(138,431,cs),
(160,503,o),
(226,538,o),
(269,538,cs),
(292,538,o),
(308,529,o),
(308,510,cs),
(308,488,o),
(285,453,o),
(224,406,cs)
);
},
{
closed = 1;
nodes = (
(54,305,o),
(32,245,o),
(32,217,cs),
(32,208,o),
(35,202,o),
(40,202,cs),
(45,202,o),
(52,206,o),
(61,216,cs),
(103,261,o),
(150,281,o),
(192,281,cs),
(255,281,o),
(305,234,o),
(305,152,cs),
(305,120,o),
(297,83,o),
(279,41,cs),
(275,29,o),
(272,21,o),
(272,14,cs),
(272,4,o),
(278,-1,o),
(288,-1,cs),
(321,-1,o),
(400,58,o),
(425,115,cs),
(448,170,o),
(458,217,o),
(458,257,cs),
(458,370,o),
(379,428,o),
(285,428,cs),
(217,428,o),
(140,397,o),
(81,334,cs)
);
}
);
width = 498;
}
);
unicode = 114;
userData = {
KernOnName = r;
};
},
{
glyphname = rfishhook;
lastChange = "2024-03-25 03:27:00 +0000";
layers = (
{
anchors = (
{
name = bottom;
pos = (208,0);
},
{
name = top;
pos = (288,710);
}
);
layerId = m01;
shapes = (
{
closed = 1;
nodes = (
(174,555,o),
(175,559,o),
(175,562,cs),
(175,569,o),
(171,572,o),
(164,572,cs),
(138,572,o),
(66,521,o),
(51,482,cs),
(29,429,o),
(20,15,o),
(20,12,cs),
(20,4,o),
(24,0,o),
(31,0,cs),
(62,0,o),
(145,67,o),
(146,100,cs),
(146,112,o),
(158,518,o),
(171,550,c)
);
},
{
closed = 1;
nodes = (
(293,470,o),
(420,597,o),
(410,614,cs),
(394,641,o),
(359,701,o),
(297,701,cs),
(267,701,o),
(231,687,o),
(188,647,cs),
(138,601,o),
(90,517,o),
(108,517,cs),
(113,517,o),
(123,523,o),
(138,537,cs),
(153,551,o),
(170,557,o),
(186,557,cs),
(224,557,o),
(261,524,o),
(282,488,cs)
);
}
);
width = 451;
}
);
unicode = 638;
},
{
glyphname = s;
kernLeft = KO_s;
kernRight = KO_s;
lastChange = "2024-05-02 21:24:19 +0000";
layers = (
{
anchors = (
{
name = bottom;
pos = (167,0);
},
{
name = top;
pos = (267,713);
}
);
guides = (
{
pos = (270,713);
}
);
layerId = m01;
shapes = (
{
closed = 1;
nodes = (
(50,268,o),
(-5,134,o),
(-5,90,cs),
(-5,86,o),
(-5,83,o),
(-4,80,c),
(13,47,o),
(73,-15,o),
(148,-15,cs),
(196,-15,o),
(251,10,o),
(304,86,cs),
(372,183,o),
(398,245,o),
(398,289,cs),
(398,355,o),
(337,379,o),
(274,420,cs),
(164,492,o),
(145,528,o),
(145,545,cs),
(145,553,o),
(149,556,o),
(150,558,cs),
(154,563,o),
(164,566,o),
(179,566,cs),
(225,566,o),
(315,534,o),
(354,447,cs),
(365,422,o),
(428,592,o),
(418,613,cs),
(405,643,o),
(343,713,o),
(266,713,cs),
(223,713,o),
(176,691,o),
(130,626,cs),
(64,534,o),
(39,472,o),
(39,426,cs),
(39,362,o),
(89,330,o),
(150,290,cs),
(265,215,o),
(291,188,o),
(291,170,cs),
(291,164,o),
(287,158,o),
(282,152,cs),
(277,144,o),
(262,140,o),
(243,140,cs),
(189,140,o),
(98,173,o),
(62,246,cs)
);
}
);
width = 444;
}
);
unicode = 115;
userData = {
KernOnName = s;
};
},
{
glyphname = germandbls;
lastChange = "2024-03-25 04:38:29 +0000";
layers = (
{
layerId = m01;
shapes = (
{
closed = 1;
nodes = (
(481,580,o),
(506,661,o),
(506,693,cs),
(506,701,o),
(505,706,o),
(501,706,cs),
(497,706,o),
(492,702,o),
(486,693,cs),
(467,669,o),
(339,659,o),
(299,659,cs),
(244,659,o),
(182,681,o),
(149,710,c),
(147,713,o),
(145,714,o),
(142,714,cs),
(112,714,o),
(70,578,o),
(70,574,cs),
(51,383,o),
(27,200,o),
(10,17,cs),
(9,5,o),
(14,0,o),
(22,0,cs),
(47,0,o),
(99,43,o),
(102,77,cs),
(122,282,o),
(135,487,o),
(154,684,c),
(75,548,l),
(114,511,o),
(182,489,o),
(239,489,cs),
(296,488,ls),
(351,488,o),
(416,495,o),
(454,545,cs)
);
},
{
closed = 1;
nodes = (
(195,379,o),
(172,329,o),
(172,305,cs),
(172,296,o),
(175,291,o),
(181,291,cs),
(185,291,o),
(190,293,o),
(197,297,cs),
(218,311,o),
(254,320,o),
(291,320,cs),
(349,320,o),
(408,298,o),
(408,237,cs),
(408,214,o),
(400,186,o),
(380,152,cs),
(367,129,o),
(365,119,o),
(370,119,cs),
(384,119,o),
(438,175,o),
(470,230,cs),
(500,282,o),
(513,323,o),
(513,355,cs),
(513,421,o),
(457,445,o),
(392,445,cs),
(330,445,o),
(260,424,o),
(221,397,cs)
);
},
{
closed = 1;
nodes = (
(204,392,o),
(176,345,o),
(176,321,cs),
(176,311,o),
(180,305,o),
(190,305,cs),
(198,305,o),
(209,309,o),
(224,318,cs),
(366,407,o),
(441,521,o),
(470,573,cs),
(480,591,o),
(484,605,o),
(484,614,cs),
(484,622,o),
(481,626,o),
(476,626,cs),
(468,626,o),
(454,614,o),
(440,589,cs),
(439,587,o),
(330,469,o),
(246,418,cs)
);
},
{
closed = 1;
nodes = (
(492,292,o),
(494,298,o),
(494,302,cs),
(494,305,o),
(492,307,o),
(490,307,cs),
(477,307,o),
(429,243,o),
(411,191,c),
(409,187,o),
(360,145,o),
(313,145,cs),
(290,145,o),
(268,154,o),
(251,181,cs),
(239,200,o),
(128,59,o),
(139,41,cs),
(143,34,o),
(184,-2,o),
(242,-2,cs),
(313,-2,o),
(408,53,o),
(489,283,cs)
);
}
);
width = 548;
}
);
unicode = 223;
},
{
glyphname = t;
kernLeft = KO_t;
kernRight = KO_t;
lastChange = "2024-05-02 21:24:19 +0000";
layers = (
{
anchors = (
{
name = bottom;
pos = (160,9);
},
{
name = center;
pos = (240,250);
},
{
name = top;
pos = (240,710);
},
{
name = topright;
pos = (461,740);
}
);
guides = (
{
pos = (-205,910);
},
{
pos = (296,725);
}
);
layerId = m01;
shapes = (
{
closed = 1;
nodes = (
(412,539,o),
(459,642,o),
(459,684,cs),
(459,695,o),
(457,701,o),
(449,701,cs),
(446,701,l),
(422,697,o),
(391,696,o),
(357,696,cs),
(304,696,o),
(244,699,o),
(192,699,cs),
(140,699,o),
(95,696,o),
(71,684,cs),
(53,675,o),
(20,561,o),
(20,523,cs),
(20,516,o),
(21,511,o),
(25,511,c),
(25,511,o),
(26,512,o),
(27,512,c),
(54,526,o),
(121,527,o),
(194,527,cs),
(232,527,ls),
(290,527,o),
(346,528,o),
(386,535,cs)
);
},
{
closed = 1;
nodes = (
(275,570,o),
(141,443,o),
(150,423,cs),
(151,420,o),
(152,414,o),
(152,406,cs),
(152,351,o),
(125,190,o),
(125,83,cs),
(125,49,o),
(128,20,o),
(135,2,cs),
(144,-18,o),
(275,113,o),
(267,132,cs),
(261,147,o),
(258,171,o),
(258,201,cs),
(258,302,o),
(287,466,o),
(287,528,cs),
(287,538,o),
(286,545,o),
(284,549,cs)
);
}
);
width = 439;
}
);
unicode = 116;
userData = {
KernOnName = t;
};
},
{
glyphname = tcedilla;
lastChange = "2024-03-25 03:27:00 +0000";
layers = (
{
anchors = (
{
name = bottom;
pos = (119,-281);
}
);
layerId = m01;
shapes = (
{
pos = (-13,0);
ref = t;
},
{
closed = 1;
nodes = (
(169,35,o),
(178,62,o),
(178,79,cs),
(178,91,o),
(173,98,o),
(166,98,cs),
(156,98,o),
(139,85,o),
(119,54,cs),
(84,0,o),
(56,-51,o),
(29,-92,cs),
(21,-104,o),
(18,-113,o),
(18,-118,cs),
(18,-122,o),
(20,-124,o),
(24,-124,cs),
(30,-124,o),
(39,-120,o),
(50,-113,cs),
(65,-103,o),
(87,-98,o),
(107,-98,cs),
(141,-98,o),
(173,-112,o),
(173,-145,cs),
(173,-153,o),
(171,-162,o),
(167,-173,cs),
(164,-179,o),
(163,-184,o),
(163,-187,cs),
(163,-190,o),
(164,-192,o),
(166,-192,cs),
(180,-192,o),
(232,-137,o),
(249,-97,cs),
(257,-79,o),
(261,-63,o),
(261,-49,cs),
(261,-15,o),
(237,2,o),
(202,2,cs),
(168,2,o),
(124,-13,o),
(78,-43,c),
(99,-64,l),
(118,-34,o),
(138,-14,o),
(149,4,cs)
);
},
{
closed = 1;
nodes = (
(236,-123,o),
(247,-77,o),
(247,-56,cs),
(247,-48,o),
(246,-44,o),
(243,-44,cs),
(239,-44,o),
(233,-50,o),
(224,-66,cs),
(202,-106,o),
(176,-152,o),
(127,-152,cs),
(113,-152,o),
(98,-149,o),
(80,-140,cs),
(63,-132,o),
(-37,-231,o),
(-18,-240,cs),
(11,-254,o),
(40,-261,o),
(67,-261,cs),
(125,-261,o),
(178,-229,o),
(218,-156,cs)
);
}
);
width = 426;
}
);
unicode = 355;
},
{
glyphname = thook;
lastChange = "2024-05-02 21:12:58 +0000";
layers = (
{
anchors = (
{
name = bottom;
pos = (211,9);
},
{
name = center;
pos = (297,250);
},
{
name = top;
pos = (297,700);
},
{
name = topright;
pos = (518,740);
}
);
background = {
anchors = (
{
name = bottom;
pos = (185,9);
},
{
name = center;
pos = (271,250);
},
{
name = top;
pos = (271,710);
},
{
name = topright;
pos = (492,740);
}
);
};
layerId = m01;
shapes = (
{
closed = 1;
nodes = (
(421,539,o),
(467,642,o),
(467,684,cs),
(467,694,o),
(464,701,o),
(457,701,cs),
(454,701,ls),
(398,693,o),
(339,691,o),
(285,691,cs),
(230,691,o),
(179,693,o),
(142,694,cs),
(126,694,o),
(89,574,o),
(89,534,cs),
(89,525,o),
(90,520,o),
(94,520,cs),
(158,520,ls),
(225,520,o),
(310,522,o),
(394,535,cs)
);
},
{
closed = 1;
nodes = (
(283,570,o),
(149,443,o),
(158,423,cs),
(159,420,o),
(160,414,o),
(160,406,cs),
(160,351,o),
(133,190,o),
(133,83,cs),
(133,49,o),
(136,20,o),
(143,2,cs),
(152,-18,o),
(283,113,o),
(275,132,cs),
(269,147,o),
(266,171,o),
(266,201,cs),
(266,302,o),
(295,466,o),
(295,528,cs),
(295,538,o),
(294,545,o),
(292,549,cs)
);
},
{
closed = 1;
nodes = (
(90,544,o),
(92,542,o),
(95,542,cs),
(115,542,o),
(207,631,o),
(213,659,cs),
(214,668,o),
(215,676,o),
(215,684,cs),
(215,754,o),
(156,814,o),
(98,814,cs),
(76,814,o),
(-45,692,o),
(-16,692,cs),
(47,692,o),
(93,633,o),
(93,572,cs),
(93,564,o),
(93,556,o),
(91,549,cs)
);
}
);
width = 447;
}
);
metricRight = t;
unicode = 429;
},
{
glyphname = tretroflexhook;
lastChange = "2024-04-15 16:21:13 +0000";
layers = (
{
anchors = (
{
name = bottom;
pos = (154,9);
},
{
name = center;
pos = (240,250);
},
{
name = top;
pos = (240,710);
},
{
name = topright;
pos = (461,740);
}
);
layerId = m01;
shapes = (
{
closed = 1;
nodes = (
(412,539,o),
(459,642,o),
(459,684,cs),
(459,695,o),
(457,701,o),
(449,701,cs),
(446,701,l),
(422,697,o),
(391,696,o),
(357,696,cs),
(304,696,o),
(244,699,o),
(192,699,cs),
(140,699,o),
(95,696,o),
(71,684,cs),
(53,675,o),
(20,561,o),
(20,523,cs),
(20,516,o),
(21,511,o),
(25,511,c),
(25,511,o),
(26,512,o),
(27,512,c),
(54,526,o),
(121,527,o),
(194,527,cs),
(232,527,ls),
(290,527,o),
(346,528,o),
(386,535,cs)
);
},
{
closed = 1;
nodes = (
(256,552,o),
(142,441,o),
(150,423,cs),
(152,418,o),
(153,403,o),
(153,383,cs),
(153,274,o),
(128,-11,o),
(121,-80,cs),
(119,-93,o),
(119,-105,o),
(119,-116,cs),
(119,-182,o),
(143,-216,o),
(184,-216,cs),
(202,-216,o),
(223,-209,o),
(247,-197,cs),
(278,-179,o),
(360,-61,o),
(339,-61,cs),
(338,-61,o),
(336,-62,o),
(333,-63,c),
(315,-73,o),
(299,-79,o),
(287,-79,cs),
(262,-79,o),
(250,-58,o),
(250,-9,cs),
(250,6,o),
(251,24,o),
(253,44,cs),
(261,112,o),
(288,394,o),
(288,506,cs),
(288,535,o),
(286,552,o),
(280,552,cs)
);
}
);
width = 439;
}
);
unicode = 648;
},
{
glyphname = u;
kernLeft = KO_u;
kernRight = KO_u;
lastChange = "2024-05-02 21:24:19 +0000";
layers = (
{
anchors = (
{
name = bottom;
pos = (229,0);
},
{
name = center;
pos = (253,371);
},
{
name = ogonek;
pos = (295,0);
},
{
name = top;
pos = (271,713);
},
{
name = topright;
pos = (450,683);
}
);
guides = (
{
pos = (230,0);
},
{
pos = (339,852);
}
);
layerId = m01;
shapes = (
{
closed = 1;
nodes = (
(163,711,o),
(27,574,o),
(49,563,cs),
(63,557,o),
(70,516,o),
(70,447,cs),
(70,372,o),
(62,265,o),
(47,131,cs),
(46,124,o),
(45,116,o),
(45,109,cs),
(45,44,o),
(78,-16,o),
(138,-16,cs),
(179,-16,o),
(235,14,o),
(301,93,cs),
(342,142,o),
(365,199,o),
(351,199,cs),
(346,199,o),
(336,191,o),
(319,171,cs),
(291,137,o),
(264,122,o),
(241,122,cs),
(206,122,o),
(182,160,o),
(182,223,cs),
(182,233,o),
(182,244,o),
(183,255,cs),
(199,392,o),
(208,501,o),
(208,577,cs),
(208,650,o),
(200,694,o),
(181,703,cs)
);
},
{
closed = 1;
nodes = (
(282,127,o),
(276,113,o),
(276,105,cs),
(276,100,o),
(278,98,o),
(282,98,cs),
(295,98,o),
(322,119,o),
(350,157,cs),
(380,199,o),
(407,260,o),
(414,301,cs),
(438,439,o),
(438,559,o),
(443,695,cs),
(444,724,o),
(358,640,o),
(357,613,cs),
(352,475,o),
(344,357,o),
(320,221,cs),
(309,154,o),
(299,150,o),
(298,149,cs)
);
}
);
width = 473;
}
);
unicode = 117;
userData = {
KernOnName = u;
};
},
{
glyphname = ubar;
lastChange = "2024-03-25 03:27:00 +0000";
layers = (
{
layerId = m01;
shapes = (
{
pos = (25,0);
ref = u;
},
{
closed = 1;
nodes = (
(62,408,o),
(30,328,o),
(30,297,cs),
(30,290,o),
(32,286,o),
(36,286,cs),
(475,284,ls),
(491,284,o),
(523,364,o),
(523,394,cs),
(523,402,o),
(521,406,o),
(517,406,cs),
(78,408,ls)
);
}
);
width = 553;
}
);
unicode = 649;
},
{
glyphname = uhorn;
kernLeft = KO_uhorn;
kernRight = KO_uhorn;
lastChange = "2024-04-15 16:21:13 +0000";
layers = (
{
anchors = (
{
name = bottom;
pos = (128,0);
},
{
name = top;
pos = (261,711);
},
{
name = topright;
pos = (608,859);
}
);
guides = (
{
pos = (-205,910);
},
{
pos = (296,725);
}
);
layerId = m01;
shapes = (
{
alignment = -1;
pos = (-39,0);
ref = u;
},
{
closed = 1;
nodes = (
(406,706,o),
(328,602,o),
(330,601,cs),
(349,593,o),
(370,586,o),
(393,586,cs),
(441,586,o),
(499,616,o),
(578,726,cs),
(584,735,o),
(587,741,o),
(587,744,cs),
(587,745,o),
(586,746,o),
(584,746,cs),
(575,746,o),
(543,723,o),
(524,696,cs),
(523,694,o),
(517,682,o),
(492,682,cs),
(475,682,o),
(450,687,o),
(412,703,cs)
);
},
{
closed = 1;
nodes = (
(517,682,o),
(517,679,o),
(521,679,cs),
(532,679,o),
(576,717,o),
(588,741,cs),
(596,758,o),
(599,774,o),
(599,788,cs),
(599,829,o),
(572,858,o),
(544,853,cs),
(519,848,o),
(414,741,o),
(439,741,cs),
(456,742,ls),
(487,742,o),
(524,726,o),
(524,702,cs),
(524,698,o),
(523,694,o),
(520,689,cs)
);
}
);
width = 423;
}
);
unicode = 432;
},
{
glyphname = "upsilon-latin";
lastChange = "2024-04-15 16:21:13 +0000";
layers = (
{
anchors = (
{
name = bottom;
pos = (225,0);
},
{
name = center;
pos = (295,250);
},
{
name = ogonek;
pos = (382,0);
},
{
name = top;
pos = (370,712);
},
{
name = topright;
pos = (426,683);
}
);
layerId = m01;
shapes = (
{
closed = 1;
nodes = (
(284,593,o),
(294,614,o),
(294,625,cs),
(294,632,o),
(290,635,o),
(284,635,cs),
(268,635,o),
(237,614,o),
(203,570,cs),
(90,425,o),
(47,297,o),
(47,198,cs),
(47,69,o),
(121,-10,o),
(209,-10,cs),
(245,-10,o),
(284,4,o),
(320,32,cs),
(362,64,o),
(412,156,o),
(412,185,cs),
(412,191,o),
(410,194,o),
(406,194,cs),
(401,194,o),
(395,191,o),
(386,184,cs),
(356,162,o),
(328,152,o),
(302,152,cs),
(230,152,o),
(178,231,o),
(178,334,cs),
(178,406,o),
(202,488,o),
(261,564,cs)
);
},
{
closed = 1;
nodes = (
(320,128,o),
(310,105,o),
(310,92,cs),
(310,84,o),
(314,80,o),
(321,80,cs),
(337,80,o),
(370,103,o),
(406,151,cs),
(504,280,o),
(539,392,o),
(539,480,cs),
(539,587,o),
(488,658,o),
(438,681,cs),
(417,691,o),
(308,567,o),
(308,534,cs),
(308,530,o),
(309,528,o),
(312,527,cs),
(373,498,o),
(400,424,o),
(400,346,cs),
(400,278,o),
(379,206,o),
(344,159,cs)
);
},
{
closed = 1;
nodes = (
(560,554,o),
(670,700,o),
(641,700,cs),
(638,700,o),
(634,698,o),
(628,695,cs),
(600,681,o),
(568,674,o),
(539,674,cs),
(503,674,o),
(471,684,o),
(456,700,cs),
(437,721,o),
(292,552,o),
(312,530,cs),
(328,512,o),
(361,500,o),
(401,500,cs),
(435,500,o),
(474,509,o),
(512,529,cs)
);
},
{
closed = 1;
nodes = (
(261,554,o),
(371,700,o),
(342,700,cs),
(339,700,o),
(335,698,o),
(329,695,cs),
(301,681,o),
(269,674,o),
(239,674,cs),
(203,674,o),
(171,684,o),
(156,700,cs),
(137,721,o),
(-8,552,o),
(12,530,cs),
(28,512,o),
(62,500,o),
(102,500,cs),
(136,500,o),
(175,509,o),
(213,529,cs)
);
}
);
width = 596;
}
);
unicode = 650;
},
{
glyphname = v;
kernLeft = KO_v;
kernRight = KO_v;
lastChange = "2024-05-02 21:24:19 +0000";
layers = (
{
guides = (
{
pos = (260,713);
}
);
layerId = m01;
shapes = (
{
closed = 1;
nodes = (
(481,682,o),
(481,685,o),
(481,689,cs),
(481,696,o),
(477,700,o),
(471,700,cs),
(445,700,o),
(380,647,o),
(367,605,cs),
(310,427,o),
(210,84,o),
(198,31,cs),
(189,-6,o),
(318,117,o),
(326,149,cs),
(336,188,o),
(428,515,o),
(479,677,cs)
);
},
{
closed = 1;
nodes = (
(181,-25,o),
(315,109,o),
(299,121,cs),
(281,134,o),
(262,146,o),
(249,228,cs),
(238,301,o),
(229,421,o),
(205,589,cs),
(195,654,o),
(180,695,o),
(152,700,cs),
(133,704,o),
(4,577,o),
(28,572,cs),
(38,569,o),
(60,534,o),
(69,471,cs),
(93,309,o),
(94,191,o),
(105,122,cs),
(119,29,o),
(141,6,o),
(165,-13,cs)
);
}
);
width = 469;
}
);
unicode = 118;
userData = {
KernOnName = v;
};
},
{
glyphname = vhook;
lastChange = "2024-05-02 19:17:34 +0000";
layers = (
{
layerId = m01;
shapes = (
{
closed = 1;
nodes = (
(408.93,718.021,o),
(280.568,591.832,o),
(294.949,577.36,cs),
(326,546,o),
(338,504,o),
(338,457,cs),
(338,296,o),
(194,76,o),
(182.875,31.183,cs),
(174.085,-5.577,o),
(303.485,116.868,o),
(311.125,148.817,cs),
(317,175,o),
(466,409,o),
(466,580,cs),
(466,629,o),
(454,673,o),
(422.228,704.64,cs)
);
},
{
closed = 1;
nodes = (
(165.999,-24.902,o),
(299.562,108.855,o),
(283.626,120.997,cs),
(266.354,134.157,o),
(247.432,145.555,o),
(234.39,227.913,cs),
(222.778,301.243,o),
(214.371,420.908,o),
(189.566,588.727,cs),
(179.89,654.189,o),
(164.711,694.604,o),
(137.182,700.4,cs),
(117.893,704.461,o),
(-10.82,576.577,o),
(12.818,571.6,cs),
(23.289,569.396,o),
(45.167,533.967,o),
(54.434,471.273,cs),
(78.347,309.494,o),
(78.698,190.991,o),
(89.61,122.087,cs),
(104.392,28.734,o),
(125.646,5.843,o),
(150.374,-12.997,cs)
);
}
);
width = 474;
}
);
unicode = 651;
},
{
glyphname = w;
kernLeft = KO_w;
kernRight = KO_w;
lastChange = "2024-04-15 16:21:13 +0000";
layers = (
{
anchors = (
{
name = bottom;
pos = (295,0);
},
{
name = top;
pos = (385,710);
}
);
guides = (
{
pos = (238,0);
},
{
pos = (-220,910);
},
{
pos = (281,725);
}
);
layerId = m01;
shapes = (
{
closed = 1;
nodes = (
(365,-32,o),
(485,88,o),
(476,105,cs),
(412,219,o),
(444,647,o),
(389,699,cs),
(376,712,o),
(254,593,o),
(269,579,cs),
(316,533,o),
(290,103,o),
(354,-13,cs)
);
},
{
closed = 1;
nodes = (
(691,683,o),
(692,687,o),
(692,691,cs),
(692,697,o),
(688,700,o),
(682,700,cs),
(657,700,o),
(589,652,o),
(573,613,cs),
(444,300,o),
(399,32,o),
(398,25,cs),
(391,-6,o),
(502,111,o),
(508,143,cs),
(510,153,o),
(564,374,o),
(689,677,cs)
);
},
{
closed = 1;
nodes = (
(128,-32,o),
(248,88,o),
(239,105,cs),
(175,219,o),
(204,647,o),
(151,699,cs),
(138,712,o),
(16,593,o),
(31,579,cs),
(78,533,o),
(53,103,o),
(117,-13,cs)
);
},
{
closed = 1;
nodes = (
(410,609,o),
(405,612,o),
(395,612,cs),
(371,612,o),
(319,592,o),
(313,576,cs),
(247,403,o),
(163,37,o),
(160,24,cs),
(151,-11,o),
(258,104,o),
(266,136,cs),
(269,146,o),
(345,440,o),
(407,602,cs)
);
}
);
width = 657;
}
);
unicode = 119;
},
{
glyphname = whook;
kernRight = whook;
lastChange = "2024-05-03 08:14:28 +0000";
layers = (
{
anchors = (
{
name = bottom;
pos = (290,0);
},
{
name = top;
pos = (380,710);
}
);
layerId = m01;
shapes = (
{
closed = 1;
nodes = (
(365,-32,o),
(485,88,o),
(476,105,cs),
(412,219,o),
(444,647,o),
(389,699,cs),
(376,712,o),
(254,593,o),
(269,579,cs),
(316,533,o),
(290,103,o),
(354,-13,cs)
);
},
{
closed = 1;
nodes = (
(680,655,o),
(681,659,o),
(681,662,cs),
(681,669,o),
(677,672,o),
(671,672,cs),
(645,672,o),
(578,624,o),
(562,585,cs),
(434,273,o),
(399,30,o),
(398,25,cs),
(392,-6,o),
(502,111,o),
(508,143,cs),
(510,152,o),
(553,348,o),
(678,649,cs)
);
},
{
closed = 1;
nodes = (
(128,-32,o),
(248,88,o),
(239,105,cs),
(175,219,o),
(204,647,o),
(151,699,cs),
(138,712,o),
(16,593,o),
(31,579,cs),
(78,533,o),
(53,103,o),
(117,-13,cs)
);
},
{
closed = 1;
nodes = (
(410,609,o),
(405,612,o),
(395,612,cs),
(371,612,o),
(319,592,o),
(313,576,cs),
(247,403,o),
(163,37,o),
(160,24,cs),
(151,-11,o),
(258,104,o),
(266,136,cs),
(269,146,o),
(345,440,o),
(407,602,cs)
);
},
{
closed = 1;
nodes = (
(599,635,o),
(562,586,o),
(562,568,cs),
(562,564,o),
(564,562,o),
(568,562,cs),
(575,562,o),
(588,568,o),
(608,582,cs),
(614,587,o),
(667,576,o),
(667,532,cs),
(667,521,o),
(663,507,o),
(653,490,cs),
(649,482,o),
(647,477,o),
(647,473,cs),
(647,469,o),
(650,467,o),
(656,467,cs),
(681,467,o),
(762,519,o),
(787,562,cs),
(801,588,o),
(808,613,o),
(808,636,cs),
(808,677,o),
(785,707,o),
(743,707,cs),
(718,707,o),
(686,696,o),
(648,670,cs)
);
}
);
width = 758;
}
);
metricLeft = w;
unicode = 11379;
},
{
glyphname = x;
kernLeft = KO_x;
kernRight = KO_x;
lastChange = "2024-05-02 21:24:19 +0000";
layers = (
{
guides = (
{
pos = (236,713);
}
);
layerId = m01;
shapes = (
{
closed = 1;
nodes = (
(534,673,o),
(537,680,o),
(537,686,cs),
(537,695,o),
(530,699,o),
(518,699,cs),
(488,699,o),
(433,673,o),
(407,635,cs),
(-10,37,ls),
(-17,27,o),
(-20,19,o),
(-20,13,cs),
(-20,4,o),
(-13,0,o),
(-1,0,cs),
(28,0,o),
(84,27,o),
(110,63,cs),
(527,663,ls)
);
},
{
closed = 1;
nodes = (
(395,4,o),
(503,148,o),
(474,142,cs),
(408,131,o),
(226,719,o),
(149,698,cs),
(123,691,o),
(14,547,o),
(45,556,cs),
(110,573,o),
(294,-13,o),
(368,0,cs)
);
}
);
width = 527;
}
);
unicode = 120;
userData = {
KernOnName = x;
};
},
{
glyphname = y;
kernLeft = KO_y;
kernRight = KO_y;
lastChange = "2024-05-02 21:24:19 +0000";
layers = (
{
anchors = (
{
name = bottom;
pos = (162,0);
},
{
name = top;
pos = (322,709);
}
);
guides = (
{
pos = (215,0);
},
{
pos = (272,715);
}
);
layerId = m01;
shapes = (
{
closed = 1;
nodes = (
(532,668,o),
(535,678,o),
(535,686,cs),
(535,696,o),
(529,701,o),
(519,701,cs),
(492,701,o),
(438,665,o),
(411,616,cs),
(394,584,o),
(127,44,o),
(127,43,c),
(120,31,o),
(117,22,o),
(117,15,cs),
(117,5,o),
(123,0,o),
(133,0,cs),
(161,0,o),
(219,39,o),
(243,89,cs),
(255,113,o),
(503,614,o),
(525,654,cs)
);
},
{
closed = 1;
nodes = (
(262,328,o),
(361,437,o),
(339,437,cs),
(337,437,o),
(334,436,o),
(330,434,cs),
(327,433,o),
(324,432,o),
(321,432,cs),
(262,432,o),
(212,700,o),
(141,700,cs),
(138,700,o),
(135,700,o),
(132,699,cs),
(103,689,o),
(10,592,o),
(10,573,cs),
(10,570,o),
(12,569,o),
(18,571,cs),
(78,592,o),
(122,305,o),
(206,305,cs),
(211,305,o),
(218,307,o),
(224,310,cs)
);
}
);
width = 499;
}
);
unicode = 121;
userData = {
KernOnName = y;
};
},
{
glyphname = yhook;
kernLeft = KO_y;
lastChange = "2024-05-03 06:29:02 +0000";
layers = (
{
anchors = (
{
name = bottom;
pos = (124,0);
},
{
name = top;
pos = (284,709);
}
);
layerId = m01;
shapes = (
{
closed = 1;
nodes = (
(513,631,o),
(516,641,o),
(516,648,cs),
(516,659,o),
(509,663,o),
(500,663,cs),
(473,663,o),
(418,628,o),
(392,578,cs),
(370,538,o),
(132,54,o),
(126,42,cs),
(120,30,o),
(117,21,o),
(117,14,cs),
(117,4,o),
(123,0,o),
(133,0,cs),
(161,0,o),
(220,40,o),
(244,90,cs),
(244,90,o),
(494,596,o),
(505,617,cs)
);
},
{
closed = 1;
nodes = (
(262,328,o),
(361,437,o),
(339,437,cs),
(337,437,o),
(334,436,o),
(330,434,cs),
(327,433,o),
(324,432,o),
(321,432,cs),
(262,432,o),
(212,700,o),
(141,700,cs),
(138,700,o),
(135,700,o),
(132,699,cs),
(103,689,o),
(10,592,o),
(10,573,cs),
(10,570,o),
(12,569,o),
(18,571,cs),
(78,592,o),
(122,305,o),
(206,305,cs),
(211,305,o),
(218,307,o),
(224,310,cs)
);
},
{
closed = 1;
nodes = (
(430,635,o),
(393,585,o),
(393,568,cs),
(393,564,o),
(395,562,o),
(399,562,cs),
(406,562,o),
(419,568,o),
(439,582,cs),
(445,587,o),
(498,576,o),
(498,532,cs),
(498,521,o),
(495,507,o),
(485,490,cs),
(481,483,o),
(479,477,o),
(479,474,cs),
(479,469,o),
(482,467,o),
(487,467,cs),
(513,467,o),
(593,519,o),
(618,562,cs),
(633,588,o),
(640,613,o),
(640,635,cs),
(640,676,o),
(616,707,o),
(574,707,cs),
(549,707,o),
(517,696,o),
(480,670,cs)
);
}
);
width = 600;
}
);
metricLeft = y;
unicode = 436;
},
{
glyphname = z;
kernLeft = KO_z;
kernRight = KO_z;
lastChange = "2024-05-02 21:24:19 +0000";
layers = (
{
anchors = (
{
name = bottom;
pos = (211,0);
},
{
name = center;
pos = (211,250);
},
{
name = top;
pos = (271,712);
}
);
guides = (
{
pos = (199,713);
}
);
layerId = m01;
shapes = (
{
closed = 1;
nodes = (
(8,127,o),
(-20,43,o),
(-20,4,cs),
(-20,-8,o),
(-17,-16,o),
(-11,-16,cs),
(-8,-16,o),
(-3,-13,o),
(3,-8,cs),
(40,24,o),
(91,38,o),
(144,38,cs),
(207,38,o),
(271,17,o),
(313,-15,cs),
(328,-27,o),
(378,105,o),
(378,144,cs),
(378,148,o),
(377,152,o),
(375,153,c),
(337,183,o),
(270,208,o),
(199,208,cs),
(142,208,o),
(83,192,o),
(35,150,cs)
);
},
{
closed = 1;
nodes = (
(108,729,o),
(55,596,o),
(55,555,cs),
(55,551,o),
(55,547,o),
(57,545,cs),
(82,513,o),
(145,494,o),
(213,494,cs),
(273,494,o),
(337,510,o),
(379,547,cs),
(400,565,o),
(438,676,o),
(438,706,cs),
(438,711,o),
(437,714,o),
(435,714,cs),
(433,714,o),
(432,713,o),
(429,711,cs),
(394,680,o),
(332,665,o),
(272,665,cs),
(207,665,o),
(145,682,o),
(121,713,cs)
);
},
{
closed = 1;
nodes = (
(407,598,o),
(408,602,o),
(408,606,cs),
(408,617,o),
(400,622,o),
(387,622,cs),
(358,622,o),
(310,597,o),
(295,564,cs),
(237,428,o),
(37,207,o),
(-7,75,cs),
(-8,71,o),
(-9,67,o),
(-9,64,cs),
(-9,53,o),
(-1,48,o),
(12,48,cs),
(41,48,o),
(94,76,o),
(105,109,cs),
(135,199,o),
(335,428,o),
(405,592,cs)
);
}
);
width = 438;
}
);
unicode = 122;
userData = {
KernOnName = z;
};
},
{
glyphname = saltillo;
lastChange = "2024-04-15 14:39:14 +0000";
layers = (
{
layerId = m01;
shapes = (
{
closed = 1;
nodes = (
(165,718,o),
(34,593,o),
(53,583,cs),
(56,581,o),
(58,566,o),
(58,541,cs),
(55,490,l),
(49,421,l),
(46,361,ls),
(46,337,o),
(50,323,o),
(62,315,cs),
(78,304,o),
(205,431,o),
(188,443,c),
(186,445,o),
(185,449,o),
(185,457,cs),
(185,469,o),
(187,491,o),
(191,529,cs),
(197,598,l),
(198,640,ls),
(198,681,o),
(192,703,o),
(181,709,cs)
);
}
);
width = 223;
}
);
unicode = 42892;
},
